<svg width="584" height="523" viewBox="0 0 584 523" fill="none" xmlns="http://www.w3.org/2000/svg">
<path d="M564.47 509.624H0.0208454" stroke="#66B0F0" stroke-width="6" stroke-miterlimit="10"/>
<path d="M49.3248 519.849H372.556" stroke="#66B0F0" stroke-width="6" stroke-miterlimit="10"/>
<path d="M535.383 382.745H445.11C440.838 382.745 437.367 386.217 437.367 390.49V509.623H543.108V390.49C543.127 386.217 539.655 382.745 535.383 382.745Z" fill="#D0F0E4"/>
<path d="M535.383 382.745H445.11C440.838 382.745 437.367 386.217 437.367 390.49V509.623H543.108V390.49C543.127 386.217 539.655 382.745 535.383 382.745Z" stroke="#FFCF2D" stroke-width="6" stroke-miterlimit="10"/>
<path d="M555.467 248.904H425.197V509.604H555.467V248.904Z" stroke="#FFCF2D" stroke-width="6" stroke-miterlimit="10"/>
<path d="M558.881 216.264H112.132V248.904H584" stroke="#FFCF2D" stroke-width="6" stroke-miterlimit="10"/>
<path d="M535.383 310.178H445.282C441.009 310.178 437.538 306.706 437.538 302.433V270.613C437.538 266.34 441.009 262.868 445.282 262.868H535.383C539.655 262.868 543.126 266.34 543.126 270.613V302.452C543.126 306.725 539.655 310.178 535.383 310.178Z" stroke="#FFCF2D" stroke-width="6" stroke-miterlimit="10"/>
<path d="M535.383 367.789H445.282C441.009 367.789 437.538 364.317 437.538 360.044V328.224C437.538 323.951 441.009 320.479 445.282 320.479H535.383C539.655 320.479 543.126 323.951 543.126 328.224V360.044C543.126 364.317 539.655 367.789 535.383 367.789Z" stroke="#FFCF2D" stroke-width="6" stroke-miterlimit="10"/>
<path d="M490.637 292.322C494.061 292.322 496.836 289.547 496.836 286.122C496.836 282.698 494.061 279.923 490.637 279.923C487.214 279.923 484.438 282.698 484.438 286.122C484.438 289.547 487.214 292.322 490.637 292.322Z" stroke="#66B0F0" stroke-width="6" stroke-miterlimit="10"/>
<path d="M490.637 350.105C494.061 350.105 496.836 347.329 496.836 343.905C496.836 340.481 494.061 337.705 490.637 337.705C487.214 337.705 484.438 340.481 484.438 343.905C484.438 347.329 487.214 350.105 490.637 350.105Z" stroke="#66B0F0" stroke-width="6" stroke-miterlimit="10"/>
<path d="M529.337 422.425L529.203 423.245L529.146 423.722L527.162 436.37L526.953 437.724L526.056 443.485L525.732 445.507L524.893 450.849L524.683 452.203L522.642 465.29V465.347L522.432 466.701L522.318 467.312L520.372 479.826L520.163 481.18L519.247 487.075V487.094L518.923 489.116L518.103 494.305L517.893 495.659L515.852 508.803L515.833 508.879L515.738 509.49L515.719 509.623H462.123L462.104 509.471L462.009 508.937L461.99 508.765L459.93 495.64L459.72 494.267L458.919 489.173L458.614 487.132L457.679 481.142L457.469 479.788L455.524 467.369L455.409 466.663L455.2 465.328V465.309L453.14 452.165L452.93 450.81L452.11 445.564L451.805 443.542L450.889 437.686L450.679 436.331L448.715 423.779L448.505 422.425H529.337Z" fill="white"/>
<path d="M516.233 510.215H461.608L461.379 508.803L447.799 421.833H530.023L516.233 510.215ZM462.619 509.032H515.203L528.631 423.035H449.172L462.619 509.032Z" fill="#66B0F0"/>
<path d="M530.08 422.424C530.08 422.691 530.042 422.978 529.947 423.245C529.298 425.248 526.323 427.098 521.65 428.624C521.307 428.739 520.964 428.834 520.62 428.949C517.607 429.845 514.002 430.627 509.939 431.219C509.558 431.276 509.176 431.333 508.776 431.39C505.19 431.886 501.28 432.249 497.141 432.459C496.722 432.478 496.321 432.497 495.902 432.516C493.632 432.611 491.286 432.669 488.902 432.669C487.071 432.669 485.259 432.63 483.485 432.573C483.046 432.554 482.608 432.535 482.169 432.516C477.401 432.325 472.899 431.925 468.818 431.352C468.322 431.276 467.845 431.219 467.368 431.142C460.445 430.093 454.875 428.548 451.461 426.698C449.478 425.629 448.238 424.466 447.837 423.245L447.723 422.443C447.723 416.797 466.148 412.238 488.883 412.238C511.484 412.238 529.833 416.759 530.042 422.367C530.08 422.367 530.08 422.386 530.08 422.424Z" fill="#66B0F0"/>
<path d="M515.871 508.822V509.585L515.738 509.49L515.719 509.604H515.223L509.138 501.745L508.509 500.925L502.386 493.027L501.757 492.207L495.635 484.309L495.005 483.489L488.883 475.591L488.253 474.771L482.131 466.873L481.501 466.053L475.398 458.155L474.769 457.335L468.646 449.437L468.017 448.617L461.913 440.719L461.284 439.899L455.181 432.001L454.551 431.181L448.696 423.626L448.6 423.073C448.982 424.275 450.203 425.42 452.148 426.469L455.162 430.36L455.791 431.181L461.913 439.078L462.543 439.899L468.665 447.796L469.295 448.617L475.417 456.514L476.047 457.335L482.169 465.232L482.798 466.053L488.921 473.95L489.55 474.771L495.673 482.668L496.302 483.489L502.425 491.386L503.054 492.207L509.176 500.104L509.806 500.925L515.89 508.784L515.871 508.822Z" fill="#66B0F0"/>
<path d="M518.103 494.305L517.893 495.659L515.871 493.046L515.242 492.226L509.119 484.328L508.49 483.508L502.367 475.61L501.738 474.79L495.616 466.892L494.986 466.072L488.864 458.174L488.234 457.354L482.169 449.532L481.54 448.712L475.417 440.814L474.788 439.994L468.665 432.096L468.036 431.276L467.769 430.933C468.227 431.009 468.703 431.066 469.18 431.142L469.276 431.276L475.398 439.174L476.028 439.994L482.15 447.892L482.779 448.712L488.902 456.61L489.531 457.43L495.654 465.328L496.283 466.148L502.406 474.046L503.035 474.866L509.157 482.764L509.787 483.584L515.909 491.482L516.539 492.302L518.103 494.305Z" fill="#66B0F0"/>
<path d="M520.372 479.826L520.163 481.181L515.871 475.648L515.242 474.828L509.119 466.93L508.49 466.11L502.367 458.212L501.738 457.392L495.616 449.495L494.986 448.674L488.864 440.777L488.234 439.956L482.264 432.249C482.703 432.268 483.123 432.287 483.561 432.307L488.864 439.136L489.493 439.956L495.616 447.854L496.245 448.674L502.367 456.572L502.997 457.392L509.119 465.29L509.749 466.11L515.871 474.008L516.501 474.828L520.372 479.826Z" fill="#66B0F0"/>
<path d="M522.642 465.347L522.432 466.701L521.993 466.129L515.871 458.231L515.241 457.411L509.119 449.513L508.49 448.693L502.367 440.795L501.738 439.975L495.768 432.268C496.168 432.249 496.588 432.23 496.989 432.211L502.367 439.155L502.997 439.975L509.119 447.873L509.748 448.693L515.871 456.591L516.5 457.411L522.623 465.308L522.642 465.347Z" fill="#66B0F0"/>
<path d="M475.799 509.319L475.417 509.605L475.398 509.624H474.769L468.665 501.764L468.036 500.944L461.933 493.046L461.303 492.245L458.919 489.174L458.614 487.133L461.933 491.425L462.562 492.245L468.665 500.124L469.295 500.944L475.417 508.842L475.799 509.319Z" fill="#66B0F0"/>
<path d="M462.295 509.318L462.104 509.471L462.008 508.937L462.295 509.318Z" fill="#66B0F0"/>
<path d="M489.284 509.318L488.902 509.605L488.883 509.624H488.254L482.169 501.764L481.54 500.944L475.417 493.046L474.788 492.245L468.666 484.347L468.036 483.546V483.527L461.933 475.648L461.303 474.828L455.524 467.369L455.41 466.663L455.2 465.328L455.81 466.129L461.933 474.027L462.562 474.828L468.666 482.726L469.295 483.546L475.417 491.425L476.047 492.245L482.169 500.124L482.799 500.944L488.902 508.841L489.284 509.318Z" fill="#66B0F0"/>
<path d="M502.768 509.318L502.386 509.605L502.367 509.624H501.738L495.653 501.764L495.024 500.944L488.902 493.046L488.272 492.245L482.169 484.347L481.539 483.546L475.417 475.648L474.788 474.828L468.665 466.949L468.036 466.129L461.932 458.231L461.303 457.43L455.18 449.532L454.551 448.731L452.11 445.565L451.804 443.542L455.18 447.911L455.81 448.731L461.932 456.61L462.562 457.43L468.665 465.309L469.294 466.129L475.417 474.027L476.046 474.828L482.169 482.726L482.798 483.546L488.902 491.425L489.531 492.245L495.653 500.123L496.283 500.944L502.386 508.841L502.768 509.318Z" fill="#66B0F0"/>
<path d="M524.893 450.849L524.683 452.203L522.623 449.533L521.994 448.712L515.871 440.815L515.242 439.994L509.119 432.097L508.49 431.276L508.414 431.181C508.795 431.124 509.177 431.067 509.539 431.009L509.749 431.276L515.871 439.174L516.501 439.994L522.623 447.892L523.253 448.712L524.893 450.849Z" fill="#66B0F0"/>
<path d="M527.163 436.369L526.953 437.724L522.623 432.134L521.994 431.314L520.068 428.815C520.411 428.72 520.754 428.605 521.078 428.491L522.623 430.494L523.253 431.314L527.163 436.369Z" fill="#66B0F0"/>
<path d="M529.89 422.73L529.356 423.417L529.204 423.226C529.299 422.959 529.337 422.692 529.337 422.424C529.337 422.386 529.337 422.367 529.337 422.329L529.356 422.31L529.89 422.73Z" fill="#66B0F0"/>
<path d="M526.056 443.485L525.732 445.507L523.252 448.731L522.623 449.532L516.5 457.43L515.871 458.231L509.767 466.129L509.138 466.949L503.015 474.828L502.386 475.648L496.283 483.546L495.653 484.347L489.531 492.245L488.901 493.046L482.798 500.944L482.169 501.764L476.065 509.623H475.436L475.417 509.604L475.054 509.318L475.417 508.841L481.539 500.944L482.169 500.123L488.272 492.245L488.901 491.424L495.024 483.546L495.653 482.726L501.757 474.828L502.386 474.027L508.509 466.129L509.138 465.309L515.241 457.43L515.871 456.61L521.993 448.731L522.623 447.911L526.056 443.485Z" fill="#66B0F0"/>
<path d="M529.146 423.722L523.252 431.333L522.623 432.154L516.5 440.051L515.871 440.872L509.749 448.769L509.119 449.59L502.997 457.487L502.367 458.307L496.283 466.129L495.654 466.949L489.531 474.847L488.902 475.667L482.779 483.565L482.15 484.385L476.027 492.283L475.398 493.103L469.276 501.001L468.646 501.821L462.562 509.681H462.104L462.085 509.528L462.009 508.994L461.932 508.898L461.99 508.822L468.055 501.001L468.684 500.18L474.807 492.283L475.436 491.463L481.559 483.565L482.188 482.745L488.31 474.847L488.94 474.027L495.062 466.129L495.692 465.309L501.814 457.411L502.444 456.591L508.566 448.693L509.195 447.873L515.318 439.975L515.947 439.155L522.051 431.257L522.68 430.437L525.675 426.564C527.639 425.515 528.879 424.37 529.279 423.149L529.146 423.722Z" fill="#66B0F0"/>
<path d="M510.016 430.99L509.749 431.333L509.119 432.153L502.997 440.051L502.367 440.871L496.245 448.769L495.615 449.589L489.493 457.487L488.864 458.307L482.741 466.205L482.112 467.025L475.989 474.923L475.36 475.743L469.237 483.641L468.608 484.461L462.486 492.359L461.856 493.179L459.853 495.755L459.644 494.4L461.227 492.359L461.856 491.539L467.959 483.641L468.589 482.821L474.711 474.923L475.341 474.103L481.444 466.205L482.074 465.385L488.196 457.487L488.825 456.667L494.948 448.769L495.577 447.949L501.7 440.051L502.329 439.231L508.452 431.333L508.547 431.2C508.871 431.161 509.195 431.104 509.501 431.066C509.71 431.028 509.863 431.009 510.016 430.99Z" fill="#66B0F0"/>
<path d="M495.501 432.325L489.531 440.013L488.902 440.833L482.779 448.731L482.15 449.551L476.027 457.449L475.398 458.269L469.275 466.167L468.646 466.987L462.523 474.885L461.894 475.705L457.641 481.199L457.431 479.845L461.265 474.885L461.894 474.065L468.017 466.167L468.646 465.347L474.768 457.449L475.398 456.629L481.52 448.731L482.15 447.911L488.272 440.013L488.902 439.193L494.204 432.363C494.624 432.363 495.062 432.344 495.501 432.325Z" fill="#66B0F0"/>
<path d="M519.247 487.094L518.923 489.116L516.5 492.245L515.871 493.046L509.767 500.944L509.138 501.764L503.035 509.623H502.405L502.386 509.604L502.024 509.318L502.386 508.841L508.509 500.944L509.138 500.123L515.241 492.245L515.871 491.424L519.247 487.094Z" fill="#66B0F0"/>
<path d="M522.318 467.312L516.5 474.828L515.871 475.648L509.768 483.546L509.138 484.347L503.016 492.245L502.386 493.046L496.283 500.944L495.654 501.764L489.55 509.623H488.921L488.902 509.604L488.539 509.318L488.902 508.841L495.024 500.944L495.654 500.123L501.757 492.245L502.386 491.424L508.509 483.546L509.138 482.725L515.242 474.828L515.871 474.027L521.994 466.129L522.623 465.309L522.642 465.29V465.347L522.432 466.701L522.318 467.312Z" fill="#66B0F0"/>
<path d="M482.016 432.306L476.046 440.013L475.417 440.833L469.295 448.731L468.665 449.551L462.543 457.449L461.913 458.269L455.791 466.167L455.391 466.701L455.181 465.385L455.162 465.366L455.181 465.347L461.284 457.468L461.913 456.648L468.017 448.75L468.646 447.93L474.769 440.032L475.398 439.212L480.777 432.268C481.215 432.268 481.616 432.287 482.016 432.306Z" fill="#66B0F0"/>
<path d="M469.39 431.219L469.313 431.333L468.684 432.153L462.562 440.051L461.932 440.871L455.81 448.769L455.18 449.589L453.139 452.222L452.93 450.867L454.551 448.769L455.18 447.949L461.284 440.051L461.913 439.231L468.035 431.333L468.245 431.066C468.55 431.104 468.875 431.161 469.199 431.199L469.39 431.219Z" fill="#66B0F0"/>
<path d="M457.755 428.815L455.81 431.314L455.18 432.134L450.87 437.686L450.66 436.331L454.551 431.314L455.18 430.494L456.744 428.491C457.069 428.605 457.412 428.72 457.755 428.815Z" fill="#66B0F0"/>
<path d="M533.265 411.227H515.661V405.866H526.342C529.68 405.866 532.464 408.156 533.265 411.227Z" fill="white" stroke="#FFCF2D" stroke-width="5" stroke-miterlimit="10"/>
<path d="M526.457 405.867C521.459 405.924 517.092 409.262 515.757 414.089L511.694 428.835C511.122 428.93 510.531 429.026 509.939 429.102C509.558 429.159 509.176 429.216 508.776 429.274C505.19 429.77 501.28 430.132 497.141 430.342C496.722 430.361 496.321 430.38 495.901 430.399C493.632 430.494 491.286 430.552 488.902 430.552C487.071 430.552 485.259 430.514 483.485 430.456C483.046 430.437 482.607 430.418 482.169 430.399C481.997 430.399 481.825 430.38 481.654 430.38L486.155 414.089C487.49 409.224 491.915 405.867 496.97 405.867H526.457Z" fill="white" stroke="#FFCF2D" stroke-width="5" stroke-miterlimit="10"/>
<path d="M514.403 87.9937L559.434 216.264H394.528L438.358 87.9937H514.403Z" fill="#FFCF2D"/>
<path d="M476.733 72.7136C476.733 67.3721 481.063 63.0417 486.403 63.0417H491.992C497.332 63.0417 501.662 67.3721 501.662 72.7136V197.875" stroke="#66B0F0" stroke-width="6" stroke-miterlimit="10"/>
<path d="M514.651 212.182V216.055H473.872V212.182C473.872 208.882 474.998 205.83 476.886 203.407C479.499 200.05 483.6 197.875 488.177 197.875H500.327C500.517 197.875 500.727 197.875 500.918 197.894C508.566 198.199 514.651 204.475 514.651 212.182Z" fill="white" stroke="#FF7235" stroke-width="6" stroke-miterlimit="10"/>
<path d="M523.711 88.528H429.356V85.5711C429.356 78.4937 435.097 72.7708 442.154 72.7708H510.913C517.989 72.7708 523.711 78.5128 523.711 85.5711V88.528Z" fill="#FF7235"/>
<path d="M523.711 86.1624H429.356" stroke="white" stroke-width="5" stroke-miterlimit="10" stroke-linecap="round"/>
<path d="M513.85 88.5281C513.85 91.9046 511.752 94.6517 509.139 94.6517H443.108C440.514 94.6517 438.396 91.9046 438.396 88.5281H513.85Z" fill="white"/>
<path d="M501.662 201.614C501.662 207.738 496.074 212.717 489.189 212.717C482.99 212.717 477.84 208.691 476.887 203.407C479.5 200.05 483.6 197.875 488.178 197.875H500.327C500.518 197.875 500.728 197.875 500.919 197.894C501.414 199.058 501.662 200.317 501.662 201.614Z" fill="white" stroke="#FF7235" stroke-width="6" stroke-miterlimit="10"/>
<path d="M489.532 195.261V201.251C489.532 202.472 488.407 203.464 487.033 203.464C485.66 203.464 484.535 202.472 484.535 201.251V195.261H484.573C484.802 196.31 485.813 197.111 487.014 197.111C488.216 197.111 489.227 196.31 489.456 195.261H489.532Z" fill="#FF7235"/>
<path d="M488.997 195.051C488.997 195.185 488.978 195.319 488.959 195.452C488.788 196.406 487.986 197.112 487.014 197.112C486.06 197.112 485.259 196.406 485.068 195.452C485.049 195.319 485.03 195.185 485.03 195.051C485.03 193.907 485.907 192.991 487.014 192.991C488.101 192.991 488.997 193.926 488.997 195.051Z" fill="white" stroke="#FF7235" stroke-width="6" stroke-miterlimit="10"/>
<path d="M424.034 129.313H417.511V216.264H424.034V129.313Z" fill="#005BDC"/>
<path d="M414.785 216.264H403.608C402.425 216.264 401.472 215.311 401.472 214.128V149.496C401.472 148.314 402.425 147.36 403.608 147.36H414.785C415.967 147.36 416.921 148.314 416.921 149.496V214.128C416.921 215.311 415.967 216.264 414.785 216.264Z" fill="white" stroke="#FFCF2D" stroke-width="5" stroke-miterlimit="10"/>
<path d="M450.737 214.872H437.901C436.966 214.872 436.165 214.204 435.994 213.288L424.474 153.426C424.245 152.224 425.16 151.118 426.381 151.118H439.217C440.152 151.118 440.953 151.786 441.124 152.701L452.645 212.564C452.873 213.765 451.958 214.872 450.737 214.872Z" stroke="#66B0F0" stroke-width="6" stroke-miterlimit="10"/>
<path d="M398.915 216.264H338.454C337.042 216.264 335.898 215.12 335.898 213.708V201.327C335.898 199.916 337.042 198.771 338.454 198.771H398.915C400.327 198.771 401.471 199.916 401.471 201.327V213.708C401.471 215.12 400.327 216.264 398.915 216.264Z" fill="#FF7235"/>
<path d="M172.498 4.05737V43.5077C172.498 51.2337 166.223 57.5099 158.499 57.5099H114.764C122.489 57.5099 128.764 51.2527 128.764 43.5077V4.05737H172.498Z" fill="white" stroke="#FFCF2D" stroke-width="5" stroke-miterlimit="10"/>
<path d="M152.3 0.241943H148.772V8.6547H152.3V0.241943Z" fill="#FF7235"/>
<path d="M159.777 19.0514C159.281 19.0514 158.785 18.8607 158.384 18.4982L156.916 17.201C156.458 16.8004 155.848 16.8004 155.39 17.201L153.998 18.441C153.177 19.1659 152.033 19.1659 151.194 18.441L149.916 17.3155C149.458 16.9149 148.848 16.9149 148.39 17.3155L147.208 18.3647C146.387 19.0896 145.243 19.0896 144.404 18.3647L143.431 17.5062C142.973 17.1056 142.363 17.1056 141.905 17.5062L140.856 18.441C140.036 19.1659 138.892 19.1659 138.052 18.441L137.08 17.5826C136.622 17.182 136.012 17.182 135.554 17.5826C135.363 17.7542 135.058 17.7352 134.886 17.5444C134.715 17.3536 134.734 17.0484 134.924 16.8767C135.745 16.1518 136.889 16.1518 137.728 16.8767L138.701 17.7352C139.159 18.1358 139.769 18.1358 140.227 17.7352L141.276 16.8004C142.096 16.0755 143.24 16.0755 144.08 16.8004L145.052 17.6589C145.51 18.0595 146.12 18.0595 146.578 17.6589L147.761 16.6097C148.581 15.8847 149.725 15.8847 150.564 16.6097L151.842 17.7352C152.3 18.1358 152.91 18.1358 153.368 17.7352L154.76 16.4952C155.581 15.7703 156.725 15.7703 157.564 16.4952L159.033 17.7924C159.491 18.193 160.101 18.193 160.559 17.7924L162.085 16.438C162.905 15.7131 164.049 15.7131 164.888 16.438C165.079 16.6097 165.098 16.9149 164.926 17.1056C164.755 17.2964 164.45 17.3155 164.259 17.1438C163.801 16.7432 163.191 16.7432 162.733 17.1438L161.207 18.4982C160.749 18.8607 160.273 19.0514 159.777 19.0514Z" fill="#FFCF2D"/>
<path d="M159.777 26.8923C159.281 26.8923 158.785 26.7015 158.384 26.339L156.916 25.0418C156.458 24.6412 155.848 24.6412 155.39 25.0418L153.998 26.2818C153.177 27.0067 152.033 27.0067 151.194 26.2818L149.916 25.1563C149.458 24.7557 148.848 24.7557 148.39 25.1563L147.208 26.2055C146.387 26.9304 145.243 26.9304 144.404 26.2055L143.431 25.3471C142.973 24.9465 142.363 24.9465 141.905 25.3471L140.856 26.2818C140.036 27.0067 138.892 27.0067 138.052 26.2818L137.08 25.4234C136.622 25.0228 136.012 25.0228 135.554 25.4234C135.363 25.5951 135.058 25.576 134.886 25.3852C134.715 25.1944 134.734 24.8892 134.924 24.7175C135.745 23.9926 136.889 23.9926 137.728 24.7175L138.701 25.576C139.159 25.9766 139.769 25.9766 140.227 25.576L141.276 24.6412C142.096 23.9163 143.24 23.9163 144.08 24.6412L145.052 25.4997C145.51 25.9003 146.12 25.9003 146.578 25.4997L147.761 24.4505C148.581 23.7256 149.725 23.7256 150.564 24.4505L151.842 25.576C152.3 25.9766 152.91 25.9766 153.368 25.576L154.76 24.336C155.581 23.6111 156.725 23.6111 157.564 24.336L159.033 25.6332C159.491 26.0338 160.101 26.0338 160.559 25.6332L162.085 24.2788C162.905 23.5539 164.049 23.5539 164.888 24.2788C165.079 24.4505 165.098 24.7557 164.926 24.9465C164.755 25.1372 164.45 25.1563 164.259 24.9846C163.801 24.584 163.191 24.584 162.733 24.9846L161.207 26.339C160.749 26.7206 160.273 26.8923 159.777 26.8923Z" fill="#FFCF2D"/>
<path d="M159.777 34.7321C159.281 34.7321 158.785 34.5413 158.384 34.1789L156.916 32.8817C156.458 32.4811 155.848 32.4811 155.39 32.8817L153.998 34.1217C153.177 34.8466 152.033 34.8466 151.194 34.1217L149.916 32.9961C149.458 32.5955 148.848 32.5955 148.39 32.9961L147.208 34.0454C146.387 34.7703 145.243 34.7703 144.404 34.0454L143.431 33.1869C142.973 32.7863 142.363 32.7863 141.905 33.1869L140.856 34.1217C140.036 34.8466 138.892 34.8466 138.052 34.1217L137.08 33.2632C136.622 32.8626 136.012 32.8626 135.554 33.2632C135.363 33.4349 135.058 33.4158 134.886 33.2251C134.715 33.0343 134.734 32.7291 134.924 32.5574C135.745 31.8325 136.889 31.8325 137.728 32.5574L138.701 33.4158C139.159 33.8164 139.769 33.8164 140.227 33.4158L141.276 32.4811C142.096 31.7562 143.24 31.7562 144.08 32.4811L145.052 33.3395C145.51 33.7401 146.12 33.7401 146.578 33.3395L147.761 32.2903C148.581 31.5654 149.725 31.5654 150.564 32.2903L151.842 33.4158C152.3 33.8164 152.91 33.8164 153.368 33.4158L154.76 32.1759C155.581 31.451 156.725 31.451 157.564 32.1759L159.033 33.4731C159.491 33.8737 160.101 33.8737 160.559 33.4731L162.085 32.1186C162.905 31.3937 164.049 31.3937 164.888 32.1186C165.079 32.2903 165.098 32.5955 164.926 32.7863C164.755 32.9771 164.45 32.9961 164.259 32.8245C163.801 32.4238 163.191 32.4238 162.733 32.8245L161.207 34.1789C160.749 34.5604 160.273 34.7321 159.777 34.7321Z" fill="#FFCF2D"/>
<path d="M159.777 42.5917C159.281 42.5917 158.785 42.401 158.384 42.0385L156.916 40.7413C156.458 40.3407 155.848 40.3407 155.39 40.7413L153.998 41.9813C153.177 42.7062 152.033 42.7062 151.194 41.9813L149.916 40.8558C149.458 40.4552 148.848 40.4552 148.39 40.8558L147.208 41.905C146.387 42.6299 145.243 42.6299 144.404 41.905L143.431 41.0465C142.973 40.6459 142.363 40.6459 141.905 41.0465L140.856 41.9813C140.036 42.7062 138.892 42.7062 138.052 41.9813L137.08 41.1228C136.622 40.7222 136.012 40.7222 135.554 41.1228C135.363 41.2945 135.058 41.2755 134.886 41.0847C134.715 40.8939 134.734 40.5887 134.924 40.417C135.745 39.6921 136.889 39.6921 137.728 40.417L138.701 41.2755C139.159 41.6761 139.769 41.6761 140.227 41.2755L141.276 40.3407C142.096 39.6158 143.24 39.6158 144.08 40.3407L145.052 41.1992C145.51 41.5998 146.12 41.5998 146.578 41.1992L147.761 40.1499C148.581 39.425 149.725 39.425 150.564 40.1499L151.842 41.2755C152.3 41.6761 152.91 41.6761 153.368 41.2755L154.76 40.0355C155.581 39.3106 156.725 39.3106 157.564 40.0355L159.033 41.3327C159.491 41.7333 160.101 41.7333 160.559 41.3327L162.085 39.9783C162.905 39.2533 164.049 39.2533 164.888 39.9783C165.079 40.1499 165.098 40.4552 164.926 40.6459C164.755 40.8367 164.45 40.8558 164.259 40.6841C163.801 40.2835 163.191 40.2835 162.733 40.6841L161.207 42.0385C160.749 42.401 160.273 42.5917 159.777 42.5917Z" fill="#FFCF2D"/>
<path d="M217.53 4.05737H186.937V34.6562H217.53V4.05737Z" fill="#66B0F0"/>
<path d="M193.662 2.74889L191.444 0.00390625L183.359 6.53928L185.577 9.28426L193.662 2.74889Z" fill="#FFCF2D"/>
<path d="M219.117 9.28038L221.335 6.5354L213.25 1.84636e-05L211.032 2.745L219.117 9.28038Z" fill="#FFCF2D"/>
<path d="M211.064 11.3064H192.506V12.451H211.064V11.3064Z" fill="white"/>
<path d="M211.064 16.2473H192.506V17.3919H211.064V16.2473Z" fill="white"/>
<path d="M211.064 21.2073H192.506V22.3519H211.064V21.2073Z" fill="white"/>
<path d="M211.064 26.1477H192.506V27.2923H211.064V26.1477Z" fill="white"/>
<path d="M334.467 216.264H263.153L276.962 185.742L278.984 181.259H318.637L324.206 193.563L334.467 216.264Z" fill="white" stroke="#66B0F0" stroke-width="6" stroke-miterlimit="10"/>
<path d="M324.206 193.563L276.962 185.742L278.983 181.259H318.636L324.206 193.563Z" fill="#66B0F0"/>
<path d="M382.856 181.259H214.993C208.833 181.259 203.855 176.261 203.855 170.118V60.5235C203.855 54.3618 208.852 49.3828 214.993 49.3828H382.856C389.016 49.3828 393.994 54.3809 393.994 60.5235V170.099C393.994 176.261 388.997 181.259 382.856 181.259Z" fill="white" stroke="#66B0F0" stroke-width="6" stroke-miterlimit="10"/>
<path d="M332.56 173.514H265.27C261.99 173.514 259.338 170.862 259.338 167.581V159.435C259.338 156.154 261.99 153.502 265.27 153.502H332.56C335.841 153.502 338.492 156.154 338.492 159.435V167.581C338.492 170.862 335.822 173.514 332.56 173.514Z" fill="#66B0F0"/>
<path d="M314.898 168.077H310.359C309.234 168.077 308.318 167.161 308.318 166.036V162.488C308.318 161.362 309.234 160.447 310.359 160.447H314.898C316.024 160.447 316.939 161.362 316.939 162.488V166.036C316.939 167.161 316.024 168.077 314.898 168.077Z" fill="white"/>
<path d="M320.677 167.486L318.999 166.418C318.541 166.131 318.255 165.616 318.255 165.063V163.461C318.255 162.908 318.541 162.393 318.999 162.106L320.677 161.038C321.078 160.79 321.593 161.076 321.593 161.534V166.971C321.612 167.448 321.078 167.734 320.677 167.486Z" fill="white"/>
<path d="M297.695 166.284H297.275C295.616 166.284 294.261 164.929 294.261 163.27V161.496C294.261 161.343 294.395 161.209 294.548 161.209H300.403C300.556 161.209 300.689 161.343 300.689 161.496V163.27C300.708 164.929 299.354 166.284 297.695 166.284ZM294.834 161.782V163.27C294.834 164.605 295.921 165.712 297.275 165.712H297.695C299.03 165.712 300.136 164.624 300.136 163.27V161.782H294.834Z" fill="white"/>
<path d="M297.485 169.584C297.332 169.584 297.199 169.451 297.199 169.298V167.142C297.199 166.99 297.332 166.856 297.485 166.856C297.637 166.856 297.771 166.99 297.771 167.142V169.298C297.771 169.451 297.637 169.584 297.485 169.584Z" fill="white"/>
<path d="M298.992 169.584H295.997C295.845 169.584 295.711 169.45 295.711 169.298C295.711 169.145 295.845 169.012 295.997 169.012H298.992C299.144 169.012 299.278 169.145 299.278 169.298C299.278 169.45 299.144 169.584 298.992 169.584Z" fill="white"/>
<path d="M297.618 164.948H297.351C296.398 164.948 295.635 164.185 295.635 163.232V159.76C295.635 158.806 296.398 158.043 297.351 158.043H297.618C298.572 158.043 299.335 158.806 299.335 159.76V163.232C299.335 164.185 298.572 164.948 297.618 164.948Z" fill="white"/>
<path d="M280.071 162.793L280.052 162.812C279.689 163.251 279.804 163.919 280.281 164.319L282.035 165.731C282.512 166.113 283.199 166.074 283.561 165.636L283.58 165.617C283.943 165.178 284.629 165.159 285.087 165.559L286.67 166.99C287.166 167.448 287.166 168.211 286.67 168.554C285.011 169.718 282.855 169.298 281.082 167.868L278.411 165.712C276.638 164.262 275.779 162.24 276.561 160.37C276.809 159.798 277.553 159.646 278.087 160.046L279.823 161.305C280.3 161.687 280.414 162.354 280.071 162.793Z" fill="white"/>
<path d="M284.725 163.9C284.572 163.9 284.458 163.785 284.438 163.633C284.343 162.259 283.161 161.21 281.787 161.305C281.635 161.305 281.501 161.191 281.482 161.038C281.463 160.885 281.597 160.752 281.749 160.733C283.447 160.618 284.896 161.916 285.011 163.594C285.03 163.747 284.915 163.88 284.725 163.9C284.744 163.9 284.744 163.9 284.725 163.9Z" fill="white"/>
<path d="M286.517 163.613C286.365 163.613 286.25 163.499 286.231 163.346C286.155 162.202 285.64 161.133 284.763 160.37C283.885 159.607 282.779 159.226 281.635 159.302C281.482 159.302 281.349 159.188 281.329 159.035C281.31 158.882 281.444 158.749 281.596 158.73C282.893 158.653 284.152 159.073 285.144 159.932C286.136 160.79 286.708 161.992 286.803 163.289C286.823 163.48 286.689 163.613 286.517 163.613C286.536 163.613 286.536 163.613 286.517 163.613Z" fill="white"/>
<path d="M351.022 59.7033C352.118 59.7033 353.006 58.815 353.006 57.7193C353.006 56.6236 352.118 55.7354 351.022 55.7354C349.927 55.7354 349.039 56.6236 349.039 57.7193C349.039 58.815 349.927 59.7033 351.022 59.7033Z" stroke="#FFCF2D" stroke-width="5" stroke-miterlimit="10"/>
<path d="M359.129 59.7033C360.224 59.7033 361.112 58.815 361.112 57.7193C361.112 56.6236 360.224 55.7354 359.129 55.7354C358.033 55.7354 357.145 56.6236 357.145 57.7193C357.145 58.815 358.033 59.7033 359.129 59.7033Z" stroke="#FFCF2D" stroke-width="5" stroke-miterlimit="10"/>
<path d="M367.254 59.7033C368.349 59.7033 369.237 58.815 369.237 57.7193C369.237 56.6236 368.349 55.7354 367.254 55.7354C366.158 55.7354 365.27 56.6236 365.27 57.7193C365.27 58.815 366.158 59.7033 367.254 59.7033Z" stroke="#FFCF2D" stroke-width="5" stroke-miterlimit="10"/>
<path d="M291.858 148.619H232.083C230.252 148.619 228.783 147.131 228.783 145.319V113.308C228.783 111.477 230.271 110.008 232.083 110.008H291.858C293.689 110.008 295.157 111.496 295.157 113.308V145.319C295.157 147.131 293.689 148.619 291.858 148.619Z" stroke="#66B0F0" stroke-width="6" stroke-miterlimit="10"/>
<path d="M367.254 148.619H307.479C305.648 148.619 304.179 147.131 304.179 145.319V113.308C304.179 111.477 305.667 110.008 307.479 110.008H367.254C369.085 110.008 370.553 111.496 370.553 113.308V145.319C370.553 147.131 369.085 148.619 367.254 148.619Z" fill="#005BDC"/>
<path d="M355.962 148.524H316.901C320.849 143.659 326.876 140.531 333.628 140.531H339.235C345.987 140.55 352.014 143.659 355.962 148.524Z" fill="#FF7235"/>
<path d="M335.211 140.55C334.829 143.43 332.369 145.643 329.394 145.643C327.2 145.643 325.293 144.441 324.282 142.667C327.105 141.313 330.271 140.55 333.609 140.55H335.211Z" fill="white"/>
<path d="M346.75 141.885C345.892 144.079 343.775 145.624 341.276 145.624C338.301 145.624 335.84 143.411 335.459 140.531H339.254C341.887 140.55 344.404 141.008 346.75 141.885Z" fill="white"/>
<path d="M342.459 132.041V140.702C342.459 142.056 339.75 143.144 336.432 143.144C335.821 143.144 335.23 143.106 334.677 143.048C332.197 142.743 330.405 141.808 330.405 140.702V132.041H342.459Z" fill="#A0505A"/>
<path d="M341.658 133.816C341.658 137.574 338.377 142.133 334.677 143.03C332.197 142.725 330.405 141.79 330.405 140.683V132.023H341.467L341.658 133.816Z" fill="#73325A"/>
<path d="M345.549 130.935V131.145C345.549 132.614 344.347 133.816 342.878 133.816H340.323C339.159 136.315 336.622 138.031 333.685 138.031H333.189C329.909 138.031 327.258 135.38 327.258 132.099V125.975C331.053 126.223 335.879 122.904 335.879 122.904C337.462 129.027 341.982 128.951 344.08 128.55C344.938 128.989 345.549 129.905 345.549 130.935Z" fill="#A0505A"/>
<path d="M341.791 131.87C341.638 131.87 341.505 131.736 341.505 131.584C341.505 130.363 342.497 129.371 343.718 129.371C343.87 129.371 344.004 129.504 344.004 129.657C344.004 129.81 343.87 129.943 343.718 129.943C342.821 129.943 342.077 130.668 342.077 131.584C342.077 131.736 341.944 131.87 341.791 131.87Z" fill="#73325A"/>
<path d="M342.459 133.816H342.878C344.347 133.816 345.549 132.614 345.549 131.145V130.935C345.549 129.886 344.957 128.989 344.08 128.551C343.508 128.665 342.726 128.741 341.887 128.684C339.712 128.513 337.023 127.33 335.879 122.904C335.879 122.904 331.053 126.223 327.258 125.975C326.552 125.937 325.884 125.765 325.293 125.422C322.146 123.629 329.756 115.235 338.492 116.494C345.472 117.505 345.32 125.861 345.186 127.845C345.53 127.807 345.873 127.788 346.216 127.788C351.328 127.788 355.467 131.717 355.467 136.582C355.467 139.749 353.712 142.534 351.061 144.079C348.524 142.4 345.606 141.256 342.459 140.779V133.816Z" fill="#FFCF2D"/>
<path d="M331.11 132.08C331.072 132.08 331.034 132.08 331.015 132.061C330.862 132.003 330.786 131.832 330.843 131.698C330.843 131.679 331.415 130.134 330.462 128.474C329.642 127.043 327.83 127.291 327.753 127.311C327.601 127.33 327.448 127.234 327.429 127.063C327.41 126.91 327.505 126.757 327.677 126.738C327.772 126.719 329.947 126.414 330.977 128.188C332.064 130.077 331.415 131.832 331.396 131.889C331.32 132.003 331.225 132.08 331.11 132.08Z" fill="#73325A"/>
<path d="M337.614 128.455C337.557 128.455 337.5 128.436 337.442 128.398C335.783 127.12 333.571 127.272 333.552 127.272C333.399 127.291 333.265 127.158 333.246 127.005C333.227 126.853 333.361 126.719 333.513 126.7C333.609 126.7 335.955 126.528 337.786 127.94C337.919 128.035 337.938 128.207 337.843 128.341C337.767 128.417 337.69 128.455 337.614 128.455Z" fill="#73325A"/>
<path d="M330.118 132.728C330.118 132.728 330.576 135.742 333.685 132.805C333.685 132.805 331.511 133.091 330.118 132.728Z" fill="white"/>
<path d="M334.906 130.191C335.127 130.191 335.306 129.789 335.306 129.294C335.306 128.799 335.127 128.398 334.906 128.398C334.685 128.398 334.505 128.799 334.505 129.294C334.505 129.789 334.685 130.191 334.906 130.191Z" fill="#73325A"/>
<path d="M328.955 130.038C329.144 130.038 329.298 129.705 329.298 129.295C329.298 128.884 329.144 128.551 328.955 128.551C328.765 128.551 328.611 128.884 328.611 129.295C328.611 129.705 328.765 130.038 328.955 130.038Z" fill="#73325A"/>
<path d="M366.51 104.876H306.735C304.904 104.876 303.435 103.388 303.435 101.576V69.5656C303.435 67.7343 304.923 66.2654 306.735 66.2654H366.51C368.341 66.2654 369.81 67.7533 369.81 69.5656V101.576C369.81 103.388 368.322 104.876 366.51 104.876Z" fill="#66B0F0"/>
<path d="M354.341 104.876H317.854C321.535 99.9738 327.162 96.8452 333.475 96.8452H338.72C345.033 96.8452 350.66 99.9738 354.341 104.876Z" fill="#FFCF2D"/>
<path d="M334.162 103.236H334.982C338.548 103.236 341.448 100.336 341.448 96.7689V92.1715C341.448 92.1524 341.428 92.1333 341.409 92.1333H329.413C329.393 92.1333 329.374 92.1524 329.374 92.1715V98.4858C329.393 101.118 331.53 103.236 334.162 103.236Z" fill="white"/>
<path d="M329.394 92.1333V98.3332C329.394 98.4095 329.394 98.5049 329.394 98.5812C329.565 102.129 338.396 100.737 341.047 92.1333H329.394Z" fill="#FFCF2D"/>
<path d="M344.938 89.3673C344.938 90.1303 344.633 90.8171 344.118 91.3321C343.622 91.8281 342.935 92.1334 342.153 92.1334H339.54C338.606 94.6133 336.202 96.3684 333.399 96.3684H331.358C328.516 96.3684 326.227 94.0601 326.227 91.2368V83.2246C329.164 83.4726 331.644 81.1071 331.739 81.0117C331.701 81.1453 330.213 85.3421 333.589 85.571C336.946 85.7999 338.052 83.3772 338.091 83.2818C338.091 83.3772 338.11 86.6202 340.761 86.7919H342.153C343.698 86.7919 344.938 87.8411 344.938 89.3673Z" fill="white"/>
<path d="M341.009 86.7918H340.952C340.895 86.7918 340.837 86.7918 340.78 86.7918C338.129 86.6201 338.11 83.3962 338.11 83.2817C338.072 83.3771 336.946 85.7998 333.609 85.5709C330.252 85.342 331.72 81.1452 331.759 81.0116C331.663 81.0879 329.184 83.4725 326.246 83.2245C325.598 83.1673 324.949 82.9956 324.282 82.6331C319.99 80.3058 322.756 75.5176 326.971 75.4604C330.328 75.4222 331.759 77.2536 331.759 77.2536C331.759 77.2536 332.483 73.4955 336.603 74.1441C340.723 74.7927 339.979 78.4363 339.979 78.4363C339.979 78.4363 343.431 76.8339 345.339 79.7907C347.589 83.2627 344.213 86.7918 341.009 86.7918Z" fill="#FF7235"/>
<path d="M329.737 90.2829C329.718 90.2829 329.699 90.2829 329.66 90.2829C329.508 90.2447 329.413 90.0921 329.451 89.9395C329.451 89.9204 329.908 88.0318 329.088 86.4866C328.192 84.8461 326.647 85.1131 326.59 85.1131C326.437 85.1322 326.285 85.0368 326.266 84.8842C326.227 84.7316 326.342 84.579 326.494 84.5599C326.514 84.5599 328.516 84.1975 329.603 86.2196C330.538 87.9555 330.042 89.9967 330.023 90.073C329.966 90.1875 329.851 90.2829 329.737 90.2829Z" fill="#FFCF2D"/>
<path d="M330.748 92.4956C330.347 92.4956 329.985 92.4383 329.718 92.362C329.565 92.3239 329.47 92.1713 329.508 92.0187C329.546 91.866 329.699 91.7707 329.851 91.8088C329.947 91.8279 332.121 92.4002 332.922 90.7215C332.998 90.5879 333.151 90.5116 333.304 90.5879C333.456 90.6642 333.513 90.8168 333.437 90.9695C332.884 92.1713 331.721 92.4956 330.748 92.4956Z" fill="#FFCF2D"/>
<path d="M333.513 87.9939C333.735 87.9939 333.914 87.5925 333.914 87.0973C333.914 86.6021 333.735 86.2007 333.513 86.2007C333.292 86.2007 333.113 86.6021 333.113 87.0973C333.113 87.5925 333.292 87.9939 333.513 87.9939Z" fill="#FFCF2D"/>
<path d="M327.582 87.841C327.771 87.841 327.925 87.5079 327.925 87.097C327.925 86.6861 327.771 86.353 327.582 86.353C327.392 86.353 327.238 86.6861 327.238 87.097C327.238 87.5079 327.392 87.841 327.582 87.841Z" fill="#FFCF2D"/>
<path d="M340.723 90.4165C340.57 90.4165 340.437 90.283 340.437 90.1304C340.437 88.9095 341.428 87.9175 342.649 87.9175C342.802 87.9175 342.935 88.051 342.935 88.2036C342.935 88.3562 342.802 88.4898 342.649 88.4898C341.753 88.4898 341.009 89.2147 341.009 90.1304C341.009 90.283 340.875 90.4165 340.723 90.4165Z" fill="#FFCF2D"/>
<path d="M291.095 104.876H231.32C229.489 104.876 228.02 103.388 228.02 101.576V69.5656C228.02 67.7343 229.508 66.2654 231.32 66.2654H291.095C292.926 66.2654 294.394 67.7533 294.394 69.5656V101.576C294.413 103.388 292.926 104.876 291.095 104.876Z" fill="#FFCF2D"/>
<path d="M276.657 104.876H239.579C243.317 99.2868 249.039 95.7195 255.448 95.7195H260.788C267.197 95.7195 272.899 99.2868 276.657 104.876Z" fill="white"/>
<path d="M276.657 104.877H239.579C239.693 104.705 239.808 104.552 239.922 104.381C239.941 104.343 239.96 104.304 239.998 104.285H276.256C276.275 104.324 276.295 104.343 276.333 104.381C276.428 104.533 276.542 104.705 276.657 104.877Z" fill="#FEB040"/>
<path d="M275.093 102.797H241.143C241.314 102.587 241.486 102.397 241.658 102.206H274.578C274.75 102.397 274.921 102.587 275.093 102.797Z" fill="#FEB040"/>
<path d="M272.995 100.622H243.241C243.47 100.413 243.699 100.222 243.927 100.031H272.308C272.537 100.222 272.766 100.413 272.995 100.622Z" fill="#FEB040"/>
<path d="M269.79 98.2379H246.426C246.769 98.028 247.132 97.8373 247.494 97.6465H268.703C269.085 97.8373 269.428 98.028 269.79 98.2379Z" fill="#FEB040"/>
<path d="M264.03 88.5852V97.1124C264.03 97.99 261.322 98.6958 258.003 98.6958C254.761 98.6958 252.11 98.0281 251.976 97.1697C251.976 97.1506 251.976 97.1315 251.976 97.1124V88.5852H264.03Z" fill="#E57281"/>
<path d="M263.954 88.5848V88.7755C263.954 92.9724 258.747 97.7796 254.99 98.3329C254.399 98.4282 252.568 98.0658 251.996 97.1501C251.996 97.131 251.996 97.112 251.996 97.0929V88.5657H263.954V88.5848Z" fill="#9A3B82"/>
<path d="M267.311 85.8948V86.0856C267.311 87.5545 266.109 88.7563 264.641 88.7563H262.333C261.589 91.427 259.148 93.3728 256.249 93.3728H253.788C251.061 93.3728 248.829 91.1599 248.829 88.4129V77.5583C253.407 78.8365 261.589 77.6347 261.589 77.6347C261.589 77.6347 260.845 80.3054 262.257 83.205H264.66C266.109 83.2241 267.311 84.4259 267.311 85.8948Z" fill="#E57281"/>
<path d="M264.545 82.8808H262.371C260.521 79.7523 261.57 77.6729 261.57 77.6729C261.57 77.6729 253.388 78.8557 248.81 77.5966C246.731 77.0243 245.396 75.937 245.892 74.0102C247.475 67.8294 264.526 74.4108 265.709 76.6428C266.911 78.8748 264.545 82.8808 264.545 82.8808Z" fill="white" stroke="#FEB040" stroke-width="4" stroke-miterlimit="10"/>
<path d="M256.077 88.7371C256.02 88.7944 255.963 88.8134 255.886 88.8134C255.81 88.8134 255.734 88.7753 255.676 88.7181L255.409 88.4319C254.589 89.1568 253.807 89.5193 253.082 89.5193C253.006 89.5193 252.93 89.5193 252.873 89.5002C252.072 89.4239 251.671 88.8897 251.652 88.8707C251.557 88.7371 251.576 88.5654 251.709 88.4701C251.843 88.3747 252.014 88.3938 252.11 88.5273C252.129 88.5464 252.396 88.8897 252.949 88.947C253.559 89.0042 254.265 88.6799 255.028 88.0122L254.875 87.8405C254.761 87.7261 254.78 87.5353 254.894 87.4399C255.009 87.3255 255.2 87.3446 255.295 87.459L256.096 88.3365C256.21 88.451 256.191 88.6227 256.077 88.7371Z" fill="#9A3B82"/>
<path d="M258.976 83.0525C258.9 83.0525 258.823 83.0335 258.766 82.9762C257.088 81.3356 254.952 81.6599 254.933 81.6599C254.78 81.679 254.627 81.5836 254.608 81.431C254.589 81.2784 254.685 81.1258 254.837 81.1067C254.933 81.0876 257.279 80.7061 259.167 82.5756C259.281 82.6901 259.281 82.8618 259.167 82.9762C259.129 83.0335 259.052 83.0525 258.976 83.0525Z" fill="#9A3B82"/>
<path d="M252.472 87.0585C252.453 87.0585 252.415 87.0585 252.396 87.0394C252.243 87.0013 252.167 86.8296 252.205 86.677C252.205 86.6579 252.796 84.7121 251.843 83.0524C251.023 81.6217 249.173 82.0604 249.154 82.0795C249.001 82.1176 248.848 82.0223 248.81 81.8697C248.772 81.717 248.867 81.5644 249.02 81.5263C249.802 81.3355 251.519 81.3355 252.339 82.7853C253.426 84.6739 252.796 86.7723 252.758 86.8677C252.701 86.9822 252.606 87.0585 252.472 87.0585Z" fill="#9A3B82"/>
<path d="M250.336 84.8268C250.526 84.8268 250.679 84.4937 250.679 84.0828C250.679 83.672 250.526 83.3389 250.336 83.3389C250.147 83.3389 249.993 83.672 249.993 84.0828C249.993 84.4937 250.147 84.8268 250.336 84.8268Z" fill="#9A3B82"/>
<path d="M256.268 84.9792C256.489 84.9792 256.668 84.5778 256.668 84.0826C256.668 83.5875 256.489 83.186 256.268 83.186C256.047 83.186 255.867 83.5875 255.867 84.0826C255.867 84.5778 256.047 84.9792 256.268 84.9792Z" fill="#9A3B82"/>
<path d="M263.153 86.868C263.001 86.868 262.867 86.7345 262.867 86.5819C262.867 85.3419 263.878 84.3308 265.118 84.3308C265.27 84.3308 265.404 84.4643 265.404 84.617C265.404 84.7696 265.27 84.9031 265.118 84.9031C264.183 84.9031 263.439 85.6471 263.439 86.5819C263.439 86.7345 263.325 86.868 263.153 86.868Z" fill="#9A3B82"/>
<path d="M361.342 446.747C360.827 446.595 360.54 446.518 360.54 446.518L354.304 466.949L330.825 460.787C330.634 460.616 330.539 460.52 330.539 460.52C330.539 460.52 235.459 385.988 230.462 350.22C225.484 314.451 265.309 280.514 265.309 280.514C265.309 280.514 350.241 441.081 360.75 446.327C360.96 446.442 361.17 446.575 361.342 446.747Z" fill="#A0505A"/>
<path d="M285.411 318.076C282.435 334.005 271.983 366.263 261.169 397.472C245.148 380.208 232.216 362.791 230.461 350.201C227.295 327.538 242.153 305.581 253.444 292.57C257.583 289.251 262.046 286.199 266.872 283.471C269.828 289.022 276.675 301.88 285.411 318.076Z" fill="#73325A"/>
<path d="M414.707 460.501L379.784 482.916L369.657 481.39L360.33 487.304L363.343 493.484L347.99 503.347C327.639 484.824 330.519 460.73 330.519 460.73L354.284 466.968L360.521 446.537C360.521 446.537 381.863 452.775 397.618 452.241C413.41 451.707 414.707 460.501 414.707 460.501Z" fill="white" stroke="#FF7235" stroke-width="6" stroke-miterlimit="10"/>
<path d="M375.016 449.265C375.016 449.265 373.547 433.737 369.866 434.709C366.185 435.701 370.8 451.192 374.939 449.494C379.078 447.796 383.217 436.789 383.217 436.789" stroke="#FF7235" stroke-width="6" stroke-miterlimit="10"/>
<path d="M334.161 482.897L357.564 483.259L369.18 476.315L380.204 478.09L413.257 457.449" stroke="#FF7235" stroke-width="6" stroke-miterlimit="10"/>
<path d="M370.172 448.388L367.997 458.517" stroke="#FF7235" stroke-width="6" stroke-miterlimit="10"/>
<path d="M374.901 449.532L372.727 459.662" stroke="#FF7235" stroke-width="6" stroke-miterlimit="10"/>
<path d="M379.841 450.352L377.667 460.482" stroke="#FF7235" stroke-width="6" stroke-miterlimit="10"/>
<path d="M257.24 272.712C257.24 272.712 271.221 279.236 271.221 303.158C271.221 326.279 217.854 467.865 217.854 467.865L201.432 481.791L184.762 463.534C192.907 455.789 169.523 315.767 257.24 272.712Z" fill="#A0505A"/>
<path d="M255.752 508.918L214.249 508.956L206.544 502.203L195.5 502.146L194.699 508.976L178.43 508.995C169.58 481.448 184.839 463.516 184.839 463.516L201.394 481.753L217.93 467.846C217.93 467.846 232.273 484.672 245.815 492.722C259.395 500.792 255.752 508.918 255.752 508.918Z" fill="white" stroke="#FF7235" stroke-width="6" stroke-miterlimit="10"/>
<path d="M227.391 477.651C227.391 477.651 243.679 467.14 239.044 463.115C234.41 459.09 225.083 476.564 227.62 477.957C230.156 479.349 247.723 474.065 247.723 474.065" stroke="#FF7235" stroke-width="6" stroke-miterlimit="10"/>
<path d="M176.237 484.634L195.71 496.919H209.233L217.797 504.111H256.077" stroke="#FF7235" stroke-width="6" stroke-miterlimit="10"/>
<path d="M223.767 473.684L216.443 481.009" stroke="#FF7235" stroke-width="6" stroke-miterlimit="10"/>
<path d="M227.124 477.213L219.8 484.538" stroke="#FF7235" stroke-width="6" stroke-miterlimit="10"/>
<path d="M230.824 480.57L223.5 487.895" stroke="#FF7235" stroke-width="6" stroke-miterlimit="10"/>
<path d="M257.24 272.712C224.263 288.889 206.983 318.801 197.847 350.22H97.7702C72.155 350.22 53.0629 326.584 58.4606 301.537L65.8037 267.428H239.807C246.254 267.428 252.243 269.374 257.24 272.712Z" fill="#FF7235"/>
<path d="M182.932 305.409L218.961 305.333L213.62 314.089L182.932 305.409Z" fill="#A0505A"/>
<path d="M257.431 272.521C241.028 280.571 228.516 292.017 218.941 305.352H127.639C111.179 305.352 98.8955 290.224 102.252 274.105L103.645 267.428" stroke="white" stroke-width="6" stroke-miterlimit="10" stroke-linecap="round"/>
<path d="M197.98 350.201C201.623 337.668 206.544 325.363 213.239 314.089L182.932 305.39" stroke="white" stroke-width="6" stroke-miterlimit="10" stroke-linecap="round"/>
<path d="M42.4199 175.803L60.7491 247.722H26.5511C6.6388 247.722 -6.1783 226.566 3.05307 208.92L29.3167 158.692C36.7552 144.48 51.4606 135.571 67.501 135.571H73.6998C52.6431 135.552 37.213 155.392 42.4199 175.803Z" fill="#005BDC"/>
<path d="M253.483 157.146C264.259 157.146 273.223 155.715 275.397 153.712L241.962 226.203C235.916 239.328 222.775 247.721 208.337 247.721C204.102 247.721 199.944 246.996 196.015 245.604C192.086 244.211 188.386 242.17 185.086 239.499L164.011 222.483C164.011 222.483 161.913 234.826 146.94 237.973V267.389H65.7844L42.4199 175.784C37.2129 155.372 52.643 135.513 73.6997 135.513H130.518C135.535 135.513 140.475 136.143 145.243 137.364C158.289 140.683 170 148.352 178.277 159.34L206.048 196.196L230.995 152.587C230.995 152.625 230.976 152.682 230.976 152.72C230.995 155.257 241.085 157.146 253.483 157.146Z" fill="#005BDC"/>
<path d="M42.2292 175.803L60.177 248.294" stroke="white" stroke-width="6" stroke-miterlimit="10" stroke-linecap="round"/>
<path d="M164.201 223.456L148.256 206.478" stroke="white" stroke-width="6" stroke-miterlimit="10" stroke-linecap="round"/>
<path d="M275.893 152.644L275.398 153.712C273.223 155.734 264.259 157.146 253.483 157.146C241.085 157.146 230.995 155.258 230.995 152.758C230.995 152.72 230.995 152.663 231.014 152.625C231.358 150.183 241.314 148.085 253.502 148.085C265.67 148.085 275.55 150.183 275.893 152.644C275.893 152.625 275.893 152.625 275.893 152.644Z" fill="#FF7235"/>
<path d="M285.888 116.017C285.888 117.105 285.621 118.173 285.125 119.108C284.629 120.042 283.904 120.863 283.008 121.492L282.569 121.797L279.155 140.016C278.602 142.972 276.847 145.586 274.311 147.207L269.638 150.183L265.938 152.549L264.221 156.65C261.036 156.975 257.393 157.165 253.502 157.165C249.573 157.165 245.873 156.975 242.649 156.631V128.379C242.649 127.158 242.916 125.956 243.431 124.85L249.649 111.458C249.649 111.458 256.439 113.137 253.311 121.473C250.469 129.047 256.954 127.101 260.597 125.746C263.859 124.525 278.106 117.276 283.676 114.625C284.706 114.129 285.888 114.892 285.888 116.017Z" fill="#A0505A"/>
<path d="M279.937 133.091C279.384 136.048 277.629 138.642 275.092 140.264L266.719 145.605" stroke="#73325A" stroke-width="5" stroke-miterlimit="10" stroke-linecap="round"/>
<path d="M281.31 125.365C280.757 128.322 279.002 130.916 276.466 132.538L268.093 137.879" stroke="#73325A" stroke-width="5" stroke-miterlimit="10" stroke-linecap="round"/>
<path d="M281.959 122.007L268.493 130.554" stroke="#73325A" stroke-width="5" stroke-miterlimit="10" stroke-linecap="round"/>
<path d="M270.362 149.707L269.618 150.184L265.918 152.549L264.202 156.65C261.016 156.975 257.373 157.166 253.483 157.166C249.553 157.166 245.853 156.975 242.63 156.631V148.696C245.853 148.314 249.553 148.104 253.483 148.104C260.215 148.085 266.242 148.715 270.362 149.707Z" fill="#73325A"/>
<path d="M143.469 136.925C140.703 140.645 130.404 149.401 95.7292 149.401C51.1173 149.401 79.6696 135.59 79.6696 135.59L98.5901 103.98L118.884 116.437V126.452C118.884 131.507 122.985 135.59 128.02 135.59H129.336C134.066 135.571 138.949 135.78 143.469 136.925Z" fill="#A0505A"/>
<path d="M118.865 116.418V118.974L79.6505 135.57L98.571 103.961L118.865 116.418Z" fill="#73325A"/>
<path d="M119.933 117.657H124.244C128.211 117.657 131.434 114.434 131.434 110.466V86.4482H105.705V103.426C105.705 111.286 112.075 117.657 119.933 117.657Z" fill="#A0505A"/>
<path d="M130.881 109.073C128.115 109.073 127.009 107.165 127.009 107.165" stroke="#73325A" stroke-width="5" stroke-miterlimit="10" stroke-linecap="round"/>
<path d="M128.382 101.385C128.888 101.385 129.298 100.591 129.298 99.6108C129.298 98.631 128.888 97.8367 128.382 97.8367C127.877 97.8367 127.467 98.631 127.467 99.6108C127.467 100.591 127.877 101.385 128.382 101.385Z" fill="#73325A"/>
<path d="M110.606 88.9473C110.606 88.9473 131.834 101.767 138.739 90.607C144.804 80.8207 117.93 75.7845 108.546 75.7463C98.3421 75.7082 84.8193 80.2293 85.0481 95.2426C85.2389 107.604 85.7538 125.689 78.4298 122.541C52.3759 111.362 29.2213 123.037 29.145 145.28C29.0687 167.524 54.8745 169.603 55.523 163.861C56.1906 158.138 39.5016 159.454 41.7523 174.315C43.9838 189.175 53.94 207.756 76.6751 207.756C104.14 207.775 121.63 171.606 104.636 167.924C91.6093 165.101 117.911 190.244 125.712 164.109C134.104 135.971 103.778 126.757 103.034 109.76C102.29 92.7626 110.606 88.9473 110.606 88.9473Z" fill="#FFCF2D" stroke="white" stroke-width="5" stroke-miterlimit="10"/>
<path d="M109.118 99.1533H124.301" stroke="#FF7235" stroke-width="6" stroke-miterlimit="10"/>
<path d="M128.974 105.258C131.354 105.258 133.284 102.781 133.284 99.7256C133.284 96.6702 131.354 94.1934 128.974 94.1934C126.593 94.1934 124.663 96.6702 124.663 99.7256C124.663 102.781 126.593 105.258 128.974 105.258Z" stroke="#FF7235" stroke-width="6" stroke-miterlimit="10"/>
<path d="M101.07 92.3426V76.2802C101.07 73.8765 103.015 71.9116 105.437 71.9116H110.206C112.609 71.9116 114.573 73.8574 114.573 76.2802" stroke="#66B0F0" stroke-width="6" stroke-miterlimit="10"/>
<path d="M105.666 110.027H96.492C94.146 110.027 92.2386 108.119 92.2386 105.773V96.5969C92.2386 94.2504 94.146 92.3428 96.492 92.3428H105.666C108.012 92.3428 109.919 94.2504 109.919 96.5969V105.773C109.9 108.119 108.012 110.027 105.666 110.027Z" fill="white" stroke="#66B0F0" stroke-width="6" stroke-miterlimit="10"/>
<path d="M103.282 106.993H98.7998C96.8735 106.993 95.2904 105.429 95.2904 103.483V99.0001C95.2904 97.0733 96.8544 95.49 98.7998 95.49H103.282C105.208 95.49 106.792 97.0543 106.792 99.0001V103.483C106.792 105.429 105.227 106.993 103.282 106.993Z" fill="white" stroke="#66B0F0" stroke-width="6" stroke-miterlimit="10"/>
<path d="M105.056 95.948L97.0835 106.555" stroke="#66B0F0" stroke-width="6" stroke-miterlimit="10"/>
<path d="M102.424 95.5854L95.5192 104.742" stroke="#66B0F0" stroke-width="6" stroke-miterlimit="10"/>
<path d="M106.601 97.8364L99.6963 106.993" stroke="#66B0F0" stroke-width="6" stroke-miterlimit="10"/>
<path d="M106.792 101.251L102.462 106.993" stroke="#66B0F0" stroke-width="6" stroke-miterlimit="10"/>
<path d="M99.6201 95.5857L95.3096 101.29" stroke="#66B0F0" stroke-width="6" stroke-miterlimit="10"/>
<path d="M94.2798 361.074V371.585C94.2798 376.66 90.16 380.78 85.0866 380.78H61.5122" stroke="#66B0F0" stroke-width="6" stroke-miterlimit="10"/>
<path d="M103.072 361.188V457.62" stroke="#66B0F0" stroke-width="6" stroke-miterlimit="10"/>
<path d="M60.387 488.544C60.387 471.47 77.343 457.621 98.2471 457.621H107.746C128.65 457.621 145.606 471.47 145.606 488.544" stroke="#66B0F0" stroke-width="6" stroke-miterlimit="10"/>
<path d="M194.795 362.658H56.3244C49.3818 362.658 43.7743 357.03 43.7743 350.105H198.076L194.795 362.658Z" fill="#FFCF2D"/>
<path d="M59.5479 508.994C65.194 508.994 69.7711 504.416 69.7711 498.769C69.7711 493.121 65.194 488.543 59.5479 488.543C53.9018 488.543 49.3247 493.121 49.3247 498.769C49.3247 504.416 53.9018 508.994 59.5479 508.994Z" fill="#FFCF2D"/>
<path d="M54.3408 383.394H74.8634C76.5418 383.394 77.896 382.04 77.896 380.361V380.132C77.896 378.453 76.5418 377.099 74.8634 377.099H54.3408C52.6623 377.099 51.3081 378.453 51.3081 380.132V380.361C51.3081 382.04 52.6623 383.394 54.3408 383.394Z" fill="#FFCF2D"/>
<path d="M43.7743 350.487H142.02L109.157 258.385C106.868 251.995 100.822 247.721 94.0319 247.721H21.8021C14.6307 247.721 9.63349 254.818 12.0367 261.571L43.7743 350.487Z" stroke="#FFCF2D" stroke-width="6" stroke-miterlimit="10"/>
<path d="M48.638 350.487H134.047L102.291 261.438C100.078 255.257 94.2417 251.136 87.6806 251.136H14.5544" stroke="#FFCF2D" stroke-width="6" stroke-miterlimit="10"/>
<path d="M145.434 508.994C151.08 508.994 155.657 504.416 155.657 498.769C155.657 493.121 151.08 488.543 145.434 488.543C139.787 488.543 135.21 493.121 135.21 498.769C135.21 504.416 139.787 508.994 145.434 508.994Z" fill="#FFCF2D"/>
</svg>
