<svg width="490" height="356" viewBox="0 0 490 356" fill="none" xmlns="http://www.w3.org/2000/svg">
<path d="M176.321 90.5266H20.5785C13.5828 90.5266 7.91162 96.206 7.91162 103.212V259.18C7.91162 266.186 13.5828 271.865 20.5785 271.865H176.321C183.317 271.865 188.988 266.186 188.988 259.18V103.212C188.988 96.206 183.317 90.5266 176.321 90.5266Z" fill="#F5EBDD"/>
<path d="M155.164 85.1029C157.578 85.1029 159.535 83.1433 159.535 80.726C159.535 78.3087 157.578 76.3491 155.164 76.3491C152.75 76.3491 150.793 78.3087 150.793 80.726C150.793 83.1433 152.75 85.1029 155.164 85.1029Z" fill="#A15842"/>
<path d="M155.164 65.5107V79.2686" stroke="#A15842" stroke-width="4" stroke-miterlimit="10"/>
<path d="M173.998 70.0996H167.347V127.626H173.998V70.0996Z" fill="#A15842"/>
<path d="M190.469 22.6672C189.139 25.3012 183.559 34.4961 170.672 34.4961C157.785 34.4961 152.21 25.3012 150.875 22.6672L138.416 70.0995H202.933L190.469 22.6672Z" fill="#FFBE21"/>
<path d="M185.093 23.5886L193.471 70.1083" stroke="#F5EBDD" stroke-width="4" stroke-miterlimit="10" stroke-linecap="round"/>
<path d="M156.256 24.1941L147.986 70.1083" stroke="#F5EBDD" stroke-width="4" stroke-miterlimit="10" stroke-linecap="round"/>
<path d="M165.239 23.8955L162.035 70.0908" stroke="#F5EBDD" stroke-width="4" stroke-miterlimit="10" stroke-linecap="round"/>
<path d="M176.105 23.8955L179.319 70.1816" stroke="#F5EBDD" stroke-width="4" stroke-miterlimit="10" stroke-linecap="round"/>
<path d="M170.69 34.492C183.581 34.492 189.157 25.297 190.487 22.6631V22.5723H150.901L150.875 22.6631C152.21 25.3013 157.785 34.492 170.69 34.492Z" fill="#FF7235"/>
<path d="M423.998 1.72998H268.255C261.259 1.72998 255.588 7.40935 255.588 14.4152V170.383C255.588 177.389 261.259 183.069 268.255 183.069H423.998C430.993 183.069 436.664 177.389 436.664 170.383V14.4152C436.664 7.40935 430.993 1.72998 423.998 1.72998Z" fill="#F5EBDD"/>
<path d="M170.461 353.149C169.26 353.15 168.099 352.71 167.199 351.914C166.298 351.117 165.72 350.018 165.572 348.824L161.927 318.156H178.995L175.35 348.824C175.203 350.019 174.625 351.118 173.724 351.915C172.824 352.712 171.663 353.151 170.461 353.149Z" fill="#30242A"/>
<path d="M361.941 353.149C360.74 353.151 359.58 352.711 358.68 351.914C357.78 351.118 357.202 350.018 357.057 348.824L353.412 318.156H370.475L366.83 348.824C366.683 350.019 366.105 351.118 365.204 351.915C364.304 352.712 363.143 353.151 361.941 353.149Z" fill="#30242A"/>
<path d="M70.3176 191.407H146.937V318.562H35.3833V226.388C35.3844 217.11 39.0655 208.212 45.6169 201.652C52.1682 195.092 61.0532 191.407 70.3176 191.407Z" fill="#FFB7D5"/>
<path d="M156.066 127.626H420.046C429.311 127.626 438.196 131.312 444.748 137.873C451.299 144.434 454.98 153.333 454.98 162.611V318.549H121.141V162.607C121.141 153.328 124.821 144.43 131.373 137.869C137.924 131.308 146.81 127.622 156.075 127.622L156.066 127.626Z" fill="#FFB7D5"/>
<path d="M121.132 210.143V318.549" stroke="#A15842" stroke-width="4" stroke-miterlimit="10" stroke-linecap="round"/>
<path d="M156.066 242.265H420.046C429.311 242.265 438.196 245.951 444.748 252.512C451.299 259.073 454.98 267.971 454.98 277.25V318.554H121.141V277.25C121.141 267.973 124.82 259.075 131.37 252.515C137.919 245.954 146.803 242.267 156.066 242.265Z" fill="#FFB7D5"/>
<path d="M317.458 242.265H154.805C145.871 242.265 137.303 245.819 130.985 252.146C124.668 258.472 121.119 267.053 121.119 276V318.567" stroke="#A15842" stroke-width="4" stroke-miterlimit="10" stroke-linecap="round"/>
<path d="M342.589 242.797V318.549" stroke="#A15842" stroke-width="4" stroke-miterlimit="10"/>
<path d="M454.98 190.573H377.091" stroke="#A15842" stroke-width="4" stroke-miterlimit="10"/>
<path d="M97.8241 177.217C107.813 178.467 110.927 174.22 112.391 170.548C114.054 166.383 112.983 162.802 111.687 158.148C111.687 158.148 114.987 156.349 114.473 154.286C114.041 152.621 110.288 152.435 110.288 152.435C110.141 151.691 110.01 150.919 109.895 150.121C109.061 144.282 107.813 140.948 107.813 140.948C104.898 141.782 101.154 141.38 99.9057 140.948C98.2198 145.626 95.1757 149.692 91.1646 152.625C91.1646 152.625 82.0045 142.621 76.1785 150.125C71.4279 156.245 78.2601 163.879 82.838 164.713C80.1172 170.461 72.7969 173.796 68.9878 175.188C69.221 176.996 69.4413 178.674 69.6356 180.136H98.1394L97.8241 177.217Z" fill="#EAA58B"/>
<path d="M196.961 213.512C198.465 208.155 199.693 202.725 200.64 197.242L190.651 170.146C190.651 170.146 194.814 158.901 191.083 157.222C187.351 155.544 178.995 166.404 175.665 175.15C174.227 178.93 170.297 187.619 166.302 196.264L196.961 213.512Z" fill="#EAA58B"/>
<path d="M155.682 218.918C155.682 218.918 131.54 198.491 121.089 190.983C110.637 183.475 98.6571 184.738 98.6571 184.738L98.1346 180.149H69.6308C70.0627 183.406 70.3434 185.568 70.3434 185.568L49.1211 261.442L112.386 256.438L110.724 233.083C110.724 233.083 144.842 261.628 164.423 258.929C182.082 256.481 192.115 230.946 196.956 213.517L166.293 196.268C161.054 207.626 155.682 218.918 155.682 218.918Z" fill="#3EC1F3"/>
<path d="M82.8378 164.726C78.26 163.892 71.4234 156.258 76.1783 150.138C82.0043 142.634 91.1644 152.638 91.1644 152.638C95.1755 149.705 98.2196 145.639 99.9055 140.961C101.154 141.393 104.898 141.795 107.813 140.961C107.813 140.961 114.058 138.876 113.639 133.876C113.082 127.164 102.816 130.122 102.816 130.122C102.816 130.122 91.5876 121.783 79.4951 127.203C66.608 133.011 65.3556 144.719 66.1761 152.638C66.6512 157.184 67.9511 167.343 68.9747 175.202C72.7968 173.805 80.117 170.474 82.8378 164.726Z" fill="#30242A"/>
<path d="M198.615 202.453C196.71 203.24 195.039 203.47 194.296 203.042C192.43 201.978 192.137 199.75 194.352 196.619C194.352 196.619 189.088 198.673 187.464 196C185.84 193.328 188.28 190.867 188.28 190.867C188.28 190.867 184.553 191.896 183.642 188.574C182.73 185.253 185.801 183.514 185.801 183.514C185.801 183.514 183.702 182.731 183.642 180.539C183.56 177.351 188.746 174.765 190.241 174.086" stroke="#A15842" stroke-width="8" stroke-miterlimit="10" stroke-linecap="round"/>
<path d="M111.644 232.992L110.102 214.961" stroke="#4756DF" stroke-width="4" stroke-miterlimit="10" stroke-linecap="round"/>
<path d="M97.431 177.987C95.0157 177.44 92.6895 176.555 90.521 175.357" stroke="#A15842" stroke-width="4" stroke-miterlimit="10" stroke-linecap="round"/>
<path d="M51.8247 255.811L62.5525 227.244" stroke="#004BDC" stroke-width="4" stroke-miterlimit="10" stroke-linecap="round"/>
<path d="M108.292 162.421C107.606 162.853 105.023 163.182 103.974 161.197" stroke="#A15842" stroke-width="4" stroke-miterlimit="10" stroke-linecap="round"/>
<path d="M104.483 153.053C105.173 153.053 105.732 152.493 105.732 151.803C105.732 151.113 105.173 150.553 104.483 150.553C103.794 150.553 103.235 151.113 103.235 151.803C103.235 152.493 103.794 153.053 104.483 153.053Z" fill="#A15842"/>
<path d="M81.5898 155.557L86.1677 158.057" stroke="#A15842" stroke-width="4" stroke-miterlimit="10" stroke-linecap="round"/>
<path d="M198.373 336.178L230.258 326.728C227.827 318.311 223.176 302.356 220.183 293.062L180.394 309.696C185.601 319.034 191.617 327.895 198.373 336.178Z" fill="#EAA58B"/>
<path d="M198.977 336.891C198.044 340.439 197.466 344.072 197.25 347.734H253.657C252.575 345.126 250.654 342.956 248.198 341.567L231.86 332.303C231.86 332.303 231.239 330.14 230.258 326.723L198.373 336.178C198.762 336.645 198.977 336.891 198.977 336.891Z" fill="#FFBE21"/>
<path d="M197.311 353.149H254.75L254.573 351.367C254.449 350.117 254.139 348.893 253.653 347.734H197.246C197.122 349.538 197.144 351.349 197.311 353.149Z" fill="#FF7235"/>
<path d="M169.005 283.119C171.761 292.634 175.98 301.764 180.394 309.696L220.183 293.062C219.751 291.665 219.319 290.419 218.956 289.368C206.505 253.337 198.978 224.359 180.662 221.423C151.834 216.829 102.795 266.55 95.4312 274.188L106.038 280.627L139.387 296.314L151.536 299.121L169.005 283.119Z" fill="#A15842"/>
<path d="M168.098 282.747C167.154 278.136 166.691 273.44 166.716 268.734" stroke="#30242A" stroke-width="4" stroke-miterlimit="10" stroke-linecap="round"/>
<path d="M322.606 184.318C322.606 184.318 282.714 194.858 265.166 204.745C245.184 215.99 243.935 231.007 231.45 268.941C227.429 281.151 224.587 290.96 221.949 298.667L256.343 314.929L256.408 314.799C256.408 314.799 273.251 312.321 274.724 291.444C275.834 275.874 276.365 264.322 281.798 252.675L374.625 184.31L322.606 184.318Z" fill="#30242A"/>
<path d="M203.404 321.568C191.377 323.393 186.358 325.737 184.402 331.2L207.123 341.792C207.123 341.792 219.306 338.332 225.866 340.023V340.044C230.261 341.077 234.55 342.514 238.68 344.339C245.449 335.086 251.375 325.243 256.387 314.929L221.992 298.667C217.06 313.091 212.949 320.119 203.404 321.568Z" fill="#005BDC"/>
<path d="M220.395 347.985L231.476 353.149C234.036 350.353 236.433 347.411 238.654 344.339C234.525 342.514 230.235 341.077 225.84 340.044L220.395 347.985Z" fill="#30242A"/>
<path d="M214.707 312.581L222.42 315.958" stroke="#F5EBDD" stroke-width="4" stroke-miterlimit="10" stroke-linecap="round"/>
<path d="M210.323 317.939L218.036 321.322" stroke="#F5EBDD" stroke-width="4" stroke-miterlimit="10" stroke-linecap="round"/>
<path d="M362.982 91.5646C365.396 91.5646 367.353 89.605 367.353 87.1877C367.353 84.7704 365.396 82.8108 362.982 82.8108C360.568 82.8108 358.611 84.7704 358.611 87.1877C358.611 89.605 360.568 91.5646 362.982 91.5646Z" fill="#FFBE21"/>
<path d="M378.387 59.6764C388.042 59.6764 395.869 51.838 395.869 42.1688C395.869 32.4996 388.042 24.6611 378.387 24.6611C368.732 24.6611 360.905 32.4996 360.905 42.1688C360.905 51.838 368.732 59.6764 378.387 59.6764Z" fill="#30242A"/>
<path d="M366.329 53.8419C367.4 54.335 358.422 32.9954 353.844 36.33C349.516 39.4699 360.901 51.3594 366.329 53.8419Z" fill="#3EC1F3"/>
<path d="M366.808 55.1438C367.789 56.3158 390.687 48.293 387.539 43.6609C384.468 39.2105 365.832 53.9544 366.808 55.1438Z" fill="#3EC1F3"/>
<path d="M409.607 138.88L411.611 138.569V137.98C410.963 138.323 410.293 138.623 409.607 138.88Z" fill="#30242A"/>
<path d="M355.075 134.296C374.561 134.65 384.395 114.781 386.891 108.852C386.027 108.692 385.163 108.553 384.213 108.449C372.984 107.199 370.894 106.784 367.145 101.78C363.397 96.7762 362.982 86.7724 362.982 86.7724C362.982 86.7724 372.691 84.6099 371.309 76.7687C370.061 69.68 361.734 69.68 357.156 74.6841C357.156 74.6841 350.078 73.0146 343.418 65.5107C343.418 65.5107 338.547 66.6569 335.213 66.0989C334.349 71.5571 334.401 77.664 333.416 82.6031C331.749 90.9417 332.984 96.361 337.994 99.2803C343.004 102.2 348.817 100.111 348.817 100.111L347.569 107.615C347.569 107.615 340.3 108.458 334.241 110.365C335.446 119.785 339.778 134.019 355.075 134.296Z" fill="#A15842"/>
<path d="M382.131 184.319L384.399 182.779L380.469 184.319H382.131Z" fill="#A15842"/>
<path d="M292.219 135.965C292.219 135.965 270.397 106.123 265.162 100.111C259.332 93.4417 251.424 86.3574 248.928 88.8659C246.432 91.3744 253.506 99.7043 253.506 99.7043L252.258 126.8C252.258 126.8 266.596 165.522 282.23 170.574C290.047 173.1 304.895 166.439 315.385 160.799L299.159 131.389C295.035 134.097 292.219 135.965 292.219 135.965Z" fill="#A15842"/>
<path d="M409.607 138.88C409.607 138.88 407.94 129.711 405.859 124.707C402.745 117.216 397.606 110.867 386.891 108.852C384.395 114.781 374.561 134.65 355.075 134.296C339.778 134.019 335.446 119.785 334.254 110.365C332.978 110.756 331.728 111.23 330.514 111.784C326.122 113.838 308.955 124.971 299.16 131.389L315.368 160.782C322.187 157.119 327.167 153.862 327.167 153.862L322.589 184.293H380.46L384.39 182.753L411.598 164.268C411.563 155.768 410.898 147.282 409.607 138.88Z" fill="#FF7235"/>
<path d="M421.678 117.623C418.694 103.433 403.362 103.865 403.362 103.865C404.106 100.469 404.002 96.9424 403.057 93.597C402.113 90.2516 400.359 87.1914 397.951 84.688C389.624 75.9342 377.968 79.684 377.968 79.684C378.4 74.6843 379.216 61.7612 368.393 53.8421C357.57 45.923 343.837 50.088 338.84 56.3419C336.806 58.8894 335.817 62.3407 335.225 66.0991C338.546 66.6571 343.431 65.5109 343.431 65.5109C350.09 73.0148 357.169 74.6843 357.169 74.6843C361.747 69.6802 370.073 69.6802 371.321 76.7689C372.703 84.6101 362.995 86.7727 362.995 86.7727C362.995 86.7727 363.427 96.7764 367.158 101.78C370.889 106.784 372.988 107.2 384.226 108.45C385.158 108.553 386.048 108.692 386.903 108.852C397.618 110.863 402.757 117.216 405.871 124.707C407.953 129.711 409.62 138.88 409.62 138.88C410.299 138.623 410.961 138.322 411.602 137.981C415.636 135.879 424.252 129.863 421.678 117.623Z" fill="#30242A"/>
<path d="M362.153 79.6839L365.483 77.6035" stroke="#30242A" stroke-width="4" stroke-miterlimit="10" stroke-linecap="round"/>
<path d="M340.849 89.4713C341.54 89.9038 344.118 90.2325 345.167 88.2473" stroke="#30242A" stroke-width="4" stroke-miterlimit="10" stroke-linecap="round"/>
<path d="M347.638 80.0904C348.327 80.0904 348.886 79.5308 348.886 78.8405C348.886 78.1502 348.327 77.5906 347.638 77.5906C346.948 77.5906 346.39 78.1502 346.39 78.8405C346.39 79.5308 346.948 80.0904 347.638 80.0904Z" fill="#30242A"/>
<path d="M338.006 78.4339C338.696 78.4339 339.254 77.8743 339.254 77.184C339.254 76.4937 338.696 75.9341 338.006 75.9341C337.317 75.9341 336.758 76.4937 336.758 77.184C336.758 77.8743 337.317 78.4339 338.006 78.4339Z" fill="#30242A"/>
<path d="M341.337 80.5186C341.337 80.5186 340.201 83.3687 340.473 83.9396C340.67 84.3062 340.97 84.607 341.337 84.8046" stroke="#30242A" stroke-width="4" stroke-miterlimit="10" stroke-linecap="round"/>
<path d="M256.201 132.427C256.878 132.421 257.536 132.2 258.079 131.796C259.552 130.321 259.254 128.163 256.378 125.81C256.378 125.81 261.828 126.376 262.657 123.457C263.486 120.538 260.58 118.873 260.58 118.873C260.58 118.873 264.324 118.873 264.324 115.538C264.324 112.203 260.994 111.369 260.994 111.369C260.994 111.369 262.757 110.093 262.243 108.034C261.409 104.7 254.335 103.865 254.335 103.865L253.359 102.671" stroke="#30242A" stroke-width="8" stroke-linecap="round" stroke-linejoin="round"/>
<path d="M349.054 100.924C350.81 100.225 352.523 99.4236 354.185 98.5234" stroke="#30242A" stroke-width="4" stroke-miterlimit="10" stroke-linecap="round"/>
<path d="M293.256 135.87L297.631 141.799" stroke="#30242A" stroke-width="4" stroke-miterlimit="10" stroke-linecap="round"/>
<path d="M328.591 140.126L326.467 153.481" stroke="#A15842" stroke-width="4" stroke-miterlimit="10" stroke-linecap="round"/>
<path d="M380.05 167.226L379.842 145.761" stroke="#A15842" stroke-width="4" stroke-miterlimit="10" stroke-linecap="round"/>
<path d="M403.993 104.449C403.392 106.7 402.586 108.892 401.587 110.997" stroke="black" stroke-width="4" stroke-linecap="round" stroke-linejoin="round"/>
<path d="M378.732 80.1638L377.553 86.3572" stroke="black" stroke-width="4" stroke-linecap="round" stroke-linejoin="round"/>
<path d="M353.412 184.738C353.412 184.738 317.609 195.983 297.631 205.58C277.764 215.095 280.148 237.261 283.893 276.03C285.219 289.736 286.769 300.466 287.555 308.965H325.56C327.512 307.875 339.034 300.466 332.163 280.199C327.145 265.404 322.813 255.603 322.813 242.749H354.599C363.641 242.75 372.327 239.22 378.811 232.909C385.296 226.599 389.068 218.005 389.326 208.954L390.022 184.734L353.412 184.738Z" fill="#30242A"/>
<path d="M280.308 336.377C270.185 343.133 266.631 347.38 267.158 353.162L292.207 353.128C292.207 353.128 301.781 344.828 308.441 343.578C312.854 342.738 317.337 342.32 321.829 342.328C323.353 334.85 324.995 323.627 325.284 309.121L325.56 308.978H287.555C288.881 323.242 288.039 331.208 280.308 336.377Z" fill="#005BDC"/>
<path d="M306.873 353.089H319.099C319.099 353.089 320.43 349.365 321.863 342.332C317.371 342.324 312.888 342.743 308.475 343.582L306.873 353.089Z" fill="#30242A"/>
<path d="M322.429 243.515H312.617" stroke="black" stroke-width="4" stroke-linecap="round" stroke-linejoin="round"/>
<path d="M286.791 325.43H296.175" stroke="#F5EBDD" stroke-width="4" stroke-miterlimit="10" stroke-linecap="round"/>
<path d="M284.705 332.099H294.089" stroke="#F5EBDD" stroke-width="4" stroke-miterlimit="10" stroke-linecap="round"/>
<path d="M157.975 259.353C168.205 259.353 176.498 251.048 176.498 240.803C176.498 230.558 168.205 222.253 157.975 222.253C147.745 222.253 139.452 230.558 139.452 240.803C139.452 251.048 147.745 259.353 157.975 259.353Z" fill="white"/>
<path d="M163.18 235.176C163.18 232.298 160.85 229.965 157.976 229.965C155.101 229.965 152.771 232.298 152.771 235.176V241.426C152.771 244.304 155.101 246.637 157.976 246.637C160.85 246.637 163.18 244.304 163.18 241.426V235.176Z" fill="#004BDC"/>
<path d="M157.976 244.972V250.811" stroke="#004BDC" stroke-width="4" stroke-miterlimit="10" stroke-linecap="round"/>
<path d="M154.991 250.811H160.955" stroke="#004BDC" stroke-width="4" stroke-miterlimit="10" stroke-linecap="round"/>
<path d="M27.2638 116.784C31.0562 116.784 34.1306 113.705 34.1306 109.907C34.1306 106.109 31.0562 103.03 27.2638 103.03C23.4713 103.03 20.397 106.109 20.397 109.907C20.397 113.705 23.4713 116.784 27.2638 116.784Z" fill="white"/>
<path d="M48.0802 116.784C51.8726 116.784 54.947 113.705 54.947 109.907C54.947 106.109 51.8726 103.03 48.0802 103.03C44.2878 103.03 41.2134 106.109 41.2134 109.907C41.2134 113.705 44.2878 116.784 48.0802 116.784Z" fill="white"/>
<path d="M68.8922 116.784C72.6846 116.784 75.759 113.705 75.759 109.907C75.759 106.109 72.6846 103.03 68.8922 103.03C65.0998 103.03 62.0254 106.109 62.0254 109.907C62.0254 113.705 65.0998 116.784 68.8922 116.784Z" fill="white"/>
<path d="M176.304 90.5266C179.663 90.5266 182.884 91.8627 185.258 94.2408C187.633 96.6189 188.967 99.8443 188.967 103.208V259.18C188.967 262.543 187.633 265.769 185.258 268.147C182.884 270.525 179.663 271.861 176.304 271.861H20.5746C17.2163 271.861 13.9955 270.525 11.6209 268.147C9.24616 265.769 7.91207 262.543 7.91207 259.18V103.208C7.91207 99.8443 9.24616 96.6189 11.6209 94.2408C13.9955 91.8627 17.2163 90.5266 20.5746 90.5266H176.304ZM176.304 88.7966H20.5746C16.7596 88.8012 13.1021 90.321 10.4044 93.0225C7.70671 95.7241 6.18914 99.3869 6.18457 103.208V259.18C6.18914 263.001 7.70671 266.663 10.4044 269.365C13.1021 272.067 16.7596 273.586 20.5746 273.591H176.304C180.12 273.586 183.777 272.067 186.475 269.365C189.172 266.663 190.69 263.001 190.695 259.18V103.208C190.69 99.3869 189.172 95.7241 186.475 93.0225C183.777 90.321 180.12 88.8012 176.304 88.7966Z" fill="#F5EBDD"/>
<path d="M378.353 191.407H454.98V318.562H343.44V226.388C343.441 217.114 347.119 208.219 353.666 201.66C360.213 195.101 369.092 191.413 378.353 191.407Z" fill="#FFB7D5"/>
<path d="M435.831 318.618C436.854 315.676 438.766 313.125 441.302 311.321C443.838 309.516 446.872 308.546 449.983 308.546C453.095 308.546 456.129 309.516 458.665 311.321C461.201 313.125 463.113 315.676 464.136 318.618C465.114 315.81 466.903 313.356 469.276 311.567C471.649 309.779 474.498 308.736 477.464 308.571C476.139 306.206 474.562 303.991 472.76 301.967L467.319 295.864C465.624 293.961 464.556 291.581 464.26 289.049C463.963 286.516 464.452 283.953 465.66 281.709L470.281 273.111C468.986 274.408 461.489 281.449 450.109 281.449C438.729 281.449 431.236 274.421 429.94 273.111L434.566 281.709C435.772 283.954 436.259 286.517 435.96 289.05C435.662 291.582 434.593 293.961 432.898 295.864L427.457 301.967C425.651 303.995 424.071 306.214 422.745 308.584C425.667 308.793 428.463 309.855 430.789 311.638C433.115 313.421 434.868 315.848 435.831 318.618Z" fill="#005BDC"/>
<path d="M478.288 327.294C475.177 327.296 472.143 328.267 469.607 330.072C467.071 331.878 465.159 334.429 464.135 337.371C463.114 334.427 461.203 331.874 458.667 330.068C456.13 328.261 453.095 327.29 449.983 327.29C446.871 327.29 443.835 328.261 441.299 330.068C438.763 331.874 436.852 334.427 435.83 337.371C434.594 333.814 432.067 330.851 428.751 329.073C425.434 327.294 421.572 326.829 417.929 327.77C418.143 337.286 421.977 346.361 428.648 353.14H471.525C478.183 346.375 482.015 337.322 482.24 327.826C480.952 327.474 479.623 327.296 478.288 327.294Z" fill="#004BDC"/>
<path d="M450.087 281.449C461.467 281.449 468.96 274.421 470.26 273.111H429.918C431.214 274.421 438.711 281.449 450.087 281.449Z" fill="#30242A"/>
<path d="M435.831 337.38C436.852 334.436 438.763 331.883 441.3 330.076C443.836 328.27 446.871 327.299 449.983 327.299C453.096 327.299 456.131 328.27 458.667 330.076C461.203 331.883 463.115 334.436 464.136 337.38C465.383 333.787 467.947 330.803 471.308 329.031C474.669 327.259 478.576 326.831 482.24 327.835C482.412 321.1 480.762 314.443 477.464 308.571C474.498 308.736 471.649 309.779 469.276 311.567C466.903 313.356 465.114 315.81 464.136 318.618C463.113 315.676 461.201 313.125 458.665 311.32C456.129 309.516 453.095 308.546 449.983 308.546C446.872 308.546 443.838 309.516 441.302 311.32C438.766 313.125 436.854 315.676 435.831 318.618C434.865 315.842 433.105 313.41 430.771 311.627C428.437 309.843 425.631 308.785 422.702 308.584C419.427 314.44 417.787 321.07 417.951 327.779C421.594 326.838 425.456 327.303 428.773 329.081C432.089 330.86 434.616 333.822 435.852 337.38H435.831Z" fill="#3EC1F3"/>
<path d="M453.076 280.269C453.896 275.226 457.641 255.218 467.051 244.371" stroke="#30242A" stroke-width="4" stroke-miterlimit="10" stroke-linecap="round"/>
<path d="M448.727 280.411C448.666 274.685 448.079 246.547 442.49 229.757" stroke="#30242A" stroke-width="4" stroke-miterlimit="10" stroke-linecap="round"/>
<path d="M473.483 260.7C481.735 257.063 487.763 252.609 486.947 250.751C486.13 248.892 478.778 250.333 470.526 253.97C462.273 257.606 456.245 262.061 457.062 263.919C457.878 265.777 465.23 264.336 473.483 260.7Z" fill="#30242A"/>
<path d="M473.477 209.575C476.443 205.56 477.712 201.464 476.312 200.427C474.912 199.39 471.373 201.805 468.407 205.82C465.441 209.836 464.172 213.932 465.572 214.969C466.972 216.006 470.511 213.591 473.477 209.575Z" fill="#30242A"/>
<path d="M428.815 263.603C439.572 261.974 448.059 259.11 447.771 257.206C447.484 255.303 438.531 255.08 427.774 256.709C417.018 258.338 408.531 261.202 408.818 263.106C409.106 265.009 418.059 265.232 428.815 263.603Z" fill="#30242A"/>
<path d="M421.299 235.479V235.509C422.886 236.4 424.083 237.854 424.654 239.584C425.225 241.314 425.128 243.196 424.382 244.858C423.637 246.521 422.297 247.843 420.626 248.566C418.955 249.288 417.075 249.358 415.356 248.761V248.791C424.373 252.848 433.02 253.155 434.669 249.479C436.319 245.803 430.316 239.536 421.299 235.479Z" fill="#FF7235"/>
<path d="M447.954 206.073C446.032 205.576 443.536 208.482 441.713 212.993C439.519 207.531 436.336 203.876 434.194 204.585C432.052 205.295 431.663 210.126 433.149 215.83C429.012 213.305 425.276 212.457 424.032 214.001C422.443 215.973 425.505 221.085 430.873 225.423C432.4 226.671 434.045 227.767 435.783 228.697C436.079 227.52 436.664 226.436 437.485 225.542C438.306 224.649 439.337 223.975 440.483 223.582C441.63 223.189 442.857 223.089 444.052 223.291C445.247 223.493 446.373 223.991 447.327 224.74C448.132 223.007 448.776 221.203 449.249 219.351C450.977 212.647 450.402 206.709 447.954 206.073Z" fill="#FF7235"/>
<path d="M489.802 236.422C489.21 234.527 485.427 233.944 480.65 234.77C484.105 230.012 485.539 225.38 483.803 223.931C482.067 222.482 477.757 224.714 473.723 228.987C473.676 224.134 472.428 220.514 470.454 220.272C467.945 219.965 465.228 225.272 464.408 232.127C464.159 234.085 464.1 236.062 464.231 238.031C465.385 237.66 466.613 237.584 467.804 237.809C468.995 238.034 470.111 238.554 471.051 239.321C471.991 240.088 472.724 241.078 473.185 242.201C473.645 243.324 473.818 244.544 473.689 245.751C475.583 245.519 477.453 245.112 479.273 244.536C485.833 242.473 490.558 238.84 489.802 236.422Z" fill="#FF7235"/>
<path d="M471.089 239.371C470.148 238.586 469.023 238.051 467.821 237.816C466.618 237.582 465.376 237.656 464.209 238.031C464.442 241.292 465.267 243.787 466.507 244.717C467.66 245.79 470.337 246.144 473.667 245.751C473.796 244.557 473.628 243.35 473.178 242.237C472.728 241.124 472.01 240.139 471.089 239.371Z" fill="#30242A"/>
<path d="M440.56 223.542C439.396 223.926 438.348 224.599 437.513 225.498C436.679 226.398 436.085 227.494 435.788 228.684C438.673 230.211 441.225 230.847 442.667 230.267C444.188 229.835 445.902 227.767 447.332 224.727C446.388 223.985 445.276 223.489 444.095 223.282C442.913 223.075 441.699 223.165 440.56 223.542Z" fill="#30242A"/>
<path d="M422.101 247.714C421.33 247.281 420.748 246.573 420.472 245.731C420.196 244.889 420.245 243.974 420.609 243.167C420.974 242.359 421.627 241.718 422.441 241.369C423.254 241.02 424.168 240.99 425.003 241.283C424.907 240.087 424.517 238.934 423.868 237.925C423.22 236.916 422.332 236.083 421.285 235.5L415.342 248.752C416.467 249.148 417.673 249.261 418.851 249.08C420.03 248.898 421.146 248.43 422.101 247.714Z" fill="#F5EBDD"/>
<path d="M420.585 243.173C420.222 243.984 420.176 244.901 420.457 245.744C420.738 246.587 421.325 247.293 422.101 247.723C423.09 246.986 423.875 246.009 424.383 244.883C424.891 243.758 425.104 242.522 425.003 241.292C424.166 240.991 423.246 241.018 422.427 241.367C421.608 241.716 420.95 242.361 420.585 243.173Z" fill="#4856DF"/>
<path d="M274.944 27.9916C278.737 27.9916 281.811 24.9127 281.811 21.1148C281.811 17.3169 278.737 14.238 274.944 14.238C271.152 14.238 268.078 17.3169 268.078 21.1148C268.078 24.9127 271.152 27.9916 274.944 27.9916Z" fill="white"/>
<path d="M295.756 27.9916C299.549 27.9916 302.623 24.9127 302.623 21.1148C302.623 17.3169 299.549 14.238 295.756 14.238C291.964 14.238 288.89 17.3169 288.89 21.1148C288.89 24.9127 291.964 27.9916 295.756 27.9916Z" fill="white"/>
<path d="M316.568 27.9916C320.361 27.9916 323.435 24.9127 323.435 21.1148C323.435 17.3169 320.361 14.238 316.568 14.238C312.776 14.238 309.702 17.3169 309.702 21.1148C309.702 24.9127 312.776 27.9916 316.568 27.9916Z" fill="white"/>
<path d="M423.997 1.73C427.357 1.73 430.579 3.06648 432.954 5.44542C435.33 7.82436 436.664 11.0509 436.664 14.4152V170.388C436.663 173.751 435.328 176.977 432.953 179.355C430.577 181.733 427.356 183.069 423.997 183.069H268.255C264.896 183.069 261.675 181.733 259.299 179.355C256.924 176.977 255.589 173.751 255.588 170.388V14.4152C255.588 12.7494 255.915 11.0998 256.552 9.5608C257.189 8.02176 258.122 6.62335 259.298 5.44542C260.474 4.26749 261.871 3.3331 263.407 2.69561C264.944 2.05812 266.591 1.73 268.255 1.73H423.997ZM423.997 0H268.255C264.438 0.00457832 260.78 1.52479 258.081 4.22718C255.383 6.92956 253.865 10.5935 253.86 14.4152V170.388C253.865 174.209 255.383 177.873 258.082 180.574C260.78 183.276 264.439 184.795 268.255 184.799H423.997C427.813 184.795 431.472 183.276 434.17 180.574C436.869 177.873 438.387 174.209 438.392 170.388V14.4152C438.387 10.5935 436.869 6.92956 434.171 4.22718C431.472 1.52479 427.814 0.00457832 423.997 0Z" fill="#F5EBDD"/>
<path d="M253.92 99.6956C253.92 99.6956 244.765 99.6955 243.517 103.445C242.268 107.195 245.179 110.119 245.179 110.119C245.179 110.119 240.187 112.619 243.517 117.203C243.517 117.203 241.016 121.372 245.179 123.872C245.179 123.872 242.683 126.792 246.846 129.711C251.01 132.63 256.836 133.046 258.075 131.796C259.548 130.321 259.25 128.163 256.373 125.81C256.373 125.81 261.824 126.376 262.653 123.457C263.482 120.538 260.576 118.873 260.576 118.873C260.576 118.873 264.32 118.873 264.32 115.538C264.32 112.203 260.99 111.369 260.99 111.369C260.99 111.369 262.752 110.093 262.238 108.034C261.625 105.582 257.643 104.483 255.574 104.072C255.025 103.971 254.47 103.902 253.912 103.865L253.92 99.6956Z" fill="#A15842"/>
<path d="M245.659 124.223C249.795 125.475 254.053 126.277 258.36 126.614" stroke="#30242A" stroke-width="4" stroke-miterlimit="10" stroke-linecap="round"/>
<path d="M244.108 117.532C250.134 119.025 256.338 119.664 262.541 119.43" stroke="#30242A" stroke-width="4" stroke-miterlimit="10" stroke-linecap="round"/>
<path d="M245.426 110.612C251.137 111.986 257.043 112.363 262.882 111.728" stroke="#30242A" stroke-width="4" stroke-miterlimit="10" stroke-linecap="round"/>
<path d="M379.216 178.917C379.216 178.917 345.5 187.675 333.844 196.428C328.579 200.382 322.183 207.674 320.11 211.017C318.037 214.36 309.287 226.859 313.45 227.274C317.614 227.69 322.192 220.19 322.192 220.19C322.192 220.19 319.687 229.359 320.119 232.278C320.55 235.198 324.696 234.363 324.696 234.363C328.026 237.698 330.941 233.528 330.941 233.528C336.767 237.278 343.034 217.271 343.034 217.271C346.453 215.583 349.608 213.406 352.401 210.809C352.401 210.809 389.655 210.602 401.311 200.178C409.586 192.783 411.629 178.194 411.624 164.311H379.234L379.216 178.917Z" fill="#A15842"/>
<path d="M379.527 177.905L387.128 176.001" stroke="#30242A" stroke-width="4" stroke-miterlimit="10" stroke-linecap="round"/>
<path d="M320.55 223.494C322.71 216.142 324.437 211.817 325.733 209.14" stroke="#30242A" stroke-width="4" stroke-miterlimit="10" stroke-linecap="round"/>
<path d="M331.554 211.644C327.806 219.732 325.508 229.489 324.437 234.307" stroke="#30242A" stroke-width="4" stroke-miterlimit="10" stroke-linecap="round"/>
<path d="M337.393 214.559C334.945 220.181 332.721 228.641 331.347 233.874" stroke="#30242A" stroke-width="4" stroke-miterlimit="10" stroke-linecap="round"/>
<path d="M327.668 193.509C317.523 197.125 306.199 201.467 297.631 205.58C282.273 212.933 280.213 227.858 281.798 252.152" stroke="black" stroke-width="4" stroke-linecap="round" stroke-linejoin="round"/>
<path d="M83.6974 313.147C66.6685 316.607 54.5328 321.053 54.5328 321.053L38.1475 313.783L38.1821 313.424L0 348.149L0.833515 349.149C1.87575 350.4 3.17997 351.408 4.6539 352.099C6.12784 352.79 7.73546 353.149 9.36305 353.149H85.9993L83.6974 313.147Z" fill="#EAA58B"/>
<path d="M54.5154 321.053C54.5154 321.053 66.651 316.586 83.6799 313.147L85.9818 353.149H140.679C155.466 353.149 168.427 342.769 171.182 328.22C173.018 318.51 170.15 308.113 159.845 301.042C143.27 289.667 107.813 274.78 98.6573 271.861L48.2877 283.538C38.713 293.962 40.7947 311.05 40.7947 311.05L54.5154 321.053Z" fill="#A15842"/>
<path d="M83.8228 313.688C95.1465 311.495 107.796 309.597 125.503 310.423" stroke="#30242A" stroke-width="4" stroke-miterlimit="10" stroke-linecap="round"/>
<path d="M99.521 271.428C107.532 273.984 135.682 285.701 153.695 296.211" stroke="#30242A" stroke-width="4" stroke-miterlimit="10" stroke-linecap="round"/>
<path d="M46.3096 313.727L4.29248 351.912C5.86373 352.726 7.60687 353.15 9.37564 353.149H39.961L54.5152 321.053C52.2358 318.143 49.4572 315.662 46.3096 313.727Z" fill="#FFBE21"/>
<path d="M40.7949 311.045L0 348.15L0.833516 349.149C1.78768 350.293 2.96283 351.233 4.28852 351.912L46.31 313.727C44.5762 312.632 42.7265 311.732 40.7949 311.045Z" fill="#FF7235"/>
<path d="M31.4272 345.857V353.244" stroke="#30242A" stroke-width="4" stroke-miterlimit="10" stroke-linecap="round"/>
<path d="M24.7676 345.857V353.244" stroke="#30242A" stroke-width="4" stroke-miterlimit="10" stroke-linecap="round"/>
<path d="M70.5161 184.868C71.8117 184.747 74.5153 184.526 77.2188 184.526" stroke="#004BDC" stroke-width="4" stroke-miterlimit="10" stroke-linecap="round"/>
<path d="M190.651 170.145C190.651 170.145 198.77 167.451 201.016 170.842C203.262 174.233 201.18 177.935 201.18 177.935C201.18 177.935 206.833 179.055 204.773 184.53C204.773 184.53 208.397 187.99 204.942 191.623C204.942 191.623 208.224 193.842 204.877 197.886C201.53 201.93 195.851 203.941 194.266 203.041C192.4 201.977 192.106 199.75 194.322 196.619C194.322 196.619 189.057 198.673 187.433 196C185.81 193.327 188.25 190.867 188.25 190.867C188.25 190.867 184.523 191.896 183.611 188.574C182.7 185.253 185.771 183.514 185.771 183.514C185.771 183.514 183.672 182.731 183.611 180.538C183.529 177.351 189.113 174.574 190.608 173.9L190.651 170.145Z" fill="#EAA58B"/>
<path d="M184.51 184.098C187.714 183.536 195.855 181.797 201.245 178.043" stroke="#A15842" stroke-width="4" stroke-miterlimit="10" stroke-linecap="round"/>
<path d="M185.805 191.887C192.572 191.038 199.065 188.686 204.808 185.002" stroke="#A15842" stroke-width="4" stroke-miterlimit="10" stroke-linecap="round"/>
<path d="M191.852 198.232C193.005 197.825 200.528 195.122 205.093 192.225" stroke="#A15842" stroke-width="4" stroke-miterlimit="10" stroke-linecap="round"/>
<path d="M76.6143 251.607C69.0781 252.528 60.6695 253.89 51.2028 255.586L64.5218 219.736L70.3478 185.568C70.3478 185.568 51.2028 187.653 42.4616 197.678C34.3985 206.904 9.15975 249.786 19.1404 272.298C29.121 294.809 59.1104 286.869 66.1759 284.784C70.0325 283.646 75.8758 281.025 81.8745 279.075L76.6143 251.607Z" fill="#3EC1F3"/>
<path d="M96.157 276.865C105.317 278.115 115.721 282.699 117.388 276.865C117.388 276.865 123.002 276.722 121.232 271.376C121.232 271.376 124.047 271.026 124.462 268.941C125.296 264.776 115.306 261.022 115.306 261.022C115.306 261.022 123.214 262.272 124.881 260.59C127.001 258.462 124.937 255.075 112.02 251.94C102.639 249.665 91.2897 249.803 76.606 251.602L81.8792 279.053C86.9062 277.453 91.9937 276.294 96.157 276.865Z" fill="#EAA58B"/>
<path d="M118.865 261.554C114.429 259.85 106.008 257.017 99.9053 256.023" stroke="#A15842" stroke-width="4" stroke-miterlimit="10" stroke-linecap="round"/>
<path d="M121.404 271.203C115.617 268.608 104.44 263.799 98.4458 262.899" stroke="#A15842" stroke-width="4" stroke-miterlimit="10" stroke-linecap="round"/>
<path d="M116.917 277.297C112.455 275.031 103.529 270.775 97.1973 269.569" stroke="#A15842" stroke-width="4" stroke-miterlimit="10" stroke-linecap="round"/>
<path d="M76.6878 252.229C72.6195 252.757 59.6071 254.556 40.1685 258.315" stroke="#004BDC" stroke-width="4" stroke-miterlimit="10" stroke-linecap="round"/>
<path d="M405.651 170.561C415.881 170.561 424.174 162.255 424.174 152.011C424.174 141.766 415.881 133.461 405.651 133.461C395.421 133.461 387.128 141.766 387.128 152.011C387.128 162.255 395.421 170.561 405.651 170.561Z" fill="white"/>
<path d="M410.855 146.384C410.855 143.506 408.525 141.172 405.651 141.172C402.777 141.172 400.447 143.506 400.447 146.384V152.634C400.447 155.512 402.777 157.845 405.651 157.845C408.525 157.845 410.855 155.512 410.855 152.634V146.384Z" fill="#004BDC"/>
<path d="M405.651 156.18V162.019" stroke="#004BDC" stroke-width="4" stroke-miterlimit="10" stroke-linecap="round"/>
<path d="M402.667 162.019H408.635" stroke="#004BDC" stroke-width="4" stroke-miterlimit="10" stroke-linecap="round"/>
</svg>
