<?xml version="1.0" encoding="utf-8"?>
<!-- Generator: Adobe Illustrator 16.0.0, SVG Export Plug-In . SVG Version: 6.00 Build 0)  -->
<!DOCTYPE svg PUBLIC "-//W3C//DTD SVG 1.1//EN" "http://www.w3.org/Graphics/SVG/1.1/DTD/svg11.dtd">
<svg version="1.1" id="Layer_1" xmlns="http://www.w3.org/2000/svg" xmlns:xlink="http://www.w3.org/1999/xlink" x="0px" y="0px"
	 width="450px" height="414px" viewBox="38.5 0 450 414" enable-background="new 38.5 0 450 414" xml:space="preserve">
<path fill="none" stroke="#66B0F0" stroke-width="6" stroke-linecap="round" stroke-miterlimit="10" d="M214.675,361.398H348.95"/>
<path fill="none" stroke="#66B0F0" stroke-width="6" stroke-linecap="round" stroke-linejoin="round" stroke-miterlimit="10" d="
	M281.766,242.533v52.637c0,16.205,8.392,31.251,22.174,39.756l19.396,11.971"/>
<path fill="none" stroke="#66B0F0" stroke-width="6" stroke-linecap="round" stroke-linejoin="round" stroke-miterlimit="10" d="
	M271.257,242.533v52.637c0,16.205-8.392,31.251-22.174,39.756l-19.397,11.971"/>
<path fill="#FFFFFF" stroke="#66B0F0" stroke-width="6" stroke-miterlimit="10" d="M264.2,242.533h23.651
	c2.092,0,3.783-1.691,3.783-3.785v-5.975h-31.217v5.975C260.418,240.842,262.107,242.533,264.2,242.533z"/>
<path fill="#FFFFFF" stroke="#66B0F0" stroke-width="6" stroke-miterlimit="10" d="M324.211,361.398
	c-4.799,0-8.688-3.892-8.688-8.694c0-4.802,3.889-8.694,8.688-8.694s8.688,3.893,8.688,8.694
	C332.898,357.507,329.01,361.398,324.211,361.398z"/>
<path fill="#FFFFFF" stroke="#66B0F0" stroke-width="6" stroke-miterlimit="10" d="M229.497,361.398
	c-4.799,0-8.688-3.892-8.688-8.694c0-4.802,3.889-8.694,8.688-8.694s8.687,3.893,8.687,8.694
	C238.184,357.507,234.296,361.398,229.497,361.398z"/>
<path fill="#FFFFFF" stroke="#66B0F0" stroke-width="6" stroke-miterlimit="10" d="M229.497,359.564
	c-3.783,0-6.856-3.074-6.856-6.859s3.073-6.861,6.856-6.861c3.782,0,6.855,3.076,6.855,6.861S233.279,359.564,229.497,359.564z"/>
<path fill="#FFFFFF" stroke="#66B0F0" stroke-width="6" stroke-miterlimit="10" d="M324.175,359.564
	c-3.782,0-6.856-3.074-6.856-6.859s3.074-6.861,6.856-6.861s6.856,3.076,6.856,6.861S327.957,359.564,324.175,359.564z"/>
<path fill="none" stroke="#66B0F0" stroke-width="6" stroke-linecap="round" stroke-linejoin="round" stroke-miterlimit="10" d="
	M263.74,320.602c0,0,11.252-8.256,25.566,0"/>
<path fill="#31A1A9" d="M281.493,228.055l-10.874,111.342h33.509l27.554-100.188c5.069-16.348-5.84-32.978-22.826-33.014h-2.363
	C293.916,206.16,283.254,215.493,281.493,228.055z"/>
<path fill="#E57281" d="M277.167,339.396h17.659l-2.778,9.097c-3.485-3.478-8.344-5.985-13.651-6.306
	c-0.496-0.035-0.981-0.047-1.465-0.047L277.167,339.396z"/>
<path fill="#FFFFFF" stroke="#FE5244" stroke-width="6" stroke-miterlimit="10" d="M297.426,361.327
	c0.922-8.563-8.107-18.476-19.042-19.15c-10.933-0.674-17.683,6.554-18.214,15.142c-0.083,1.301-0.201,2.886,0.082,4.045
	L297.426,361.327z"/>
<path fill="none" stroke="#FE5244" stroke-width="6" stroke-miterlimit="10" d="M260.488,358.216l36.938,0.438"/>
<path fill="#3FB1B5" d="M291.02,339.396l27.955-17.032L256.47,217.575c-7.907-12.55-27.978-16.43-40.637-8.718
	c-14.598,8.895-17.458,28.896-5.945,41.529L291.02,339.396z"/>
<path fill="none" stroke="#FFFFFF" stroke-width="6" stroke-miterlimit="10" d="M291.139,338.924l28.072-16.797l-62.623-104.552
	c-7.907-12.55-27.978-16.43-40.637-8.718c-14.598,8.895-17.458,28.896-5.945,41.529L291.139,338.924z"/>
<path fill="#73325A" d="M318.537,321.619c-1.241-2.059-8.512,0.035-16.241,4.695c-7.729,4.648-12.966,10.256-11.726,12.313
	c1.242,2.06,8.486-0.201,16.218-4.849C314.506,329.13,319.766,323.689,318.537,321.619z"/>
<path fill="#E57281" d="M316.835,334.938l-13.05,8.209l-3.688-4.14l-1.123-1.266l-4.681-5.252c2.009-2.058,4.763-4.234,8.015-6.175
	c2.623-1.572,5.213-2.826,7.553-3.679l3.652,6.423l0.803,1.408L316.835,334.938z"/>
<path fill="#FFFFFF" stroke="#FE5244" stroke-width="6" stroke-miterlimit="10" d="M337.425,343.844l-32.505,17.542
	c-0.814-0.875-1.513-1.903-2.068-3.075c-0.473-0.981-0.838-2.011-1.123-3.052c-1.914-7.192,0.793-15.436,9.433-19.553
	c7.624-3.631,17.114-1.549,22.6,3.229C335.38,340.367,336.657,342.035,337.425,343.844z"/>
<path fill="none" stroke="#FE5244" stroke-width="6" stroke-linecap="round" stroke-miterlimit="10" d="M335.688,341.184
	l-32.517,17.541"/>
<path fill="#9A3B82" d="M313.489,329.047c-1.867,1.561-4.16,3.194-6.726,4.73c-2.742,1.656-5.437,3.006-7.813,3.964l-4.917-5.252
	c2.009-2.058,5-4.235,8.25-6.175c2.624-1.573,5.213-2.945,7.553-3.797L313.489,329.047z"/>
<path fill="none" stroke="#FFFFFF" stroke-width="6" stroke-miterlimit="10" d="M317.814,319.797
	c-1.24-2.058-9.088-0.012-16.949,4.721c-7.86,4.73-12.848,10.278-11.607,12.336"/>
<path fill="#9A3B82" d="M426.631,232.773c3.085,0,5.59-2.506,5.59-5.594v-21.41c0-3.088-2.505-5.595-5.59-5.595H115.717
	c-3.085,0-5.591,2.507-5.591,5.595v21.41c0,3.088,2.506,5.594,5.591,5.594H426.631z"/>
<path fill="#FFFFFF" stroke="#66B0F0" stroke-width="6" stroke-miterlimit="10" d="M426.535,195.325H115.799
	c-3.085,0-5.591,2.508-5.591,5.595v21.41c0,3.087,2.506,5.595,5.591,5.595h310.736c3.085,0,5.591-2.508,5.591-5.595v-21.41
	C432.126,197.833,429.62,195.325,426.535,195.325z"/>
<path fill="none" stroke="#66B0F0" stroke-width="6" stroke-linecap="round" stroke-miterlimit="10" d="M410.354,227.948v133.497"/>
<path fill="none" stroke="#66B0F0" stroke-width="6" stroke-linecap="round" stroke-miterlimit="10" d="M139.097,227.948v133.497"/>
<path fill="#9A3B82" d="M128.885,328.219l-0.497,0.319l-18.037-27.81l-5.425,0.414c-1.159,0.096-2.081-0.957-1.844-2.104
	c0.249-1.136,1.513-1.728,2.542-1.159l4.456,2.448l-3.274-5.062l-5.426,0.424c-1.158,0.096-2.08-0.969-1.832-2.104
	c0.249-1.136,1.513-1.728,2.542-1.159l4.456,2.436l-3.274-5.062l-5.426,0.427c-1.158,0.094-2.08-0.971-1.832-2.106
	c0.249-1.136,1.513-1.728,2.542-1.159l4.456,2.448l-1.974-3.04l-3.664-3.135c-0.886-0.756-0.792-2.152,0.177-2.791
	c0.981-0.639,2.293-0.153,2.624,0.97l1.359,4.625l2.033,3.135l-0.426-5.205c-0.094-1.159,0.958-2.082,2.092-1.845
	c1.135,0.236,1.726,1.514,1.17,2.531l-2.624,4.85l3.321,5.122l-0.426-5.192c-0.094-1.16,0.958-2.082,2.092-1.846
	s1.726,1.514,1.17,2.531l-2.624,4.85l3.321,5.122l-0.426-5.192c-0.094-1.159,0.958-2.094,2.092-1.846
	c1.135,0.236,1.726,1.514,1.17,2.531l-2.624,4.85L128.885,328.219z"/>
<path fill="#9A3B82" d="M159.191,318.391c-8.664,17.471-20.365,29.618-27.28,28.778c-0.568-0.071-1.1-0.226-1.596-0.474
	c-6.572-3.264-4.303-21.232,5.083-40.135c4.019-8.102,8.687-15.045,13.226-20.097c6.064-6.729,11.891-10.077,15.65-8.209
	C170.846,281.52,168.565,299.488,159.191,318.391z"/>
<path fill="#66B0F0" d="M148.342,304.586c-1.927,22.143-9.007,40.004-16.418,42.583c-0.567-0.071-1.1-0.226-1.596-0.474
	c-6.572-3.264-4.303-21.232,5.082-40.135c4.019-8.102,8.688-15.045,13.227-20.097C148.968,292.036,148.897,298.175,148.342,304.586z
	"/>
<path fill="none" stroke="#66B0F0" stroke-width="6" stroke-miterlimit="10" d="M164.274,278.255l-32.352,68.914"/>
<path fill="#66B0F0" d="M163.659,329.355l-4.574,1.537l-3.05,2.141l5.177-0.615c1.159-0.143,2.116,0.876,1.927,2.023
	c-0.201,1.146-1.442,1.785-2.494,1.266l-4.941-2.449l-5,3.514l5.178-0.615c1.158-0.143,2.115,0.875,1.926,2.023
	c-0.201,1.146-1.442,1.785-2.494,1.264l-4.941-2.447l-4.988,3.513l5.178-0.614c1.158-0.143,2.115,0.875,1.914,2.022
	s-1.442,1.786-2.494,1.265l-4.94-2.447l-9.137,6.423h-1.028l9.846-6.921l-0.614-5.405c-0.13-1.159,0.886-2.117,2.033-1.916
	c1.146,0.201,1.773,1.455,1.253,2.496l-2.281,4.554l4.928-3.466l-0.614-5.405c-0.13-1.16,0.886-2.117,2.033-1.917
	c1.146,0.201,1.773,1.455,1.253,2.496l-2.27,4.542l4.929-3.465l-0.614-5.406c-0.13-1.158,0.886-2.117,2.033-1.916
	c1.146,0.201,1.773,1.455,1.253,2.496l-2.282,4.555l2.967-2.082l2.991-3.785c0.721-0.911,2.127-0.877,2.789,0.082
	C165.208,327.65,164.77,328.988,163.659,329.355z"/>
<path fill="#FFFFFF" stroke="#66B0F0" stroke-width="6" stroke-miterlimit="10" d="M126.58,346.246
	c-0.591,0.201-1.217,0.343-1.855,0.426c-7.447,0.971-17.73-5.986-23.947-16.548c-6.75-11.474-6.135-22.853,1.371-25.433
	c2.435-0.84,5.307-0.639,8.286,0.402c6.217,2.165,12.955,7.961,17.517,15.709C134.689,332.288,134.074,343.667,126.58,346.246z"/>
<path fill="#66B0F0" d="M126.58,346.246c-0.591,0.201-1.217,0.343-1.855,0.426c-6.879-3.123-12.86-16.347-14.125-32.411
	c-0.248-3.17-0.295-6.245-0.166-9.167c6.217,2.165,12.955,7.961,17.517,15.709C134.689,332.288,134.074,343.667,126.58,346.246z"/>
<path fill="none" stroke="#66B0F0" stroke-width="6" stroke-miterlimit="10" d="M99.3,306.359l25.413,40.313"/>
<path fill="#FFFFFF" stroke="#66B0F0" stroke-width="6" stroke-miterlimit="10" d="M129.605,347.643
	c8.226,0,14.894-19.854,14.894-44.345s-6.668-44.346-14.894-44.346c-8.225,0-14.893,19.854-14.893,44.346
	S121.38,347.643,129.605,347.643z"/>
<path fill="none" stroke="#66B0F0" stroke-width="6" stroke-miterlimit="10" d="M129.605,258.939v88.703"/>
<path fill="none" stroke="#66B0F0" stroke-width="6" stroke-linecap="round" stroke-miterlimit="10" d="M139.097,269.573
	l-9.492,12.728l-8.049-15.945"/>
<path fill="none" stroke="#66B0F0" stroke-width="6" stroke-linecap="round" stroke-miterlimit="10" d="M142.182,280.361
	l-12.671,17.435l-11.395-22.06"/>
<path fill="none" stroke="#66B0F0" stroke-width="6" stroke-linecap="round" stroke-miterlimit="10" d="M144.156,292.805
	l-14.763,20.368l-13.487-26.022"/>
<path fill="none" stroke="#66B0F0" stroke-width="6" stroke-linecap="round" stroke-miterlimit="10" d="M145.078,309.412
	l-15.615,21.859l-14.716-27.939"/>
<path fill="#FFFFFF" stroke="#66B0F0" stroke-width="6" stroke-miterlimit="10" d="M151.685,361.445H107.49
	c-3.404,0-6.17-2.768-6.17-6.174v-1.929c0-3.407,2.766-6.175,6.17-6.175h44.195c3.404,0,6.17,2.768,6.17,6.175v1.929
	C157.855,358.689,155.089,361.445,151.685,361.445z"/>
<path fill="#FE5244" d="M411.867,207.757c0,1.763-1.406,3.194-3.132,3.194h-48.144c-1.736,0-3.132-1.432-3.132-3.194
	s1.407-3.194,3.132-3.194h48.144C410.461,204.563,411.867,205.994,411.867,207.757z"/>
<path fill="#FFFFFF" stroke="#66B0F0" stroke-width="6" stroke-miterlimit="10" d="M391.548,174.495h-19.704v13.721h38.062
	C407.493,180.078,400.023,174.495,391.548,174.495z"/>
<path fill="#66B0F0" stroke="#66B0F0" stroke-width="6" stroke-miterlimit="10" d="M375.391,174.495v13.721l-8.155,0.012v-13.733
	H375.391z"/>
<path fill="none" stroke="#66B0F0" stroke-width="6" stroke-miterlimit="10" d="M440.082,187.944l-30.177,0.272
	c0,0,7.553-10.243,28.286-7.534c0,0-16.219-3.383-32.672,0"/>
<path fill="none" stroke="#66B0F0" stroke-width="6" stroke-miterlimit="10" d="M409.905,188.216c0,0,13.227-7.274,29.349-3.749"/>
<path fill="#66B0F0" d="M413.274,199.442c0,1.289,0.2,2.46,0.52,3.323h-14.479c-0.745,0-1.359-0.65-1.359-1.443v-3.749
	c0-0.805,0.602-1.443,1.359-1.443h14.479C413.475,196.981,413.274,198.152,413.274,199.442z"/>
<path fill="#FFFFFF" d="M397.967,197.573v3.749c0,0.805,0.65,1.443,1.442,1.443h15.555v0.272c0,0.663-0.531,1.195-1.192,1.195
	h-54.408c-0.662,0-1.194-0.532-1.194-1.195v-7.191c0-0.663,0.532-1.195,1.194-1.195h54.408c0.661,0,1.192,0.532,1.192,1.195v0.272
	h-15.555C398.617,196.129,397.967,196.768,397.967,197.573z"/>
<path fill="none" stroke="#66B0F0" stroke-width="6" stroke-miterlimit="10" d="M397.967,197.573v3.749
	c0,0.805,0.65,1.443,1.442,1.443h15.555v0.272c0,0.663-0.531,1.195-1.192,1.195h-54.408c-0.662,0-1.194-0.532-1.194-1.195v-7.191
	c0-0.663,0.532-1.195,1.194-1.195h54.408c0.661,0,1.192,0.532,1.192,1.195v0.272h-15.555
	C398.617,196.129,397.967,196.768,397.967,197.573z"/>
<path fill="#66B0F0" d="M377.696,213.518c-0.567,0.532-0.922,1.502-0.922,2.318c0,1.621,1.419,3.288,3.168,3.288h43.592
	c0,0.757-0.615,1.384-1.383,1.384H369.54c-1.406,0-2.683-0.531-3.605-1.384c-0.922-0.851-1.501-2.034-1.501-3.347
	c0-2.614,2.281-4.732,5.106-4.732h52.611c0.757,0,1.383,0.616,1.383,1.385v0.248h-43.592
	C379.055,212.666,378.263,212.997,377.696,213.518z"/>
<path fill="#FE5244" d="M420.378,212.666v6.34h3.145v0.532h-43.734c-0.485,0-0.957-0.095-1.383-0.272
	c-0.461-0.188-0.887-0.461-1.229-0.815c-0.674-0.675-1.088-1.597-1.088-2.614c0-2.046,1.655-3.702,3.7-3.702h43.734v0.532H420.378z"
	/>
<path fill="#FFFFFF" d="M421.596,212.666v6.34h-41.653c-1.749,0-3.168-1.42-3.168-3.17c0-0.876,0.354-1.668,0.922-2.248
	c0.567-0.566,1.359-0.922,2.233-0.922H421.596z"/>
<path fill="none" stroke="#FE5244" stroke-width="5" stroke-miterlimit="10" d="M421.596,212.666v6.34"/>
<path fill="#FE5244" d="M385.746,217.161v5.287h-3.653v-4.613c0-1.101-0.886-1.999-1.997-1.999h-1.632v-0.674h5.284
	C384.859,215.162,385.746,216.061,385.746,217.161z"/>
<path fill="#66B0F0" d="M423.699,188.512h-62.103c-1.607,0-2.907,1.301-2.907,2.91c0.012,1.597,1.3,2.898,2.907,2.898h62.103
	c1.607,0,2.908-1.301,2.908-2.91C426.595,189.813,425.295,188.512,423.699,188.512z"/>
<path fill="#9A3B82" d="M409.609,194.332h-0.626c0.07,0.189,0.248,0.662,0.638,0.662c0.237,0,1.395-0.178,1.395-3.572
	c0-1.207-0.142-2.129-0.426-2.756c-0.342-0.746-0.792-0.828-0.957-0.828c-0.401,0-0.579,0.485-0.649,0.674h0.626
	c0.023-0.047,0.048-0.071,0.059-0.083c0.213,0.059,0.781,0.651,0.781,2.993c0,2.342-0.568,2.921-0.781,2.992
	C409.645,194.391,409.621,194.367,409.609,194.332z"/>
<path fill="#9A3B82" d="M414.739,194.332h-0.626c0.07,0.189,0.248,0.662,0.638,0.662c0.236,0,1.396-0.178,1.396-3.572
	c0-1.207-0.143-2.129-0.427-2.756c-0.342-0.746-0.792-0.828-0.957-0.828c-0.401,0-0.579,0.485-0.649,0.674h0.626
	c0.023-0.047,0.048-0.071,0.059-0.083c0.213,0.059,0.78,0.651,0.78,2.993c0,2.342-0.567,2.921-0.78,2.992
	C414.787,194.391,414.763,194.367,414.739,194.332z"/>
<path fill="#9A3B82" d="M419.881,194.332h-0.626c0.07,0.189,0.248,0.662,0.638,0.662c0.331,0,1.396-0.26,1.396-3.572
	c0-3.324-1.064-3.572-1.396-3.572c-0.401,0-0.578,0.485-0.649,0.674h0.626c0.023-0.047,0.047-0.071,0.059-0.083
	c0.237,0.059,0.78,0.674,0.78,2.993c0,1.419-0.201,2.153-0.378,2.531c-0.143,0.308-0.295,0.438-0.402,0.461
	C419.916,194.391,419.905,194.367,419.881,194.332z"/>
<path fill="#9A3B82" d="M394.184,194.332h-0.626c0.071,0.189,0.248,0.662,0.639,0.662c0.235,0,1.395-0.177,1.395-3.572
	c0-3.324-1.063-3.572-1.395-3.572c-0.402,0-0.579,0.485-0.65,0.674h0.626c0.024-0.047,0.048-0.071,0.06-0.083
	c0.236,0.059,0.78,0.674,0.78,2.993c0,2.342-0.567,2.921-0.78,2.992C394.231,194.391,394.208,194.367,394.184,194.332z"/>
<path fill="#9A3B82" d="M399.327,194.332H398.7c0.071,0.189,0.249,0.662,0.639,0.662c0.224,0,0.638-0.095,0.957-0.757
	c0.284-0.603,0.438-1.549,0.438-2.815c0-1.266-0.142-2.212-0.438-2.815c-0.319-0.663-0.733-0.757-0.957-0.757
	c-0.401,0-0.58,0.485-0.651,0.674h0.628c0.023-0.047,0.047-0.071,0.059-0.083c0.142,0.024,0.284,0.177,0.402,0.426
	c0.165,0.355,0.378,1.088,0.378,2.567c0,1.466-0.201,2.2-0.378,2.567c-0.118,0.248-0.272,0.402-0.402,0.425
	C399.362,194.391,399.35,194.367,399.327,194.332z"/>
<path fill="#9A3B82" d="M404.468,194.332h-0.627c0.071,0.189,0.249,0.662,0.64,0.662c0.33,0,1.394-0.26,1.394-3.572
	c0-3.407-1.158-3.572-1.394-3.572c-0.402,0-0.579,0.485-0.65,0.674h0.626c0.024-0.047,0.047-0.071,0.059-0.083
	c0.213,0.059,0.78,0.651,0.78,2.993c0,2.318-0.543,2.933-0.78,2.992C404.503,194.391,404.491,194.367,404.468,194.332z"/>
<path fill="#9A3B82" d="M378.771,194.332h-0.627c0.071,0.189,0.248,0.662,0.639,0.662c0.177,0,0.626-0.083,0.957-0.828
	c0.284-0.615,0.426-1.55,0.426-2.756c0-1.112-0.154-2.046-0.426-2.685c-0.248-0.568-0.603-0.899-0.969-0.899
	c-0.402,0-0.579,0.485-0.65,0.674h0.627c0.023-0.035,0.035-0.071,0.047-0.083c0.071,0.036,0.236,0.166,0.402,0.544
	c0.177,0.391,0.378,1.136,0.378,2.437c0,2.342-0.567,2.922-0.78,2.993C378.807,194.391,378.795,194.367,378.771,194.332z"/>
<path fill="#9A3B82" d="M383.913,194.332h-0.627c0.071,0.189,0.249,0.662,0.639,0.662c0.177,0,0.626-0.083,0.957-0.828
	c0.284-0.615,0.426-1.55,0.426-2.756c0-3.324-1.063-3.572-1.395-3.572c-0.402,0-0.579,0.485-0.65,0.674h0.626
	c0.024-0.047,0.047-0.071,0.06-0.083c0.236,0.059,0.779,0.674,0.779,2.993c0,2.342-0.566,2.921-0.779,2.992
	C383.948,194.391,383.936,194.367,383.913,194.332z"/>
<path fill="#9A3B82" d="M389.055,194.332h-0.627c0.071,0.189,0.249,0.662,0.64,0.662c0.331,0,1.394-0.26,1.394-3.572
	c0-1.266-0.141-2.212-0.437-2.815c-0.319-0.663-0.733-0.757-0.957-0.757c-0.402,0-0.58,0.485-0.65,0.674h0.626
	c0.024-0.047,0.047-0.071,0.059-0.083c0.143,0.024,0.284,0.177,0.402,0.426c0.165,0.355,0.378,1.088,0.378,2.567
	c0,2.318-0.544,2.933-0.78,2.992C389.09,194.391,389.067,194.367,389.055,194.332z"/>
<path fill="#9A3B82" d="M363.358,194.332h-0.626c0.069,0.189,0.248,0.662,0.638,0.662c0.366,0,0.709-0.331,0.969-0.899
	c0.284-0.639,0.425-1.561,0.425-2.685c0-1.313-0.235-2.141-0.425-2.602c-0.26-0.615-0.615-0.97-0.969-0.97
	c-0.402,0-0.579,0.485-0.65,0.674h0.626c0.024-0.035,0.036-0.059,0.047-0.083c0.083,0.048,0.261,0.213,0.427,0.663
	c0.165,0.414,0.354,1.147,0.354,2.318c0,1.313-0.2,2.046-0.378,2.449c-0.165,0.378-0.331,0.508-0.402,0.544
	C363.393,194.391,363.37,194.367,363.358,194.332z"/>
<path fill="#9A3B82" d="M368.487,194.332h-0.626c0.07,0.189,0.248,0.662,0.638,0.662c0.367,0,0.709-0.331,0.97-0.899
	c0.283-0.639,0.425-1.561,0.425-2.685c0-2.319-0.721-3.572-1.395-3.572c-0.402,0-0.579,0.485-0.65,0.674h0.627
	c0.023-0.036,0.035-0.059,0.048-0.083c0.083,0.047,0.248,0.213,0.425,0.639c0.166,0.402,0.354,1.147,0.354,2.342
	c0,1.313-0.201,2.046-0.378,2.448c-0.166,0.379-0.331,0.509-0.401,0.544C368.523,194.391,368.511,194.367,368.487,194.332z"/>
<path fill="#9A3B82" d="M373.629,194.332h-0.626c0.071,0.189,0.248,0.662,0.638,0.662c0.179,0,0.615-0.083,0.971-0.875
	c0.282-0.639,0.425-1.55,0.425-2.697c0-1.112-0.154-2.047-0.425-2.685c-0.249-0.568-0.604-0.899-0.971-0.899
	c-0.401,0-0.578,0.485-0.649,0.674h0.627c0.022-0.036,0.035-0.071,0.047-0.083c0.071,0.036,0.236,0.166,0.402,0.544
	c0.177,0.391,0.378,1.136,0.378,2.437c0,1.336-0.201,2.07-0.378,2.46c-0.166,0.367-0.331,0.497-0.402,0.521
	C373.665,194.391,373.653,194.367,373.629,194.332z"/>
<path fill="#66B0F0" d="M401.761,105.369h-41.44c-2.4,0-4.338-1.94-4.338-4.341V59.557c0-2.401,1.938-4.341,4.338-4.341h41.44
	c2.399,0,4.338,1.939,4.338,4.341v41.471C406.099,103.429,404.149,105.369,401.761,105.369z"/>
<path fill="#FFFFFF" stroke="#66B0F0" stroke-width="6" stroke-miterlimit="10" d="M398.735,102.589h-42.257
	c-2.399,0-4.338-1.94-4.338-4.341V55.961c0-2.401,1.938-4.341,4.338-4.341h42.257c2.398,0,4.338,1.939,4.338,4.341v42.287
	C403.073,100.649,401.134,102.589,398.735,102.589z"/>
<path fill="none" stroke="#66B0F0" stroke-width="6" stroke-miterlimit="10" d="M377.612,96.616
	c10.771,0,19.503-8.738,19.503-19.517c0-10.779-8.731-19.518-19.503-19.518s-19.503,8.738-19.503,19.518
	C358.109,87.877,366.841,96.616,377.612,96.616z"/>
<path fill="none" stroke="#66B0F0" stroke-width="6" stroke-linecap="round" stroke-miterlimit="10" d="M366.644,68.724
	l10.969,8.375l-2.694-8.268"/>
<path fill="#66B0F0" d="M342.885,227.925h-33.414l-14.031-16.868h32.611L342.885,227.925z"/>
<path fill="#FFFFFF" stroke="#66B0F0" stroke-width="6" stroke-miterlimit="10" d="M360.982,228.8v10.409l-26.478,0.107
	c-3.392,0.011-6.146-2.733-6.146-6.129v-3.229c0-2.152-0.793-4.223-2.211-5.818l-8.734-9.818h32.611l8.345,8.244
	C360.048,224.21,360.982,226.445,360.982,228.8z"/>
<path fill="#FFFFFF" stroke="#66B0F0" stroke-width="6" stroke-miterlimit="10" d="M372.897,235.542
	c-1.123,2.248-3.44,3.785-6.123,3.785H334.15c2.672,0,4.988-1.537,6.123-3.785H372.897z"/>
<path fill="#FE5244" d="M352.673,170.71l-19.905-34.989c-4.75-8.363-13.627-13.52-23.238-13.52h-74.548l2.613-5.643
	c-0.213,0.462-1.336,0.58-3.05,0.343c-2.624-0.354-6.619-1.502-10.874-3.394c-2.435-1.077-4.646-2.2-6.478-3.241
	c-3.463-1.976-5.555-3.703-5.212-4.472l-38.061,62.467c-8.356,12.195,0.367,28.767,15.142,28.767c1.985,0,3.948-0.319,5.815-0.946
	c1.868-0.627,3.629-1.55,5.213-2.744l29.231-21.99c1.761-1.324,4.279-0.295,4.633,1.869l3.818,23.811h99.595
	C350.877,197.04,359.351,182.444,352.673,170.71z M308.372,173.442l3.19-7.263c0.545-1.242,2.293-1.265,2.861-0.035l3.463,7.31
	h-9.515V173.442z"/>
<path fill="none" stroke="#FE5244" stroke-width="6" stroke-miterlimit="10" d="M246.848,122.177
	c0-6.115,12.612-13.674,27.907-15.602c22.943-2.874,27.907,9.487,27.907,15.602"/>
<path fill="#FE5244" d="M300.016,122.283c0,5.477-25.261,16.69-25.261,16.69s-25.259-11.213-25.259-16.69
	c0-5.476,12.009-11.817,25.85-13.508C295.264,106.338,300.016,116.795,300.016,122.283z"/>
<path fill="#FFFFFF" d="M300.016,122.284c0,5.476-25.261,16.69-25.261,16.69s-25.259-11.214-25.259-16.69c0-0.024,0-0.048,0-0.071
	h50.52C300.016,122.224,300.016,122.248,300.016,122.284z"/>
<path fill="none" stroke="#FFFFFF" stroke-width="6" stroke-miterlimit="10" d="M302.65,122.165
	c0,6.044-27.896,19.789-27.896,19.789s-27.895-13.733-27.895-19.789"/>
<path fill="none" stroke="#FFFFFF" stroke-width="5" stroke-linecap="round" stroke-miterlimit="10" d="M296.279,196.768
	c1.561,0,2.826-5.169,2.826-11.533c0-6.364-1.266-11.533-2.826-11.533"/>
<path fill="none" stroke="#FFFFFF" stroke-width="5" stroke-miterlimit="10" d="M237.014,118.877l-21.879,43.777"/>
<path fill="none" stroke="#FFFFFF" stroke-width="5" stroke-linecap="round" stroke-miterlimit="10" d="M232.263,161.649
	l3.617,23.823"/>
<path fill="none" stroke="#FFFFFF" stroke-width="5" stroke-linecap="round" stroke-miterlimit="10" d="M273.573,144.758h2.364"/>
<path fill="none" stroke="#FFFFFF" stroke-width="5" stroke-linecap="round" stroke-miterlimit="10" d="M273.573,147.573h2.364"/>
<path fill="none" stroke="#FFFFFF" stroke-width="5" stroke-linecap="round" stroke-miterlimit="10" d="M273.573,150.376h2.364"/>
<path fill="none" stroke="#FFFFFF" stroke-width="5" stroke-linecap="round" stroke-miterlimit="10" d="M273.573,153.179h2.364"/>
<path fill="none" stroke="#FFFFFF" stroke-width="5" stroke-linecap="round" stroke-miterlimit="10" d="M273.573,155.983h2.364"/>
<path fill="none" stroke="#FFFFFF" stroke-width="5" stroke-linecap="round" stroke-miterlimit="10" d="M273.573,158.798h2.364"/>
<path fill="none" stroke="#FFFFFF" stroke-width="5" stroke-linecap="round" stroke-miterlimit="10" d="M273.573,158.928h2.364"/>
<path fill="none" stroke="#FFFFFF" stroke-width="5" stroke-linecap="round" stroke-miterlimit="10" d="M273.573,161.731h2.364"/>
<path fill="none" stroke="#FFFFFF" stroke-width="5" stroke-linecap="round" stroke-miterlimit="10" d="M273.573,164.535h2.364"/>
<path fill="none" stroke="#FFFFFF" stroke-width="5" stroke-linecap="round" stroke-miterlimit="10" d="M273.573,167.208h2.364"/>
<path fill="none" stroke="#FFFFFF" stroke-width="5" stroke-linecap="round" stroke-miterlimit="10" d="M273.573,170.023h2.364"/>
<path fill="none" stroke="#FFFFFF" stroke-width="5" stroke-linecap="round" stroke-miterlimit="10" d="M273.573,172.827h2.364"/>
<path fill="none" stroke="#FFFFFF" stroke-width="5" stroke-linecap="round" stroke-miterlimit="10" d="M273.573,175.63h2.364"/>
<path fill="none" stroke="#FFFFFF" stroke-width="5" stroke-linecap="round" stroke-miterlimit="10" d="M273.573,178.434h2.364"/>
<path fill="none" stroke="#FFFFFF" stroke-width="5" stroke-linecap="round" stroke-miterlimit="10" d="M273.573,181.249h2.364"/>
<path fill="none" stroke="#FFFFFF" stroke-width="5" stroke-linecap="round" stroke-miterlimit="10" d="M273.573,184.052h2.364"/>
<path fill="none" stroke="#FFFFFF" stroke-width="5" stroke-linecap="round" stroke-miterlimit="10" d="M273.573,186.855h2.364"/>
<path fill="none" stroke="#FFFFFF" stroke-width="5" stroke-linecap="round" stroke-miterlimit="10" d="M273.573,189.659h2.364"/>
<path fill="none" stroke="#FFFFFF" stroke-width="5" stroke-linecap="round" stroke-miterlimit="10" d="M273.573,189.801h2.364"/>
<path fill="none" stroke="#FFFFFF" stroke-width="5" stroke-linecap="round" stroke-miterlimit="10" d="M273.573,192.604h2.364"/>
<path fill="none" stroke="#FFFFFF" stroke-width="5" stroke-linecap="round" stroke-miterlimit="10" d="M273.573,195.407h2.364"/>
<path fill="none" stroke="#FFFFFF" stroke-width="5" stroke-miterlimit="10" d="M273.325,140.937v44.535"/>
<path fill="none" stroke="#FFFFFF" stroke-width="5" stroke-linecap="round" stroke-miterlimit="10" d="M294.909,173.679h28.427"/>
<path fill="#FFFFFF" stroke="#66B0F0" stroke-width="6" stroke-miterlimit="10" d="M215.81,220.225h90.765l-8.534-23.102h-72.397
	L215.81,220.225z"/>
<path fill="#66B0F0" d="M215.81,220.225c0-3.266,8.652-9.168,22.706-9.972c15.047-0.853,22.931,8.611,22.706,9.972H215.81z"/>
<path fill="#FFFFFF" stroke="#66B0F0" stroke-width="6" stroke-linejoin="round" stroke-miterlimit="10" d="M261.21,220.225
	c0,0-3.995-18.689-39.065-14.881l7.577-18.441c0,0,28.722-5.228,31.5,10.22L261.21,220.225z"/>
<path fill="#FFFFFF" stroke="#66B0F0" stroke-width="6" stroke-linejoin="round" stroke-miterlimit="10" d="M306.043,218.77
	c-2.092-2.898-10.152-5.927-22.162-6.612c-14.279-0.816-22.104,5.973-22.671,7.819v-22.854c0,0,10.188-11.639,36.831,0
	L306.043,218.77z"/>
<path fill="none" stroke="#66B0F0" stroke-width="6" stroke-linecap="round" stroke-linejoin="round" stroke-miterlimit="10" d="
	M293.786,209.212c-2.978-0.757-6.583-1.325-10.697-1.562c-2.045-0.118-3.948-0.06-5.696,0.13c-4.338,0.485-7.754,1.786-10.189,3.182
	"/>
<path fill="none" stroke="#66B0F0" stroke-width="6" stroke-linecap="round" stroke-linejoin="round" stroke-miterlimit="10" d="
	M292.734,205.273c-2.848-0.674-6.241-1.183-10.071-1.408c-2.044-0.118-3.947-0.059-5.697,0.131
	c-4.338,0.485-7.754,1.786-10.188,3.181"/>
<path fill="none" stroke="#66B0F0" stroke-width="6" stroke-linecap="round" stroke-linejoin="round" stroke-miterlimit="10" d="
	M291.766,201.346c-2.72-0.604-5.875-1.053-9.422-1.266c-2.045-0.118-3.947-0.059-5.697,0.13c-4.338,0.485-7.754,1.786-10.188,3.182"
	/>
<path fill="none" stroke="#66B0F0" stroke-width="6" stroke-miterlimit="10" d="M295.665,196.082l7.519,20.486"/>
<path fill="#66B0F0" d="M306.587,220.225H261.21v-0.248c0.567-1.846,8.392-8.636,22.671-7.819c12.01,0.686,20.07,3.714,22.162,6.612
	L306.587,220.225z"/>
<path fill="#E57281" d="M289.234,122.202c0,0-8.463,4.413-20.211,2.638c-2.92-0.437-6.053-1.265-9.292-2.638v-14.241l15.225-9.486
	l2.281,3.796L289.234,122.202z"/>
<path fill="#9A3B82" d="M275.796,99.597c0.91,1.691,1.063,3.702,0.402,5.512l-7.175,19.73c-2.92-0.438-6.053-1.266-9.292-2.638
	v-14.242l15.295-9.782L275.796,99.597z"/>
<path fill="#9A3B82" d="M274.482,93.221c0,0,1.785-15.886-4.562-17.34c-4.846-1.112-7.258,2.543-7.258,2.543
	s-2.624-3.833-6.69-2.035c-3.865,1.704-3.593,7.015-1.855,6.589c1.737-0.426-1.679-3.833-5.331-1.313c-4.043,2.78,0,7.37,0,7.37
	s-2.991-1.443-4.374,1.502c-1.714,3.655,8.073,11.533,8.073,11.533L274.482,93.221z"/>
<path fill="#E57281" d="M264.814,85.544l-10.152,4.081c-2.447,0.982-3.641,3.785-2.66,6.222l4.433,11.061
	c1.631,4.08,6.311,6.068,10.377,4.435l4.22-1.691c4.077-1.632,6.063-6.317,4.433-10.385l-4.433-11.06
	C270.051,85.757,267.25,84.563,264.814,85.544z"/>
<path fill="#E57281" d="M277.51,98.438l-2.045,0.828l-2.222-5.536l2.045-0.828c1.217-0.485,2.588,0.106,3.073,1.313l0.461,1.147
	C279.318,96.568,278.727,97.94,277.51,98.438z"/>
<path fill="#9A3B82" d="M254.236,107.333l2.045-0.828l-2.069-5.146l-2.044,0.828c-1.218,0.485-1.797,1.869-1.312,3.076l0.307,0.757
	C251.647,107.226,253.019,107.818,254.236,107.333z"/>
<path fill="none" stroke="#9A3B82" stroke-width="5" stroke-linecap="round" stroke-miterlimit="10" d="M275.016,96.664
	c-0.379-0.958,0.082-2.035,1.039-2.425"/>
<path fill="none" stroke="#9A3B82" stroke-width="5" stroke-linecap="round" stroke-miterlimit="10" d="M265.075,91.541
	c0,0,2.399,0.899,5.448-0.544"/>
<path fill="none" stroke="#9A3B82" stroke-width="5" stroke-linecap="round" stroke-miterlimit="10" d="M260.004,95.586
	c0,0,3.581-0.367,4.883,5.666"/>
<path fill="none" stroke="#9A3B82" stroke-width="5" stroke-linecap="round" stroke-miterlimit="10" d="M270.169,103.216
	c0,0-5.284-1.419-5.095,1.313"/>
<path fill="#9A3B82" d="M269.43,97.621c0.252-0.089,0.278-0.666,0.059-1.288c-0.221-0.622-0.604-1.054-0.855-0.964
	c-0.253,0.089-0.279,0.666-0.059,1.288S269.178,97.711,269.43,97.621z"/>
<path fill="#9A3B82" d="M259.681,101.692c0.252-0.09,0.278-0.666,0.058-1.288c-0.22-0.622-0.603-1.054-0.855-0.964
	c-0.253,0.089-0.279,0.667-0.059,1.288C259.046,101.349,259.429,101.781,259.681,101.692z"/>
<path fill="none" stroke="#66B0F0" stroke-width="5" stroke-linecap="round" stroke-miterlimit="10" d="M269.318,99.893
	c1.887,0,3.416-1.531,3.416-3.419c0-1.888-1.529-3.418-3.416-3.418s-3.416,1.53-3.416,3.418
	C265.902,98.362,267.432,99.893,269.318,99.893z"/>
<path fill="none" stroke="#66B0F0" stroke-width="5" stroke-linecap="round" stroke-miterlimit="10" d="M259.271,103.796
	c1.887,0,3.417-1.531,3.417-3.419c0-1.888-1.529-3.418-3.417-3.418c-1.886,0-3.416,1.531-3.416,3.418
	C255.855,102.265,257.385,103.796,259.271,103.796z"/>
<path fill="none" stroke="#66B0F0" stroke-width="5" stroke-linecap="round" stroke-miterlimit="10" d="M262.462,99.147l3.604-1.656
	"/>
<path fill="#FFFFFF" stroke="#FE5244" stroke-width="6" stroke-miterlimit="10" d="M238.303,115.258
	c-0.201,0.461-1.336,0.58-3.05,0.343c-2.624-0.355-6.619-1.502-10.874-3.395c-2.435-1.088-4.645-2.2-6.466-3.241
	c-3.463-1.975-5.555-3.702-5.212-4.471c0.342-0.757,3.002-0.39,6.761,0.828c2.021,0.65,4.349,1.549,6.808,2.65
	c4.208,1.868,7.86,3.69,10.012,5.098C237.747,114.016,238.516,114.785,238.303,115.258z"/>
<path fill="#9A3B82" d="M258.361,91.27l-3.215,12.432l-2.896-7.215c-1.111-2.768,0.224-5.938,2.955-7.097L258.361,91.27z"/>
<path fill="#E57281" d="M258.48,91.044l-6.383,11.072c-0.733,1.278-2.104,2.07-3.581,2.07h-6.596c-0.969,0-1.832,0.592-2.199,1.479
	l-3.427,7.416l-1.005,2.165c-2.896-0.391-6.927-1.644-10.78-3.36c-1.442-0.638-2.848-1.313-4.149-1.987l1.738-3.631l3.109-6.494
	c1.489-3.513,4.054-6.47,7.328-8.434l6.43-3.868c0.851-0.508,1.832-0.78,2.825-0.78h10.922c0.602,0,1.193,0.13,1.725,0.39
	l3.286,1.562C258.633,89.081,258.976,90.181,258.48,91.044z"/>
<path fill="none" stroke="#9A3B82" stroke-width="5" stroke-linecap="round" stroke-miterlimit="10" d="M243.042,91.399h7.802
	c0.579,0,1.146,0.13,1.666,0.378l3.156,1.514c0.863,0.414,1.194,1.479,0.721,2.307"/>
<path fill="none" stroke="#9A3B82" stroke-width="5" stroke-linecap="round" stroke-miterlimit="10" d="M241.104,94.758h7.801
	c0.579,0,1.147,0.13,1.667,0.379l3.156,1.514c0.863,0.414,1.194,1.479,0.721,2.306"/>
<path fill="none" stroke="#9A3B82" stroke-width="5" stroke-linecap="round" stroke-miterlimit="10" d="M238.823,99.147h7.801
	c0.58,0,1.147,0.13,1.667,0.378l3.156,1.514c0.863,0.414,1.194,1.478,0.721,2.306"/>
<path fill="#9A3B82" d="M235.3,115.246c-2.896-0.39-6.926-1.644-10.78-3.359c-1.442-0.639-2.848-1.313-4.148-1.987l1.962-4.01
	c1.312,0.496,2.6,1.064,4.042,1.715c4.208,1.869,7.884,3.82,10.035,5.228L235.3,115.246z"/>
<path fill="none" stroke="#9A3B82" stroke-width="5" stroke-linecap="round" stroke-miterlimit="10" d="M236.518,103.867h5.531"/>
<path fill="#FFFFFF" d="M294.861,197.029c1.561,0,2.826-5.28,2.826-11.793c0-6.513-1.266-11.793-2.826-11.793
	c-1.56,0-2.824,5.28-2.824,11.793C292.037,191.749,293.302,197.029,294.861,197.029z"/>
<path fill="#E57281" d="M297.688,185.236c0,2.023-0.119,3.927-0.344,5.595c-0.732,1.869-2.234,3.347-4.125,4.045
	c-0.768,0.284-1.607,0.45-2.482,0.45h-10.721c-1.348,0-2.447,1.1-2.447,2.448v0.331c0,1.976-2.104,3.253-3.853,2.331l-5.034-2.638
	c-0.899-0.473-1.467-1.408-1.467-2.425v-3.939c0-1.479,0.697-2.863,1.867-3.75l7.684-5.784c1.301-0.982,2.883-1.502,4.504-1.502
	h16.157C297.604,181.877,297.688,183.509,297.688,185.236z"/>
<path fill="none" stroke="#9A3B82" stroke-width="5" stroke-linecap="round" stroke-miterlimit="10" d="M278.704,184.207
	l-7.056,5.311c-1.076,0.816-1.715,2.093-1.715,3.442v3.619c0,0.935,0.521,1.798,1.348,2.224"/>
<path fill="none" stroke="#9A3B82" stroke-width="5" stroke-linecap="round" stroke-miterlimit="10" d="M282.297,185.792
	l-7.056,5.311c-1.076,0.816-1.714,2.093-1.714,3.442v3.619c0,0.935,0.52,1.798,1.347,2.224"/>
<path fill="#9A3B82" d="M297.688,185.236c0,2.023-0.119,3.927-0.344,5.595c-0.732,1.869-2.234,3.347-4.125,4.045
	c-0.721-2.141-1.193-5.654-1.193-9.64c0-1.727,0.095-3.359,0.248-4.838h5.166C297.604,181.877,297.688,183.509,297.688,185.236z"/>
<path fill="#66B0F0" d="M318.218,202.423c7.076,0,12.812-0.482,12.812-1.077c0-0.594-5.735-1.076-12.812-1.076
	c-7.077,0-12.813,0.482-12.813,1.076C305.404,201.941,311.141,202.423,318.218,202.423z"/>
<path fill="#FFFFFF" stroke="#66B0F0" stroke-width="6" stroke-miterlimit="10" d="M328.879,202.162h-5.295
	c-4.917,0-8.889-3.986-8.889-8.895v-7.558h23.084v7.546C337.779,198.176,333.796,202.162,328.879,202.162z"/>
<path fill="none" stroke="#66B0F0" stroke-width="6" stroke-miterlimit="10" d="M341.006,192.179h-3.238v-5.761h3.238
	c1.383,0,2.518,1.124,2.518,2.52v0.733C343.523,191.055,342.389,192.179,341.006,192.179z"/>
<path fill="#3FB1B5" stroke="#FFFFFF" stroke-width="5" stroke-miterlimit="10" d="M326.232,187.956
	c6.43,0,11.642-1.043,11.642-2.33s-5.212-2.33-11.642-2.33c-6.431,0-11.644,1.043-11.644,2.33S319.802,187.956,326.232,187.956z"/>
<path fill="none" stroke="#66B0F0" stroke-width="6" stroke-miterlimit="10" d="M314.707,187.519c0,1.289,5.165,2.33,11.525,2.33
	c6.358,0,11.523-1.041,11.523-2.33"/>
<path fill="none" stroke="#66B0F0" stroke-width="6" stroke-miterlimit="10" d="M314.707,189.991c0,1.289,5.165,2.33,11.525,2.33
	c6.358,0,11.523-1.041,11.523-2.33"/>
<path fill="none" stroke="#66B0F0" stroke-width="6" stroke-miterlimit="10" d="M314.707,192.463c0,1.289,5.165,2.33,11.525,2.33
	c6.358,0,11.523-1.041,11.523-2.33"/>
<path fill="none" stroke="#66B0F0" stroke-width="6" stroke-miterlimit="10" d="M314.884,194.935c0,1.289,5.083,2.33,11.347,2.33
	c6.266,0,11.349-1.041,11.349-2.33"/>
<path fill="none" stroke="#66B0F0" stroke-width="6" stroke-miterlimit="10" d="M315.771,197.407c0,1.29,4.681,2.33,10.461,2.33
	c5.779,0,10.459-1.04,10.459-2.33"/>
<path fill="none" stroke="#FFFFFF" stroke-width="5" stroke-linecap="round" stroke-miterlimit="10" d="M325.77,181.486
	c-1.134-0.781-4.668-8.221-0.295-11.261c3.357-2.342,4.008,3.726,2.459,3.218c-2.694-0.887-4.338-12.763,2.694-12.03
	c3.097,0.319,2.754,4.731,0,4.85"/>
<path fill="#FFFFFF" stroke="#66B0F0" stroke-width="6" stroke-miterlimit="10" d="M188.304,216.238h-58.095
	c-1.561,0-2.955-0.946-3.534-2.389l-15.898-39.319c-0.757-1.88,0.626-3.938,2.647-3.938h58.096c1.56,0,2.955,0.946,3.534,2.389
	l15.898,39.318C191.72,214.18,190.337,216.238,188.304,216.238z"/>
<path fill="#66B0F0" d="M185.609,216.521h-55.424c-1.478,0-2.813-0.898-3.369-2.271l-15.166-37.509
	c-0.721-1.798,0.591-3.749,2.53-3.749h55.424c1.477,0,2.813,0.899,3.368,2.271l15.165,37.507
	C188.859,214.57,187.536,216.521,185.609,216.521z"/>
<path fill="#FFFFFF" d="M151.579,199.465c-1.631,0-3.167-0.639-4.326-1.798c-0.945-0.946-1.465-2.2-1.465-3.525
	c0-1.336,0.52-2.59,1.465-3.525c0.769-0.769,1.797-1.194,2.884-1.194c1.088,0,2.116,0.425,2.884,1.194
	c1.312,1.313,1.312,3.442,0,4.755c-1.087,1.089-2.848,1.089-3.936,0c-0.189-0.189-0.189-0.485,0-0.674
	c0.189-0.189,0.485-0.189,0.674,0c0.721,0.722,1.879,0.722,2.6,0c0.946-0.946,0.946-2.472,0-3.418
	c-0.591-0.592-1.382-0.923-2.222-0.923c-0.839,0-1.631,0.331-2.222,0.923c-0.768,0.769-1.182,1.774-1.182,2.862
	c0,1.077,0.426,2.094,1.182,2.863c0.981,0.981,2.27,1.514,3.653,1.514c1.382,0,2.683-0.533,3.652-1.514
	c0.189-0.19,0.485-0.19,0.674,0c0.189,0.189,0.189,0.485,0,0.674C154.747,198.826,153.211,199.465,151.579,199.465z"/>
<path fill="#FFFFFF" stroke="#66B0F0" stroke-width="6" stroke-miterlimit="10" d="M209.095,220.402H130.28
	c-0.91,0-1.643-0.734-1.643-1.646v-0.792c0-0.91,0.733-1.645,1.643-1.645h78.815c0.911,0,1.643,0.734,1.643,1.645v0.792
	C210.727,219.668,209.994,220.402,209.095,220.402z"/>
</svg>
