<svg width="151" height="125" viewBox="0 0 151 125" fill="none" xmlns="http://www.w3.org/2000/svg">
<path d="M73.9872 4.29506C73.6021 4.35013 72.3644 4.54286 71.2367 4.70806C67.3311 5.25872 62.9303 6.96577 59.4648 9.27854C57.4294 10.6001 53.1937 14.8677 51.901 16.8226C48.628 21.8611 47.0327 27.0924 47.0327 32.8193C47.0327 38.6288 48.683 44.0528 51.956 49.0087C53.2762 51.0462 56.9894 54.9008 58.8597 56.1948C60.4824 57.3237 65.7633 60.0219 66.3409 60.0219C66.5334 60.0219 67.4961 60.2973 68.4863 60.6277C70.054 61.1508 70.9067 61.2334 75.2249 61.2334C79.7906 61.2609 80.3682 61.2058 82.7061 60.5175C86.0342 59.5539 88.207 58.5902 90.9575 56.8281C98.6038 51.8997 103.362 43.7224 103.885 34.5263C104.682 20.1816 94.6156 7.37876 80.4783 4.81819C77.9203 4.37766 74.9773 4.12986 73.9872 4.29506Z" fill="white"/>
<path d="M101.794 57.434C100.859 57.6818 99.1265 58.6179 97.1736 59.912C91.7552 63.5188 86.2543 65.9417 81.276 66.9329C78.8006 67.4285 72.1995 67.4285 69.8616 66.9329C64.5257 65.8316 59.0798 63.5739 55.5592 61.0408C53.1388 59.3063 50.6909 57.9296 49.3707 57.5717C46.1252 56.6906 40.4868 57.9571 36.7186 60.4627C29.815 65.0056 25.0842 75.6058 23.5164 90.0331C22.4438 99.8349 23.1314 106.14 25.7443 110.297C26.652 111.757 29.87 115.364 30.2826 115.364C30.3926 115.364 31.0527 115.721 31.7128 116.162C33.198 117.181 35.2884 117.952 38.0663 118.502C39.9642 118.888 44.4749 118.943 75.5001 118.943C113.099 118.943 112.631 118.97 116.344 117.649C118.435 116.905 121.185 115.116 122.615 113.601C127.484 108.453 128.694 102.533 127.346 90.4461C126.411 81.8283 125.393 77.4781 123.22 72.412C119.287 63.3812 114.061 58.7831 106.223 57.4065C103.472 56.9109 103.692 56.9109 101.794 57.434Z" fill="white"/>
</svg>
