<svg width="641" height="498" viewBox="0 0 641 498" fill="none" xmlns="http://www.w3.org/2000/svg">
<path d="M502.659 494.031H60.833L241.383 65.5239H322.109L502.659 494.031Z" fill="#D0F0E4"/>
<path d="M274.09 33.2824L281.746 25.6299L289.402 33.2824" stroke="#FFCF2D" stroke-width="6" stroke-miterlimit="10"/>
<path d="M281.746 25.6299V0" stroke="#FFCF2D" stroke-width="6" stroke-miterlimit="10"/>
<path d="M281.746 78.8854C288.554 78.8854 294.072 73.3694 294.072 66.565C294.072 59.7607 288.554 54.2446 281.746 54.2446C274.939 54.2446 269.42 59.7607 269.42 66.565C269.42 73.3694 274.939 78.8854 281.746 78.8854Z" fill="#FFCF2D" stroke="white" stroke-width="6" stroke-miterlimit="10"/>
<path d="M322.109 65.5236H241.4L242.476 60.6128C246.018 44.4401 262.528 32.7097 281.763 32.7097C291.381 32.7097 300.322 35.6423 307.283 40.5878C314.262 45.5333 319.262 52.5091 321.033 60.5955L322.109 65.5236Z" stroke="#9A3B82" stroke-width="6" stroke-miterlimit="10" stroke-linecap="round"/>
<path d="M406.134 341.883H397.94V393.594H406.134V341.883Z" fill="#66B0F0"/>
<path d="M554.931 393.594H508.283C506.599 393.594 505.297 392.136 505.505 390.47L511.998 335.688C512.172 334.282 513.37 333.224 514.776 333.224H561.424C563.108 333.224 564.41 334.681 564.201 336.347L557.709 391.13C557.535 392.535 556.337 393.594 554.931 393.594Z" fill="#9A3B82"/>
<path d="M529.515 393.594H492.676C490.419 393.594 488.666 391.615 488.926 389.377L493.648 349.483C493.874 347.592 495.488 346.151 497.398 346.151H535.123L529.515 393.594Z" fill="white" stroke="#FFCF2D" stroke-width="6" stroke-miterlimit="10"/>
<path d="M533.647 393.594H498.492C496.235 393.594 494.481 391.615 494.742 389.377L499.464 349.483C499.689 347.592 501.304 346.151 503.214 346.151H538.82C539.949 346.151 540.834 347.14 540.695 348.268L535.522 391.91C535.417 392.882 534.602 393.594 533.647 393.594Z" fill="white" stroke="#FFCF2D" stroke-width="6" stroke-miterlimit="10"/>
<path d="M420.873 349.657H406.654V393.594H420.873V349.657Z" stroke="#9A3B82" stroke-width="6" stroke-miterlimit="10" stroke-linecap="round"/>
<path d="M435.942 349.657H415.925V393.594H435.942V349.657Z" stroke="#9A3B82" stroke-width="6" stroke-miterlimit="10" stroke-linecap="round"/>
<path d="M460.195 393.594H454.657L434.05 344.833H439.588L460.195 393.594Z" stroke="#9A3B82" stroke-width="6" stroke-miterlimit="10" stroke-linecap="round"/>
<path d="M470.75 393.594H460.438L442.695 352.242H453.007L470.75 393.594Z" stroke="#9A3B82" stroke-width="6" stroke-miterlimit="10" stroke-linecap="round"/>
<path d="M397.419 349.657H383.079V393.594H397.419V349.657Z" stroke="#9A3B82" stroke-width="6" stroke-miterlimit="10" stroke-linecap="round"/>
<path d="M449.778 315.975H383.079V324.547H449.778V315.975Z" stroke="#9A3B82" stroke-width="6" stroke-miterlimit="10" stroke-linecap="round"/>
<path d="M467.573 309.416H383.079V316.322H467.573V309.416Z" fill="#FE5244"/>
<path d="M440.108 299.455H383.079V309.242H440.108V299.455Z" fill="#FFCF2D"/>
<path d="M449.779 291.976H383.08V299.281H449.779V291.976Z" stroke="#9A3B82" stroke-width="6" stroke-miterlimit="10" stroke-linecap="round"/>
<path d="M564.862 272.715L564.81 273.01L556.928 324.547H483.805L491.687 273.01L491.791 272.281C493.041 269.747 500.68 267.786 509.933 267.786C520.054 267.786 528.248 270.129 528.248 273.01C528.248 270.129 536.442 267.786 546.564 267.786C556.338 267.804 564.306 269.973 564.862 272.715Z" fill="white" stroke="#FFCF2D" stroke-width="6" stroke-miterlimit="10"/>
<path d="M520.453 324.565L528.266 273.027" stroke="#FFCF2D" stroke-width="6" stroke-miterlimit="10"/>
<path d="M520.454 324.564C520.454 321.684 512.259 319.341 502.138 319.341C492.017 319.341 483.823 321.684 483.823 324.564H520.454Z" fill="#FFCF2D"/>
<path d="M557.084 324.564C557.084 321.684 548.89 319.341 538.769 319.341C528.648 319.341 520.453 321.684 520.453 324.564H557.084Z" fill="#FFCF2D"/>
<path d="M520.731 323.471C520.627 320.591 528.734 317.971 538.855 317.606C545.174 317.381 551.407 318.266 554.688 319.532L562.5 270.442" stroke="#FFCF2D" stroke-width="6" stroke-miterlimit="10" stroke-linecap="round"/>
<path d="M559.028 255.518H493.37V240.907C493.37 239.467 494.534 238.304 495.974 238.304H556.441C557.882 238.304 559.045 239.467 559.045 240.907V255.518H559.028Z" fill="white" stroke="#9A3B82" stroke-width="6" stroke-miterlimit="10" stroke-linecap="round"/>
<path d="M564.271 237.61H507.693C506.807 237.61 506.113 236.899 506.113 236.031V230.218C506.113 229.333 506.825 228.639 507.693 228.639H564.271C565.156 228.639 565.85 229.35 565.85 230.218V236.031C565.85 236.899 565.139 237.61 564.271 237.61Z" fill="#FFCF2D"/>
<path d="M566.475 223.19H499.36V228.639H566.475V223.19Z" fill="#FE5244"/>
<path d="M565.26 223.19H514.029C513.352 223.19 512.814 222.635 512.814 221.975V217.585C512.814 216.909 513.37 216.371 514.029 216.371H565.26C565.937 216.371 566.475 216.926 566.475 217.585V221.975C566.475 222.635 565.937 223.19 565.26 223.19Z" fill="white" stroke="#9A3B82" stroke-width="6" stroke-miterlimit="10" stroke-linecap="round"/>
<path d="M424.327 201.916H404.623V255.518H424.327V201.916Z" stroke="#9A3B82" stroke-width="6" stroke-miterlimit="10" stroke-linecap="round"/>
<path d="M404.623 201.916H396.672V255.518H404.623V201.916Z" fill="white" stroke="#9A3B82" stroke-width="6" stroke-miterlimit="10" stroke-linecap="round"/>
<path d="M396.672 201.916H383.304V255.518H396.672V201.916Z" fill="white" stroke="#9A3B82" stroke-width="6" stroke-miterlimit="10" stroke-linecap="round"/>
<path d="M444.205 211.599H426.931V255.536H444.205V211.599Z" stroke="#9A3B82" stroke-width="6" stroke-miterlimit="10" stroke-linecap="round"/>
<path d="M428.181 255.518H421.376C420.716 255.518 420.16 254.98 420.16 254.304V212.779C420.16 212.119 420.699 211.564 421.376 211.564H428.181C428.841 211.564 429.396 212.102 429.396 212.779V254.304C429.379 254.98 428.841 255.518 428.181 255.518Z" fill="white" stroke="#9A3B82" stroke-width="6" stroke-miterlimit="10" stroke-linecap="round"/>
<path d="M444.205 211.599V235.684L434.848 211.599H444.205Z" fill="#9A3B82"/>
<path d="M484.204 255.518H456.566C455.958 255.518 455.403 255.137 455.195 254.581L437.244 208.388C436.862 207.417 437.574 206.375 438.615 206.375H466.253C466.861 206.375 467.416 206.757 467.625 207.313L485.576 253.505C485.957 254.477 485.246 255.518 484.204 255.518Z" fill="white" stroke="#FFCF2D" stroke-width="6" stroke-miterlimit="10"/>
<path d="M488.718 255.518H461.08C460.472 255.518 459.916 255.137 459.708 254.581L441.757 208.388C441.375 207.417 442.087 206.375 443.129 206.375H470.767C471.374 206.375 471.93 206.757 472.138 207.313L490.089 253.505C490.471 254.477 489.759 255.518 488.718 255.518Z" fill="white" stroke="#FFCF2D" stroke-width="6" stroke-miterlimit="10"/>
<path d="M537.258 174.759C534.671 175.488 531.928 175.887 529.116 175.887C512.675 175.887 499.36 162.577 499.36 146.144C499.36 132.592 508.439 121.139 520.852 117.564L537.258 174.759Z" stroke="#FFCF2D" stroke-width="6" stroke-miterlimit="10"/>
<path d="M529.115 175.887V186.489" stroke="#FFCF2D" stroke-width="6" stroke-miterlimit="10"/>
<path d="M529.116 171.34C543.038 171.34 554.324 160.06 554.324 146.144C554.324 132.229 543.038 120.948 529.116 120.948C515.194 120.948 503.908 132.229 503.908 146.144C503.908 160.06 515.194 171.34 529.116 171.34Z" fill="white" stroke="#3FB1B5" stroke-width="6" stroke-miterlimit="10"/>
<path d="M539.654 186.42H518.665L529.081 181.197L539.654 186.42Z" fill="white" stroke="#FFCF2D" stroke-width="6" stroke-miterlimit="10"/>
<path d="M566.476 186.489V494.031H556.98V471.646C556.98 466.666 552.935 462.622 547.952 462.622H401.499C396.516 462.622 392.471 466.666 392.471 471.646V494.031H383.079V186.489H566.476Z" stroke="#9A3B82" stroke-width="6" stroke-miterlimit="10" stroke-linecap="round"/>
<path d="M553.299 454.102H395.908C393.912 454.102 392.28 452.488 392.28 450.476V405.202C392.28 403.207 393.895 401.576 395.908 401.576H553.299C555.296 401.576 556.927 403.19 556.927 405.202V450.476C556.927 452.488 555.296 454.102 553.299 454.102Z" stroke="#3FB1B5" stroke-width="6" stroke-miterlimit="10"/>
<path d="M482.902 144.253V186.489H468.111L482.902 144.253Z" fill="#9A3B82"/>
<path d="M482.902 144.253L482.798 144.565L468.198 186.489H400.318L414.918 144.565L415.387 143.229C417.574 140.088 423.633 137.798 430.855 137.676C430.977 137.676 431.081 137.676 431.202 137.676C431.324 137.676 431.428 137.676 431.549 137.676C439.987 137.676 447.504 140.609 448.875 144.461C450.229 140.609 457.417 137.676 465.854 137.676C474.118 137.676 481.357 140.505 482.902 144.253Z" fill="white" stroke="#FFCF2D" stroke-width="6" stroke-miterlimit="10"/>
<path d="M448.858 144.461L434.119 185.622" stroke="#FFCF2D" stroke-width="6" stroke-miterlimit="10" stroke-linecap="round"/>
<path d="M434.084 185.969H400.318C401.568 182.064 408.581 179.062 417.019 179.062C425.491 179.062 432.834 182.064 434.084 185.969Z" fill="#FFCF2D"/>
<path d="M468.111 185.969H434.344C435.594 182.064 442.608 179.062 451.045 179.062C459.517 179.062 466.861 182.064 468.111 185.969Z" fill="#FFCF2D"/>
<path d="M463.302 414.989C463.302 413.636 464.396 412.525 465.767 412.525H484.187C485.541 412.525 486.652 413.619 486.652 414.989" stroke="#9A3B82" stroke-width="6" stroke-miterlimit="10" stroke-linecap="round"/>
<path d="M383.079 324.564H566.476" stroke="#9A3B82" stroke-width="6" stroke-miterlimit="10" stroke-linecap="round"/>
<path d="M383.079 255.518H566.476" stroke="#9A3B82" stroke-width="6" stroke-miterlimit="10" stroke-linecap="round"/>
<path d="M383.079 393.593H566.476" stroke="#9A3B82" stroke-width="6" stroke-miterlimit="10" stroke-linecap="round"/>
<path d="M405.648 122.007L383.079 186.489H566.476L589.045 122.007" stroke="#9A3B82" stroke-width="6" stroke-miterlimit="10" stroke-linecap="round" stroke-linejoin="round"/>
<path d="M609.634 477.476C609.634 480.964 608.992 484.313 607.811 487.419C606.093 491.931 601.735 494.881 596.892 494.881H560.139C555.313 494.881 550.938 491.931 549.237 487.419C548.056 484.313 547.414 480.964 547.414 477.476C547.414 467.412 552.744 458.527 560.886 453.217V447.352C560.886 449.92 568.785 452.002 578.507 452.002C588.246 452.002 596.128 449.92 596.128 447.352V453.234C604.305 458.527 609.634 467.412 609.634 477.476Z" fill="#FE5244"/>
<path d="M596.162 451.621V453.183C593.367 455.404 585.763 456.584 578.541 456.584C571.319 456.584 563.715 455.404 560.92 453.183V451.621C561.25 452.367 562.656 453.339 565.781 454.154C569.184 455.057 573.715 455.543 578.541 455.543C583.367 455.543 587.898 455.057 591.301 454.154C594.426 453.321 595.815 452.35 596.162 451.621Z" fill="white"/>
<path d="M596.162 447.352C596.162 449.92 588.263 452.002 578.541 452.002C568.819 452.002 560.92 449.92 560.92 447.352C560.92 447.022 561.042 446.71 561.285 446.398C562.951 444.298 570.034 442.701 578.541 442.701C587.048 442.701 594.131 444.281 595.797 446.398C596.023 446.71 596.162 447.022 596.162 447.352Z" fill="#66B0F0"/>
<path d="M554.949 470.101C556.176 470.101 557.171 469.107 557.171 467.88C557.171 466.653 556.176 465.659 554.949 465.659C553.721 465.659 552.727 466.653 552.727 467.88C552.727 469.107 553.721 470.101 554.949 470.101Z" stroke="#FFCF2D" stroke-width="6" stroke-miterlimit="10"/>
<path d="M562.483 475.567C563.71 475.567 564.705 474.573 564.705 473.346C564.705 472.119 563.71 471.125 562.483 471.125C561.256 471.125 560.261 472.119 560.261 473.346C560.261 474.573 561.256 475.567 562.483 475.567Z" stroke="#FFCF2D" stroke-width="6" stroke-miterlimit="10"/>
<path d="M571.858 469.078C573.085 469.078 574.08 468.083 574.08 466.856C574.08 465.63 573.085 464.635 571.858 464.635C570.631 464.635 569.636 465.63 569.636 466.856C569.636 468.083 570.631 469.078 571.858 469.078Z" stroke="#FFCF2D" stroke-width="6" stroke-miterlimit="10"/>
<path d="M570.538 483.827C571.765 483.827 572.76 482.833 572.76 481.606C572.76 480.379 571.765 479.385 570.538 479.385C569.311 479.385 568.316 480.379 568.316 481.606C568.316 482.833 569.311 483.827 570.538 483.827Z" stroke="#FFCF2D" stroke-width="6" stroke-miterlimit="10"/>
<path d="M562.205 490.3C563.432 490.3 564.427 489.305 564.427 488.079C564.427 486.852 563.432 485.857 562.205 485.857C560.978 485.857 559.983 486.852 559.983 488.079C559.983 489.305 560.978 490.3 562.205 490.3Z" stroke="#FFCF2D" stroke-width="6" stroke-miterlimit="10"/>
<path d="M553.803 483.827C555.03 483.827 556.025 482.833 556.025 481.606C556.025 480.379 555.03 479.385 553.803 479.385C552.575 479.385 551.581 480.379 551.581 481.606C551.581 482.833 552.575 483.827 553.803 483.827Z" stroke="#FFCF2D" stroke-width="6" stroke-miterlimit="10"/>
<path d="M563.698 461.859C564.926 461.859 565.921 460.864 565.921 459.638C565.921 458.411 564.926 457.417 563.698 457.417C562.471 457.417 561.476 458.411 561.476 459.638C561.476 460.864 562.471 461.859 563.698 461.859Z" stroke="#FFCF2D" stroke-width="6" stroke-miterlimit="10"/>
<path d="M581.389 463.542C582.616 463.542 583.611 462.548 583.611 461.321C583.611 460.094 582.616 459.1 581.389 459.1C580.161 459.1 579.167 460.094 579.167 461.321C579.167 462.548 580.161 463.542 581.389 463.542Z" stroke="#FFCF2D" stroke-width="6" stroke-miterlimit="10"/>
<path d="M579.531 477.008C580.758 477.008 581.753 476.014 581.753 474.787C581.753 473.56 580.758 472.566 579.531 472.566C578.303 472.566 577.309 473.56 577.309 474.787C577.309 476.014 578.303 477.008 579.531 477.008Z" stroke="#FFCF2D" stroke-width="6" stroke-miterlimit="10"/>
<path d="M585.954 485.858C587.182 485.858 588.176 484.863 588.176 483.636C588.176 482.41 587.182 481.415 585.954 481.415C584.727 481.415 583.732 482.41 583.732 483.636C583.732 484.863 584.727 485.858 585.954 485.858Z" stroke="#FFCF2D" stroke-width="6" stroke-miterlimit="10"/>
<path d="M577.621 492.521C578.848 492.521 579.843 491.526 579.843 490.3C579.843 489.073 578.848 488.079 577.621 488.079C576.394 488.079 575.399 489.073 575.399 490.3C575.399 491.526 576.394 492.521 577.621 492.521Z" stroke="#FFCF2D" stroke-width="6" stroke-miterlimit="10"/>
<path d="M588.333 471.698C589.56 471.698 590.555 470.703 590.555 469.477C590.555 468.25 589.56 467.255 588.333 467.255C587.106 467.255 586.111 468.25 586.111 469.477C586.111 470.703 587.106 471.698 588.333 471.698Z" stroke="#FFCF2D" stroke-width="6" stroke-miterlimit="10"/>
<path d="M594.774 462.588C596.001 462.588 596.996 461.593 596.996 460.366C596.996 459.14 596.001 458.145 594.774 458.145C593.546 458.145 592.552 459.14 592.552 460.366C592.552 461.593 593.546 462.588 594.774 462.588Z" stroke="#FFCF2D" stroke-width="6" stroke-miterlimit="10"/>
<path d="M602.1 469.962C603.327 469.962 604.322 468.968 604.322 467.741C604.322 466.514 603.327 465.52 602.1 465.52C600.872 465.52 599.877 466.514 599.877 467.741C599.877 468.968 600.872 469.962 602.1 469.962Z" stroke="#FFCF2D" stroke-width="6" stroke-miterlimit="10"/>
<path d="M593.714 477.233C594.942 477.233 595.937 476.239 595.937 475.012C595.937 473.785 594.942 472.791 593.714 472.791C592.487 472.791 591.492 473.785 591.492 475.012C591.492 476.239 592.487 477.233 593.714 477.233Z" stroke="#FFCF2D" stroke-width="6" stroke-miterlimit="10"/>
<path d="M603.749 481.884C604.976 481.884 605.971 480.889 605.971 479.663C605.971 478.436 604.976 477.441 603.749 477.441C602.521 477.441 601.527 478.436 601.527 479.663C601.527 480.889 602.521 481.884 603.749 481.884Z" stroke="#FFCF2D" stroke-width="6" stroke-miterlimit="10"/>
<path d="M596.996 490.422C598.223 490.422 599.218 489.427 599.218 488.2C599.218 486.974 598.223 485.979 596.996 485.979C595.769 485.979 594.774 486.974 594.774 488.2C594.774 489.427 595.769 490.422 596.996 490.422Z" stroke="#FFCF2D" stroke-width="6" stroke-miterlimit="10"/>
<path d="M617.464 420.316C617.464 420.316 633.957 411.415 636.683 426.963C639.842 444.923 618.384 460.731 618.384 460.731C618.384 460.731 613.766 449.295 601.388 439.439C590.677 430.919 599.565 408.326 617.464 420.316Z" fill="white" stroke="#FFCF2D" stroke-width="6" stroke-miterlimit="10"/>
<path d="M585.086 400.517C592.916 400.587 604.166 384.692 593.541 367.252C580.711 346.186 578.507 333.987 578.507 333.987C578.507 333.987 559.636 358.94 562.847 378.08C566.372 399.042 585.086 400.517 585.086 400.517Z" fill="#FFCF2D"/>
<path d="M586.441 389.932C597.882 392.951 608.749 385.993 608.975 370.133C609.374 342.091 614.687 332.963 614.687 332.963C614.687 332.963 579.045 345.787 573.646 365.708C568.508 384.691 586.441 389.932 586.441 389.932Z" fill="white" stroke="#FFCF2D" stroke-width="6" stroke-miterlimit="10"/>
<path d="M538.63 408.395C538.213 408.43 537.779 408.465 537.31 408.499C512.693 410.339 505.61 432.862 505.61 432.862C505.61 432.862 504.1 431.231 504.412 425.592C505.002 411.05 518.387 396.023 533.665 405.567C535.366 406.643 537.033 407.562 538.63 408.395Z" fill="#FFCF2D"/>
<path d="M566.546 413.931C562.206 414.209 552.293 415.406 538.63 408.395C537.033 407.58 535.366 406.643 533.665 405.567C518.388 396.023 505.35 411.05 504.759 425.592C504.725 426.303 504.898 427.015 504.933 427.709C503.492 415.076 503.527 383.633 541.772 384.692C568.056 385.455 566.546 413.931 566.546 413.931Z" fill="white" stroke="#FFCF2D" stroke-width="6" stroke-miterlimit="10"/>
<path d="M572.796 446.432C572.796 446.432 577.327 383.32 516.096 391.563" stroke="#FFCF2D" stroke-width="6" stroke-miterlimit="10"/>
<path d="M614.686 332.963C576.111 372.354 583.298 446.432 583.298 446.432C579.236 418.095 604.166 389.932 617.447 419.57C621.405 428.385 618.367 460.714 618.367 460.714" stroke="#FFCF2D" stroke-width="6" stroke-miterlimit="10"/>
<path d="M43.1079 396.821L37.9344 401.35C37.1011 400.361 36.3546 399.268 35.7123 398.07L3.45636 337.995C2.10224 335.479 3.9251 332.443 6.77223 332.443H11.286C14.897 332.443 18.1955 334.421 19.8968 337.596L45.2606 384.83C47.448 388.856 46.5453 393.836 43.1079 396.821Z" fill="#FFCF2D"/>
<path d="M130.917 398.14L55.8677 413.549V411.987C55.8677 404.508 61.1279 398.071 68.4541 396.561L116.803 386.635C124.095 385.143 130.917 390.713 130.917 398.14Z" fill="#FFCF2D"/>
<path d="M122.411 494.031V418.876C122.411 412.647 116.699 407.996 110.588 409.245L63.4545 418.911C57.8471 420.056 53.2292 423.978 51.1806 429.323L26.303 494.031" stroke="#9A3B82" stroke-width="6" stroke-miterlimit="10" stroke-linecap="round"/>
<path d="M3.26514 337.666L39.9133 405.914C43.0555 411.762 49.6525 414.851 56.1627 413.514L131.091 398.14" stroke="#9A3B82" stroke-width="6" stroke-miterlimit="10" stroke-linecap="round"/>
<path d="M157.532 342.403H94.1135V350.871H157.532V342.403Z" fill="#66B0F0"/>
<path d="M145.969 333.206C146.733 333.918 147.202 335.202 147.202 336.278C147.202 338.429 145.327 340.633 143.001 340.633H85.1553C85.1553 341.64 85.9712 342.455 86.9781 342.455H156.785C158.66 342.455 160.344 341.761 161.576 340.616C162.809 339.488 163.556 337.909 163.556 336.174C163.556 332.703 160.517 329.909 156.785 329.909H86.9781C85.9712 329.909 85.1553 330.725 85.1553 331.731V332.061H143.001C144.164 332.078 145.205 332.512 145.969 333.206Z" fill="#FE5244"/>
<path d="M89.3394 332.078V340.477H85.1729V341.171H143.209C143.851 341.171 144.476 341.05 145.032 340.824C145.657 340.581 146.213 340.199 146.664 339.748C147.549 338.863 148.105 337.631 148.105 336.277C148.105 333.57 145.9 331.384 143.209 331.384H85.1729V332.078H89.3394Z" fill="#FE5244"/>
<path d="M87.7244 332.078V340.477H143C145.327 340.477 147.202 338.603 147.202 336.277C147.202 335.115 146.733 334.074 145.969 333.31C145.205 332.547 144.164 332.078 143 332.078H87.7244Z" fill="white"/>
<path d="M87.7244 332.078V340.477" stroke="#FE5244" stroke-width="5" stroke-miterlimit="10"/>
<path d="M135.275 338.03V345.041H140.119V338.933C140.119 337.475 141.299 336.295 142.758 336.295H144.91V335.393H137.897C136.473 335.393 135.275 336.573 135.275 338.03Z" fill="#FFCF2D"/>
<path d="M58.5071 358.124C58.5071 354.428 61.5105 351.426 65.2083 351.426H196.975C200.673 351.426 203.676 354.428 203.676 358.124" stroke="#9A3B82" stroke-width="6" stroke-miterlimit="10" stroke-linecap="round"/>
<path d="M203.78 494.031L166.576 364.51C164.927 358.784 159.25 354.793 152.757 354.793H109.408C102.915 354.793 97.2382 358.784 95.5889 364.51L58.4026 494.031" stroke="#9A3B82" stroke-width="6" stroke-miterlimit="10" stroke-linecap="round"/>
<path d="M235.011 471.611V490.491C235.011 492.452 236.591 494.031 238.552 494.031H285.773C285.773 494.031 286.051 485.268 278.864 482.821C266.659 478.674 260.965 471.611 260.965 471.611H235.011Z" fill="white" stroke="#FF7235" stroke-width="6" stroke-miterlimit="10"/>
<path d="M261.277 481.276C263.204 480.738 270.148 476.904 267.77 474.526C266.642 473.398 263.933 474.526 263.933 474.526" stroke="#FF7235" stroke-width="6" stroke-miterlimit="10"/>
<path d="M268.395 483.879C270.322 483.341 276.989 479.055 274.367 476.956C272.388 475.359 269.419 478.448 269.419 478.448" stroke="#FF7235" stroke-width="6" stroke-miterlimit="10"/>
<path d="M262.423 473.138L235.011 481.658V471.611H260.982C260.982 471.611 261.451 472.201 262.423 473.138Z" fill="#FF7235"/>
<path d="M294.21 471.611V490.491C294.21 492.452 295.79 494.031 297.752 494.031H344.973C344.973 494.031 345.25 485.268 338.063 482.821C325.859 478.674 320.164 471.611 320.164 471.611H294.21Z" fill="white" stroke="#FF7235" stroke-width="6" stroke-miterlimit="10"/>
<path d="M320.477 481.276C322.404 480.738 329.348 476.904 326.969 474.526C325.841 473.398 323.133 474.526 323.133 474.526" stroke="#FF7235" stroke-width="6" stroke-miterlimit="10"/>
<path d="M327.594 483.879C329.521 483.341 336.188 479.055 333.566 476.956C331.587 475.359 328.619 478.448 328.619 478.448" stroke="#FF7235" stroke-width="6" stroke-miterlimit="10"/>
<path d="M321.623 473.138L294.21 481.658V471.611H320.182C320.182 471.611 320.651 472.201 321.623 473.138Z" fill="#FF7235"/>
<path d="M247.772 283.682L230.671 462.622H266.434L284.402 375.911L291.746 394.392V462.622H328.984V386.114L309.124 283.682H247.772Z" fill="#005BDC"/>
<path d="M266.399 326.664L249.768 462.623" stroke="#9A3B82" stroke-width="6" stroke-miterlimit="10"/>
<path d="M309.714 462.622V386.114L286.381 292.358" stroke="#9A3B82" stroke-width="6" stroke-miterlimit="10"/>
<path d="M291.224 394.392L268.934 329.684C268.17 327.463 266.069 325.97 263.708 325.97" stroke="white" stroke-width="6" stroke-miterlimit="10"/>
<path d="M244.941 313.268L247.771 283.682H309.123L310.877 292.774L244.941 313.268Z" fill="#9A3B82"/>
<path d="M329.053 471.611H291.607C290.2 471.611 289.055 470.466 289.055 469.06V465.173C289.055 463.768 290.2 462.622 291.607 462.622H329.053C330.46 462.622 331.605 463.768 331.605 465.173V469.06C331.588 470.466 330.46 471.611 329.053 471.611Z" fill="#9A3B82"/>
<path d="M267.076 471.611H229.629C228.223 471.611 227.077 470.466 227.077 469.06V465.173C227.077 463.768 228.223 462.622 229.629 462.622H267.076C268.482 462.622 269.628 463.768 269.628 465.173V469.06C269.611 470.466 268.482 471.611 267.076 471.611Z" fill="#9A3B82"/>
<path d="M367.021 288.922L378.756 332.807L320.251 348.442L308.498 304.522C308.134 303.151 307.248 302.075 306.12 301.416C304.991 300.757 303.603 300.531 302.231 300.895C299.505 301.624 297.874 304.435 298.603 307.16L310.356 351.079L309.071 351.426L297.335 307.541C296.398 304.054 298.412 300.479 301.849 299.438C301.919 299.42 301.988 299.403 302.057 299.386L358.861 284.202C362.42 283.265 366.066 285.382 367.021 288.922Z" fill="#66B0F0"/>
<path d="M309.8 304.227L321.536 348.112L320.251 348.459L308.498 304.539C308.133 303.169 307.248 302.093 306.12 301.433C304.991 300.774 303.602 300.548 302.231 300.913C299.505 301.642 297.873 304.453 298.602 307.177L310.355 351.097L309.071 351.444L297.335 307.559C296.398 304.071 298.411 300.496 301.849 299.455C305.338 298.64 308.862 300.739 309.8 304.227Z" fill="#9A3B82"/>
<path d="M308.498 304.522L319.522 345.752L309.627 348.39L298.603 307.16C297.874 304.435 299.488 301.624 302.231 300.895C303.603 300.531 304.991 300.757 306.12 301.416C307.248 302.075 308.134 303.151 308.498 304.522Z" fill="white"/>
<path d="M367.194 312.175L340.581 321.337L319.574 283.682H238.153C224.317 283.682 213.97 270.962 216.8 257.427L225.272 216.752C227.928 204.015 239.16 194.888 252.163 194.888H307.839C321.328 194.888 332.82 204.675 334.956 217.984L343.341 257.583L367.194 312.175Z" fill="#FFCF2D" stroke="white" stroke-width="6" stroke-miterlimit="10"/>
<path d="M233.813 283.248C224.23 281.322 217.112 273.166 216.383 263.552C217.112 263.049 217.928 262.615 218.796 262.303C225.098 259.978 232.303 263.795 234.924 270.823C236.539 275.231 235.983 279.847 233.813 283.248Z" fill="white"/>
<path d="M294.436 170.49V194.905H267.475L273.69 178.663L294.436 170.49Z" fill="#E57281"/>
<path d="M300.633 160.217C300.616 160.217 300.581 160.235 300.564 160.235L292.561 162.352C289.696 163.115 287.491 165.232 286.554 167.904H283.481C281.537 167.904 279.957 169.484 279.957 171.427V171.479C279.957 173.319 281.363 174.828 283.169 174.984C283.151 175.002 283.151 175.002 283.151 175.002C283.151 175.002 281.728 181.769 273.412 179.496C273.412 179.496 273.742 161.692 274.089 156.157C274.384 151.593 298.602 142.951 300.842 146.63C302.821 149.892 300.529 151.419 298.585 152.096C302.022 151.367 308.515 150.396 309.175 153.294C309.939 156.66 303.081 159.575 300.633 160.217Z" fill="#9A3B82"/>
<path d="M302.196 172.694H301.345L301.588 176.858C301.762 179.843 299.366 182.377 296.38 182.377H292.63C289.019 182.377 286.086 179.444 286.086 175.835V175.019H283.499C281.554 175.019 279.975 173.44 279.975 171.496V171.444C279.975 169.501 281.554 167.922 283.499 167.922H286.572C287.509 165.25 289.714 163.115 292.578 162.369L300.582 160.252L303.325 171.236C303.602 171.93 302.943 172.694 302.196 172.694Z" fill="#E57281"/>
<path d="M286.901 176.165C286.537 179.982 290.356 182.707 293.967 182.707" stroke="#9A3B82" stroke-width="5" stroke-miterlimit="10" stroke-linecap="round"/>
<path d="M285.495 172.087C285.495 170.733 284.401 169.64 283.047 169.64" stroke="#9A3B82" stroke-width="5" stroke-miterlimit="10" stroke-linecap="round"/>
<path d="M299.245 169.605C299.599 169.605 299.887 169.007 299.887 168.269C299.887 167.531 299.599 166.933 299.245 166.933C298.89 166.933 298.602 167.531 298.602 168.269C298.602 169.007 298.89 169.605 299.245 169.605Z" fill="#9A3B82"/>
<path d="M296.467 165.458C296.467 165.458 298.602 163.827 301.657 163.827" stroke="#9A3B82" stroke-width="5" stroke-miterlimit="10" stroke-linecap="round"/>
<path d="M288.204 294.805C288.204 294.805 309.471 295.724 316.953 278.667L312.995 271.431L301.172 275.977L288.204 294.805Z" fill="white" stroke="#FF7235" stroke-width="6" stroke-miterlimit="10"/>
<path d="M305.235 190.428C304.211 190.515 303.273 190.966 302.579 191.66C301.815 192.424 301.329 193.482 301.329 194.662V280.159C301.329 288.314 294.714 294.926 286.555 294.926H253.761C244.942 294.926 238.136 287.273 239.074 278.58V278.562L250.879 197.404C251.469 193.395 254.889 190.428 258.952 190.428H305.235Z" fill="#FF7235" stroke="#FF7235" stroke-width="6" stroke-miterlimit="10"/>
<path d="M301.936 190.428C300.911 190.515 299.974 190.966 299.28 191.66C298.637 192.302 298.203 193.135 298.082 194.072C298.064 194.263 298.047 194.454 298.047 194.645L297.353 201.187L289.02 280.142C289.02 288.297 282.405 294.909 274.246 294.909H253.778C244.958 294.909 238.153 287.256 239.091 278.562V278.545L244.42 241.862L250.896 197.387C250.948 197.005 251.035 196.623 251.139 196.241C252.146 192.823 255.305 190.411 258.951 190.411H301.936V190.428Z" fill="white" stroke="#FF7235" stroke-width="6" stroke-miterlimit="10"/>
<path d="M294.627 207.451L291.52 230.756C290.495 235.528 286.78 238.079 281.399 238.946L244.594 244.291L249.959 207.434H294.627V207.451Z" fill="#FFCF2D"/>
<path d="M300.617 190.428H299.697C298.03 190.411 296.572 191.591 296.242 193.239L290.826 228.17C289.801 232.942 285.583 236.361 280.705 236.361H246.834C242.737 236.361 239.682 232.578 240.567 228.569L247.094 198.931C248.188 193.968 252.598 190.428 257.684 190.428H300.617Z" fill="#FF7235" stroke="#FF7235" stroke-width="6" stroke-miterlimit="10"/>
<path d="M272.702 246.078L281.33 193.344C281.503 192.285 282.423 191.487 283.5 191.487C284.854 191.487 285.895 192.702 285.67 194.055L277.042 246.79C276.868 247.848 275.948 248.647 274.872 248.647C273.517 248.647 272.476 247.432 272.702 246.078Z" fill="white" stroke="#FF7235" stroke-width="6" stroke-miterlimit="10"/>
<path d="M253.414 246.078L262.042 193.344C262.216 192.285 263.136 191.487 264.212 191.487C265.566 191.487 266.608 192.702 266.382 194.055L257.754 246.79C257.58 247.848 256.66 248.647 255.584 248.647C254.23 248.647 253.188 247.432 253.414 246.078Z" fill="white" stroke="#FF7235" stroke-width="6" stroke-miterlimit="10"/>
<path d="M309.836 194.923L301.346 194.957V194.662C301.346 193.482 301.815 192.424 302.596 191.66C303.291 190.966 304.211 190.515 305.253 190.428H305.947C308.082 190.602 309.766 192.406 309.836 194.923Z" fill="white" stroke="#FF7235" stroke-width="6" stroke-miterlimit="10"/>
<path d="M364.017 313.268L371.169 331.714C372.315 334.681 370.649 337.978 367.593 338.828L351.882 343.132C350.927 343.392 349.92 343.166 349.174 342.524L347.577 341.136L350.84 340.269C352.281 339.887 353.253 338.551 353.184 337.058L352.819 333.38C352.75 331.731 351.413 330.412 349.764 330.36H349.938C347.941 330.291 345.997 329.059 345.215 327.219L342.716 320.573L364.017 313.268Z" fill="#E57281"/>
<path d="M347.906 341.501L350.476 340.806C351.917 340.425 352.889 339.262 352.819 337.77L352.628 333.744C352.559 332.095 351.222 330.777 349.573 330.725C347.576 330.655 345.806 329.423 345.024 327.584L342.351 321.285" stroke="white" stroke-width="6" stroke-miterlimit="10" stroke-linecap="round"/>
<path d="M356.309 341.466C358.149 340.98 359.399 339.279 359.312 337.371L359.069 332.234" stroke="white" stroke-width="6" stroke-miterlimit="10" stroke-linecap="round"/>
<path d="M362.958 339.748C364.798 339.262 366.048 337.562 365.962 335.653L365.719 330.516" stroke="white" stroke-width="6" stroke-miterlimit="10" stroke-linecap="round"/>
<path d="M303.481 236.361L307.682 258.329C308.394 262.077 309.713 265.704 311.571 269.036L340.563 321.337L367.177 312.175" stroke="white" stroke-width="6" stroke-miterlimit="10"/>
<path d="M321.067 286.18L311.571 269.036C309.973 266.138 308.776 263.049 308.012 259.839C308.914 259.544 309.852 259.336 310.842 259.249C318.341 258.59 324.99 264.889 325.702 273.305C326.119 278.406 324.261 283.109 321.067 286.18Z" fill="white"/>
</svg>
