<svg width="588" height="523" viewBox="0 0 588 523" fill="none" xmlns="http://www.w3.org/2000/svg">
<path d="M318.295 16.4336H324.847C349.606 16.4396 373.349 26.2792 390.854 43.7885C408.359 61.2977 418.192 85.0427 418.192 109.801V287.923H224.899V109.801C224.899 97.5378 227.315 85.3943 232.009 74.0646C236.703 62.7348 243.583 52.4408 252.256 43.7704C260.929 35.1 271.225 28.2232 282.556 23.5326C293.888 18.8421 306.032 16.4299 318.295 16.4336Z" fill="#FFB7D5"/>
<path d="M356.64 180.701V290.696H270.87V180.701H356.64ZM358.913 178.428H268.597V292.969H358.913V178.428Z" fill="#CA7358"/>
<path d="M358.913 178.422H268.597V202.101H358.913V178.422Z" fill="#CA7358"/>
<path d="M268.114 121.223V291.247H216.489V121.223H268.114ZM270.387 118.95H214.216V293.52H270.387V118.95Z" fill="#CA7358"/>
<path d="M427.54 86.8047V290.696H359.396V86.8047H427.54ZM429.813 84.5317H357.123V292.969H429.813V84.5317Z" fill="#CA7358"/>
<path d="M386.672 112.342H387.325C389.794 112.342 392.161 113.322 393.907 115.068C395.653 116.813 396.633 119.181 396.633 121.649V142.629H377.358V121.649C377.358 120.427 377.599 119.216 378.067 118.086C378.536 116.956 379.222 115.93 380.087 115.066C380.952 114.201 381.978 113.516 383.108 113.048C384.238 112.581 385.449 112.341 386.672 112.342Z" fill="#CA7358"/>
<path d="M375.159 128.86H398.838" stroke="#FFB7D5" stroke-width="4" stroke-linecap="round" stroke-linejoin="round"/>
<path d="M386.672 166.677H387.325C389.794 166.677 392.161 167.657 393.907 169.403C395.653 171.148 396.633 173.516 396.633 175.985V196.964H377.358V175.985C377.358 174.762 377.599 173.551 378.067 172.421C378.536 171.292 379.222 170.265 380.087 169.401C380.952 168.537 381.978 167.851 383.108 167.384C384.238 166.916 385.449 166.676 386.672 166.677Z" fill="#F5EBDD"/>
<path d="M375.159 183.196H398.838" stroke="#FFB7D5" stroke-width="4" stroke-linecap="round" stroke-linejoin="round"/>
<path d="M386.672 221.012H387.325C389.794 221.012 392.161 221.993 393.907 223.738C395.653 225.484 396.633 227.851 396.633 230.32V251.3H377.358V230.32C377.358 227.851 378.339 225.484 380.085 223.738C381.83 221.993 384.198 221.012 386.666 221.012H386.672Z" fill="#F5EBDD"/>
<path d="M375.159 237.531H398.838" stroke="#FFB7D5" stroke-width="4" stroke-linecap="round" stroke-linejoin="round"/>
<path d="M386.672 275.347H387.325C389.794 275.347 392.161 276.328 393.907 278.074C395.653 279.819 396.633 282.187 396.633 284.655V303.93H377.358V284.655C377.358 283.432 377.599 282.222 378.067 281.092C378.536 279.962 379.222 278.936 380.087 278.072C380.952 277.207 381.978 276.522 383.108 276.054C384.238 275.587 385.449 275.347 386.672 275.347Z" fill="#30242A"/>
<path d="M429.813 84.5317H357.123V93.6179H429.813V84.5317Z" fill="#CA7358"/>
<path d="M270.387 114.546H214.216V123.633H270.387V114.546Z" fill="#CA7358"/>
<path d="M304.118 223.581H284.843V248.362H304.118V223.581Z" fill="#F5EBDD"/>
<path d="M282.638 234.593H306.323" stroke="#FFB7D5" stroke-width="4" stroke-linecap="round" stroke-linejoin="round"/>
<path d="M294.48 249.464V234.593" stroke="#FFB7D5" stroke-width="4" stroke-linecap="round" stroke-linejoin="round"/>
<path d="M304.118 268.335H284.843V293.117H304.118V268.335Z" fill="#CA7358"/>
<path d="M282.638 279.348H306.323" stroke="#FFB7D5" stroke-width="4" stroke-linecap="round" stroke-linejoin="round"/>
<path d="M294.48 294.219V279.348" stroke="#FFB7D5" stroke-width="4" stroke-linecap="round" stroke-linejoin="round"/>
<path d="M340.462 223.581H321.188V248.362H340.462V223.581Z" fill="#30242A"/>
<path d="M318.988 234.593H342.667" stroke="#FFB7D5" stroke-width="4" stroke-linecap="round" stroke-linejoin="round"/>
<path d="M330.825 249.464V234.593" stroke="#FFB7D5" stroke-width="4" stroke-linecap="round" stroke-linejoin="round"/>
<path d="M340.462 268.335H321.188V293.117H340.462V268.335Z" fill="#F5EBDD"/>
<path d="M318.988 279.348H342.667" stroke="#FFB7D5" stroke-width="4" stroke-linecap="round" stroke-linejoin="round"/>
<path d="M330.825 294.219V279.348" stroke="#FFB7D5" stroke-width="4" stroke-linecap="round" stroke-linejoin="round"/>
<path d="M281.399 83.7078C289.308 83.7078 295.719 77.2966 295.719 69.3881C295.719 61.4795 289.308 55.0684 281.399 55.0684C273.491 55.0684 267.079 61.4795 267.079 69.3881C267.079 77.2966 273.491 83.7078 281.399 83.7078Z" fill="#F5EBDD"/>
<path d="M442.973 288.014H200.118V304.532H442.973V288.014Z" fill="#F5EBDD"/>
<path d="M325.381 0H317.727C257.346 0 208.397 48.9484 208.397 109.33V304.532H434.734V109.33C434.717 48.9484 385.763 0 325.381 0ZM313.289 288.014H224.899V150.34H313.289V288.014ZM313.289 133.821H224.899V109.892C224.9 85.9914 234.066 63.0008 250.51 45.6555C266.953 28.3101 289.422 17.9308 313.289 16.6552V133.821ZM418.192 288.014H329.808V150.34H418.192V288.014ZM418.192 133.821H329.808V16.6552C353.674 17.9309 376.143 28.3104 392.585 45.6559C409.028 63.0014 418.193 85.992 418.192 109.892V133.821Z" fill="#F5EBDD"/>
<path d="M22.0251 522.055C34.1892 522.055 44.0501 512.195 44.0501 500.03C44.0501 487.866 34.1892 478.005 22.0251 478.005C9.86096 478.005 0 487.866 0 500.03C0 512.195 9.86096 522.055 22.0251 522.055Z" fill="#FFB7D5"/>
<path d="M513.231 320.489C513.234 321.097 513.11 321.699 512.867 322.256C511.162 326.137 503.877 326.711 496.632 323.534C490.564 320.881 486.438 316.437 486.262 312.783V361.243H513.248V320.489H513.231Z" fill="#FFBE21"/>
<path d="M502.855 309.493C495.61 306.317 488.336 306.891 486.62 310.772C486.344 311.409 486.221 312.102 486.262 312.795C486.438 316.448 490.564 320.892 496.632 323.546C503.878 326.722 511.151 326.148 512.867 322.267C513.11 321.71 513.234 321.108 513.231 320.5C513.248 316.801 509.071 312.209 502.855 309.493Z" fill="#A15842"/>
<path d="M533.92 336.473C533.744 340.127 529.619 344.571 523.55 347.23C516.299 350.401 509.031 349.833 507.309 345.946C507.069 345.39 506.945 344.79 506.946 344.184V361.231H533.926V336.473H533.92Z" fill="#FFBE21"/>
<path d="M533.562 334.45C531.858 330.569 524.573 329.995 517.322 333.172C511.111 335.894 506.934 340.48 506.946 344.184C506.945 344.79 507.069 345.39 507.31 345.946C509.014 349.833 516.299 350.401 523.55 347.23C529.619 344.571 533.744 340.127 533.92 336.473C533.961 335.78 533.838 335.087 533.562 334.45Z" fill="#A15842"/>
<path d="M507.736 361.254V344.735" stroke="#A15842" stroke-width="4" stroke-miterlimit="10" stroke-linecap="round"/>
<path d="M499.752 305.907V315.272" stroke="#30242A" stroke-width="4" stroke-linecap="round" stroke-linejoin="round"/>
<path d="M520.436 329.592V339.502" stroke="#30242A" stroke-width="4" stroke-linecap="round" stroke-linejoin="round"/>
<path d="M384.211 522.215C383.522 522.215 382.843 522.052 382.23 521.739C381.616 521.426 381.086 520.972 380.682 520.414C380.278 519.856 380.012 519.21 379.907 518.529C379.801 517.848 379.859 517.152 380.074 516.498L393.712 474.937C394 474.066 394.555 473.307 395.299 472.77C396.043 472.232 396.937 471.943 397.855 471.942H407.413C408.172 471.942 408.918 472.14 409.577 472.517C410.236 472.894 410.785 473.437 411.169 474.092C411.554 474.747 411.76 475.491 411.768 476.25C411.776 477.01 411.585 477.758 411.214 478.42L387.996 519.982C387.62 520.656 387.072 521.219 386.406 521.612C385.741 522.004 384.984 522.212 384.211 522.215Z" fill="#30242A"/>
<path d="M566.912 522.215C567.601 522.215 568.28 522.052 568.894 521.739C569.507 521.426 570.038 520.972 570.442 520.414C570.846 519.856 571.111 519.21 571.217 518.529C571.322 517.848 571.265 517.152 571.049 516.498L557.411 474.937C557.124 474.067 556.569 473.309 555.827 472.771C555.084 472.234 554.191 471.944 553.275 471.942H543.711C542.952 471.944 542.207 472.143 541.549 472.52C540.891 472.898 540.343 473.441 539.959 474.095C539.575 474.749 539.368 475.492 539.36 476.251C539.351 477.01 539.54 477.757 539.909 478.42L563.128 519.982C563.504 520.656 564.053 521.218 564.718 521.61C565.383 522.002 566.14 522.211 566.912 522.215Z" fill="#30242A"/>
<path d="M588 361.254H363.868V489.563H588V361.254Z" fill="#A15842"/>
<path d="M571.476 377.773H380.387V473.045H571.476V377.773Z" fill="#FFB7D5"/>
<path d="M475.727 376.125V474.698" stroke="#A15842" stroke-width="4" stroke-miterlimit="10"/>
<path d="M498.246 431.182C501.435 431.182 504.02 428.597 504.02 425.409C504.02 422.22 501.435 419.635 498.246 419.635C495.058 419.635 492.473 422.22 492.473 425.409C492.473 428.597 495.058 431.182 498.246 431.182Z" fill="#30242A"/>
<path d="M453.616 431.182C456.805 431.182 459.39 428.597 459.39 425.409C459.39 422.22 456.805 419.635 453.616 419.635C450.428 419.635 447.843 422.22 447.843 425.409C447.843 428.597 450.428 431.182 453.616 431.182Z" fill="#30242A"/>
<path d="M88.6003 468.8V478.159H169.552V468.8H88.6003Z" fill="#A15842"/>
<path d="M182.889 517.373L162.836 397.048H175.098C176.412 397.048 177.673 396.526 178.602 395.597C179.531 394.667 180.053 393.407 180.053 392.093C180.053 390.779 179.531 389.518 178.602 388.589C177.673 387.66 176.412 387.138 175.098 387.138H83.151C81.8368 387.138 80.5765 387.66 79.6472 388.589C78.718 389.518 78.1959 390.779 78.1959 392.093C78.1959 393.407 78.718 394.667 79.6472 395.597C80.5765 396.526 81.8368 397.048 83.151 397.048H95.3171L75.2638 517.373C75.1648 517.969 75.1967 518.579 75.3573 519.161C75.5179 519.743 75.8033 520.283 76.1937 520.744C76.5841 521.205 77.0702 521.575 77.6181 521.829C78.166 522.083 78.7626 522.214 79.3665 522.215C80.3158 522.215 81.2367 521.891 81.9759 521.295C82.7152 520.7 83.2281 519.869 83.4294 518.941L110 397.048H148.152L174.718 518.941C174.921 519.869 175.435 520.699 176.175 521.295C176.915 521.89 177.836 522.215 178.786 522.215C179.39 522.214 179.987 522.083 180.535 521.829C181.082 521.575 181.569 521.205 181.959 520.744C182.349 520.283 182.635 519.743 182.795 519.161C182.956 518.579 182.988 517.969 182.889 517.373Z" fill="#FFBE21"/>
<path d="M175.098 397.048C176.412 397.048 177.673 396.526 178.602 395.597C179.531 394.667 180.053 393.407 180.053 392.093C180.053 390.779 179.531 389.518 178.602 388.589C177.673 387.66 176.412 387.138 175.098 387.138H83.1509C81.8367 387.138 80.5764 387.66 79.6471 388.589C78.7178 389.518 78.1958 390.779 78.1958 392.093C78.1958 393.407 78.7178 394.667 79.6471 395.597C80.5764 396.526 81.8367 397.048 83.1509 397.048H95.3169V397.201H109.989L110.023 397.048H148.175L148.209 397.201H162.881V397.048H175.098Z" fill="#A15842"/>
<path d="M180.548 468.641H239.077C239.804 456.213 242.401 439.729 244.554 417.459C246.469 397.713 248.117 381.137 248.009 367.454C247.827 344.645 189.48 372.25 189.48 372.25C189.48 377.233 190.486 382.018 190.515 386.655C190.583 398.701 184.48 408.952 180.121 423.482C173.513 445.513 179.019 468.641 179.019 468.641H180.548Z" fill="#005BDC"/>
<path d="M242.196 515.998H190.958C190.246 516.225 189.64 516.698 189.247 517.332C188.853 517.967 188.7 518.721 188.814 519.459C188.928 520.196 189.301 520.869 189.867 521.356C190.433 521.842 191.155 522.111 191.901 522.112L267.301 522.215C267.966 514.884 263.801 509.367 252.049 501.19C245.344 507.003 242.196 515.998 242.196 515.998Z" fill="#3EC1F3"/>
<path d="M249.407 499.411C246.973 497.838 244.871 495.803 243.219 493.422C239.241 487.586 238.4 479.727 239.054 468.641H188.333C188.431 476.929 189.028 485.205 190.122 493.422C191.418 502.724 193.168 509.122 194.572 515.85H191.907C191.585 515.85 191.265 515.9 190.958 515.998H242.196C242.196 515.998 245.344 507.003 252.05 501.224C251.209 500.629 250.328 500.025 249.407 499.411Z" fill="#A15842"/>
<path d="M239.668 458.685C236.531 452.441 234.393 445.743 233.332 438.836C229.621 413.055 231.82 399.838 221.359 388.263H190.748" stroke="#30242A" stroke-width="4" stroke-linecap="round" stroke-linejoin="round"/>
<path d="M258.755 470.84L258.812 470.976L303.998 449.815C300.481 439.291 296.804 425.29 290.764 406.964C285.104 389.814 281.359 377 277.814 367.085C272.855 370.657 266.74 372.246 260.669 371.541C254.598 370.835 249.011 367.886 245.003 363.273C240.995 358.659 238.856 352.714 239.007 346.604C239.157 340.495 241.586 334.662 245.816 330.251C221.694 319.352 136.02 312.244 136.02 312.244L87.5548 305.084C84.9977 309.311 82.8213 316.011 81.6394 323.836H98.573V341.946C98.564 345.607 97.1038 349.116 94.5123 351.704C91.9209 354.291 88.4095 355.745 84.7477 355.748H83.7817C83.5544 355.748 83.3271 355.748 83.1055 355.748C87.731 372.795 99.6299 387.155 123.917 387.155H221.938C232.4 398.719 230.201 411.936 233.911 437.729C236.946 458.827 251.328 474.38 251.328 474.38L258.755 470.84Z" fill="#005BDC"/>
<path d="M327.592 495.075L282.587 515.487C281.825 516.019 281.291 516.819 281.091 517.727C280.891 518.635 281.04 519.585 281.507 520.388C281.975 521.191 282.728 521.79 283.617 522.064C284.505 522.338 285.464 522.268 286.303 521.868L354.594 490.046C351.918 482.659 345.037 479.818 328.734 476.977L328.035 476.846C326.684 482.834 326.533 489.029 327.592 495.075Z" fill="#3EC1F3"/>
<path d="M328.035 476.823C323.341 475.925 319.659 474.363 316.619 471.999C311.016 467.635 307.584 460.532 303.998 449.837L258.812 470.999C262.641 479.801 268.017 489.057 273.137 497.138C277.609 504.173 281.876 510.304 284.746 514.412L283.115 515.202C282.93 515.293 282.753 515.399 282.587 515.521L327.592 495.109C326.526 489.045 326.676 482.829 328.035 476.823Z" fill="#A15842"/>
<path d="M263.505 371.716C268.644 371.719 273.651 370.098 277.813 367.084C270.762 347.264 264.647 339.008 246.157 330.404L245.816 330.251C242.492 333.717 240.26 338.083 239.397 342.808C238.535 347.532 239.08 352.405 240.964 356.822C242.849 361.239 245.991 365.005 249.998 367.65C254.006 370.296 258.703 371.706 263.505 371.704V371.716Z" fill="#3EC1F3"/>
<path d="M84.7477 355.748C88.4165 355.748 91.935 354.291 94.5298 351.697C97.1245 349.104 98.5829 345.586 98.5844 341.917V323.807H81.6508C80.1563 333.632 80.2416 345.19 83.1055 355.731C83.3271 355.731 83.5544 355.731 83.7817 355.731L84.7477 355.748Z" fill="#3EC1F3"/>
<path d="M221.103 388.513H237.622" stroke="#30242A" stroke-width="4" stroke-linecap="round" stroke-linejoin="round"/>
<path d="M292.156 213.392C292.156 213.392 262.42 179.252 227.285 166.87" stroke="#30242A" stroke-width="4" stroke-linecap="round" stroke-linejoin="round"/>
<path d="M198.885 180.207C197.805 177.598 201.408 173.507 207.408 170.052C199.282 168.029 193.509 164.262 194.089 161.097C194.668 157.931 201.396 156.443 209.715 157.42C205.34 152.079 203.413 146.976 205.346 144.919C207.806 142.288 215.614 145.606 222.779 152.306C229.03 158.159 232.723 164.671 231.939 167.984C231.502 171.359 225.745 176.144 217.835 179.417C208.738 183.19 200.265 183.542 198.885 180.207Z" fill="#005BDC"/>
<path d="M232.235 178.587C237.966 178.587 242.611 173.942 242.611 168.211C242.611 162.48 237.966 157.835 232.235 157.835C226.504 157.835 221.859 162.48 221.859 168.211C221.859 173.942 226.504 178.587 232.235 178.587Z" fill="#30242A"/>
<path d="M254.097 181.575C256.948 180.516 255.652 169.944 251.203 157.961C246.753 145.978 240.836 137.122 237.985 138.18C235.134 139.239 236.43 149.811 240.879 161.794C245.328 173.777 251.246 182.633 254.097 181.575Z" fill="#30242A"/>
<path d="M253.589 183.656C253.589 183.656 257.999 195.771 255.794 208.437" stroke="#30242A" stroke-width="4" stroke-linecap="round" stroke-linejoin="round"/>
<path d="M173.177 135.401C163.779 145.976 153.789 148.311 153.789 148.311C147.328 141.265 135.605 141.265 133.815 151.249C131.866 162.313 145.549 165.359 145.549 165.359C145.549 165.359 148.999 179.633 143.708 186.685C139.037 192.935 133.037 193.964 120.74 195.339C136.764 222.416 153.13 220.279 158.579 220.279C171.649 220.279 175.331 205.113 176.36 197.294C173.384 196.256 170.347 195.4 167.268 194.731L165.506 184.162C165.506 184.162 173.729 187.094 180.78 182.985C187.832 178.877 189.594 171.234 187.241 159.489C185.849 152.528 185.9 143.919 184.707 136.225C180.053 137.015 173.177 135.401 173.177 135.401Z" fill="#A15842"/>
<path d="M270.938 194.396C268.443 184.412 248.913 178.996 248.913 178.996C248.913 178.996 250.084 156.585 245.055 155.869C241.202 155.301 237.344 164.682 234.042 182.855C230.348 203.164 232.388 240.673 232.388 240.673C232.388 240.673 228.303 236.963 222.507 231.797C221.928 232.968 221.039 233.958 219.937 234.659C218.835 235.36 217.562 235.746 216.256 235.775C217.08 236.82 217.597 238.074 217.747 239.396C217.897 240.718 217.675 242.055 217.107 243.258C216.538 244.461 215.645 245.482 214.528 246.204C213.411 246.927 212.114 247.324 210.784 247.35C211.608 248.395 212.124 249.649 212.275 250.971C212.425 252.293 212.203 253.63 211.635 254.833C211.066 256.036 210.173 257.057 209.056 257.78C207.939 258.502 206.642 258.899 205.312 258.925C206.177 260.022 206.701 261.348 206.821 262.739C206.941 264.131 206.65 265.527 205.985 266.755C205.32 267.983 204.31 268.99 203.08 269.65C201.849 270.311 200.452 270.597 199.061 270.472C211.125 278.325 227.524 287.485 238.452 287.485C295.719 287.462 272.592 201.004 270.938 194.396Z" fill="#A15842"/>
<path d="M206.141 266.386C206.709 265.183 206.931 263.846 206.781 262.524C206.632 261.202 206.117 259.948 205.294 258.902C206.625 258.876 207.921 258.48 209.038 257.757C210.156 257.034 211.049 256.013 211.617 254.811C212.186 253.608 212.408 252.27 212.257 250.948C212.107 249.626 211.591 248.372 210.767 247.327C212.097 247.301 213.394 246.905 214.511 246.182C215.628 245.459 216.521 244.438 217.09 243.235C217.658 242.033 217.88 240.695 217.73 239.373C217.579 238.051 217.063 236.797 216.239 235.752C217.545 235.724 218.818 235.338 219.92 234.636C221.022 233.935 221.91 232.945 222.489 231.775C212.5 222.876 197.436 209.681 189.418 203.755C185.537 200.885 180.593 198.76 176.348 197.294C175.348 205.135 171.689 220.279 158.619 220.279C153.192 220.279 136.804 222.416 120.78 195.339L115.632 195.907C97.9024 197.879 89.8333 207.42 85.0828 218.819C82.145 225.871 79.7925 238.792 79.7925 238.792C77.9698 250.639 77.0315 262.605 76.9854 274.592L100.039 295.929L161.932 297.458C166.887 290.15 175.979 276.654 178.979 271.478C182.832 264.869 183.383 259.363 183.383 259.363C183.383 259.363 189.997 264.534 199.061 270.438C200.513 270.565 201.97 270.245 203.236 269.521C204.501 268.797 205.515 267.703 206.141 266.386Z" fill="#FFBE21"/>
<path d="M179.644 122.473C172.598 113.666 153.21 107.79 137.935 118.95C122.661 130.111 123.837 148.323 124.422 155.375C124.422 155.375 107.978 150.084 96.2263 162.421C92.8253 165.948 90.3486 170.26 89.0162 174.975C87.6838 179.69 87.5371 184.661 88.5891 189.446C88.5891 189.446 66.9504 188.838 62.7397 208.835C60.3474 220.2 64.8138 227.763 69.7689 232.445C72.6751 235.172 76.0701 237.326 79.7756 238.793C79.7756 238.793 82.1282 225.871 85.066 218.819C89.8165 207.42 97.8855 197.879 115.615 195.907L120.763 195.339C133.06 193.964 139.06 192.918 143.731 186.685C149.016 179.633 145.55 165.359 145.55 165.359C145.55 165.359 131.849 162.313 133.798 151.261C135.566 141.277 147.311 141.277 153.772 148.323C153.772 148.323 163.762 145.976 173.161 135.401C173.161 135.401 180.036 137.015 184.724 136.225C183.923 130.929 182.514 126.07 179.644 122.473Z" fill="#30242A"/>
<path d="M272.16 202.243C270.495 201.476 269.5 199.544 269.785 195.851C269.785 195.851 266.341 200.169 262.676 198.249C259.011 196.328 260.477 192.191 260.477 192.191C260.477 192.191 257.17 194.396 254.419 191.623C251.925 189.128 253.851 185.014 253.851 185.014C253.851 185.014 250.192 186.509 248.896 183.912C247.265 180.661 249.248 177.258 251.396 174.649" stroke="#30242A" stroke-width="8" stroke-linecap="round" stroke-linejoin="round"/>
<path d="M87.5435 189.924C88.1661 192.868 89.2885 195.683 90.862 198.248" stroke="black" stroke-width="4" stroke-miterlimit="10" stroke-linecap="round"/>
<path d="M231.286 241.384L232.667 258.55" stroke="#30242A" stroke-width="4" stroke-linecap="round" stroke-linejoin="round"/>
<path d="M181.451 240.366C185.048 246.844 185.002 254.618 184.536 259.226" stroke="#30242A" stroke-width="4" stroke-linecap="round" stroke-linejoin="round"/>
<path d="M148.959 258.55L131.338 259.101" stroke="#30242A" stroke-width="4" stroke-linecap="round" stroke-linejoin="round"/>
<path d="M165.205 185.247C162.742 184.28 160.34 183.166 158.011 181.911" stroke="#30242A" stroke-width="4" stroke-linecap="round" stroke-linejoin="round"/>
<path d="M169.609 201.556L168.649 195.47" stroke="#30242A" stroke-width="4" stroke-linecap="round" stroke-linejoin="round"/>
<path d="M123.235 155.596L124.457 165.756" stroke="black" stroke-width="4" stroke-miterlimit="10" stroke-linecap="round"/>
<path d="M181.451 167.688C180.207 168.495 176.081 168.762 174.104 165.165" stroke="#30242A" stroke-width="4" stroke-linecap="round" stroke-linejoin="round"/>
<path d="M148.408 156.119L142.902 153.368" stroke="#30242A" stroke-width="4" stroke-linecap="round" stroke-linejoin="round"/>
<path d="M173.831 153.681C172.95 154.88 168.796 157.204 165.671 154.551" stroke="#30242A" stroke-width="4" stroke-linecap="round" stroke-linejoin="round"/>
<path d="M187.213 151.948C186.556 152.088 185.877 152.096 185.216 151.974C184.555 151.851 183.924 151.599 183.361 151.232" stroke="#30242A" stroke-width="4" stroke-linecap="round" stroke-linejoin="round"/>
<path d="M179.764 153.994C180.394 155.42 181.002 156.994 180.872 157.596C180.678 158.329 180.241 158.974 179.633 159.426" stroke="#30242A" stroke-width="4" stroke-linecap="round" stroke-linejoin="round"/>
<path d="M145.391 162.773L137.873 169.865C137.466 170.248 137.164 170.73 136.996 171.264C136.828 171.797 136.8 172.365 136.914 172.913C137.028 173.461 137.28 173.97 137.647 174.392C138.014 174.815 138.483 175.136 139.009 175.325L147.897 178.479C148.425 178.666 148.992 178.714 149.544 178.619C150.096 178.523 150.615 178.288 151.05 177.935C151.485 177.582 151.822 177.123 152.029 176.603C152.236 176.082 152.306 175.517 152.232 174.962L150.863 164.733C150.783 164.139 150.541 163.578 150.163 163.111C149.786 162.645 149.288 162.291 148.723 162.089C148.158 161.887 147.549 161.843 146.961 161.964C146.373 162.085 145.83 162.365 145.391 162.773Z" fill="#F4E6D8"/>
<path d="M253.317 164.66C253.317 164.66 257.169 162.455 260.477 163.557C265.591 165.262 264.841 170.024 264.841 170.024C264.841 170.024 272.012 167.438 273.404 175.019C273.404 175.019 279.871 176.468 278.416 182.934C278.416 182.934 283.649 183.213 282.61 190.071C281.57 196.93 276.995 202.63 274.245 202.63C271.404 202.63 269.398 200.885 269.784 195.811C269.784 195.811 266.341 200.129 262.676 198.209C259.01 196.288 260.477 192.151 260.477 192.151C260.477 192.151 257.169 194.356 254.419 191.583C251.925 189.088 253.851 184.974 253.851 184.974C253.851 184.974 250.191 186.469 248.896 183.872C246.14 178.366 253.72 172.445 254.953 170.66L253.317 164.66Z" fill="#A15842"/>
<path d="M251.68 186.98C255.465 183.508 261.909 176.956 264.966 170.081" stroke="#30242A" stroke-width="4" stroke-linecap="round" stroke-linejoin="round"/>
<path d="M258.63 194.907C264.919 189.559 270.052 182.985 273.717 175.587" stroke="#30242A" stroke-width="4" stroke-linecap="round" stroke-linejoin="round"/>
<path d="M268.364 198.987C270.068 196.907 276.029 189.435 278.984 183.52" stroke="#30242A" stroke-width="4" stroke-linecap="round" stroke-linejoin="round"/>
<path d="M267.295 325.461H171.922L193.6 256.971C194.241 254.954 195.507 253.194 197.216 251.946C198.924 250.697 200.985 250.025 203.101 250.027H283.695C285.261 250.026 286.805 250.395 288.202 251.102C289.598 251.81 290.809 252.837 291.734 254.101C292.66 255.364 293.274 256.827 293.528 258.372C293.782 259.918 293.668 261.501 293.196 262.994L275.268 319.631C274.729 321.322 273.666 322.799 272.233 323.847C270.8 324.895 269.071 325.46 267.295 325.461Z" fill="#30242A"/>
<path d="M116.569 317.75C116.288 318.637 116.219 319.578 116.37 320.496C116.52 321.415 116.885 322.285 117.435 323.036C117.984 323.787 118.703 324.398 119.533 324.819C120.363 325.241 121.281 325.46 122.212 325.461H267.295C269.069 325.456 270.796 324.888 272.226 323.838C273.656 322.788 274.716 321.311 275.251 319.619L275.819 317.75H116.569Z" fill="#30242A"/>
<path d="M252.686 281.848C250.47 278.814 240.395 286.826 239.656 287.491C239.27 286.826 234.03 278.814 230.183 281.848C226.848 284.479 234.161 296.225 236.133 299.219C236.214 299.31 236.314 299.383 236.426 299.433C236.538 299.483 236.658 299.509 236.781 299.509C236.903 299.509 237.024 299.483 237.136 299.433C237.247 299.383 237.347 299.31 237.429 299.219C241.014 296.196 254.612 284.451 252.686 281.848Z" fill="#FFBE21"/>
<path d="M243.48 279.703C244.281 277.133 244.248 274.836 243.406 274.574C242.564 274.311 241.232 276.183 240.431 278.754C239.631 281.325 239.664 283.621 240.506 283.884C241.348 284.146 242.68 282.274 243.48 279.703Z" fill="#FFBE21"/>
<path d="M61.9214 263.363C63.1594 263.84 64.5054 263.964 65.8097 263.722C67.114 263.479 68.3253 262.879 69.3086 261.988C69.4252 263.315 69.9105 264.583 70.7097 265.648C71.509 266.714 72.5902 267.535 73.8314 268.018C75.0726 268.502 76.4243 268.629 77.7337 268.384C79.0432 268.14 80.2582 267.535 81.2417 266.636C81.3613 267.962 81.8485 269.227 82.6484 270.291C83.4483 271.354 84.5292 272.173 85.7694 272.656C87.0096 273.138 88.3598 273.265 89.6682 273.022C90.9765 272.778 92.1909 272.175 93.1748 271.279C93.2658 272.325 93.5867 273.338 94.1144 274.246C94.6422 275.154 95.3638 275.935 96.2279 276.532C97.0919 277.129 98.0771 277.528 99.1131 277.7C100.149 277.873 101.21 277.814 102.221 277.529L110.813 254.453C114.122 245.595 115.691 236.181 115.433 226.729L114.563 196.043C114.563 196.043 94.7374 197.691 83.1737 212.011C77.2413 219.358 65.598 238.77 58.137 259.874C58.921 261.467 60.2702 262.711 61.9214 263.363Z" fill="#FFBE21"/>
<path d="M97.715 277.302C96.4705 276.823 95.3851 276.004 94.5817 274.94C93.7782 273.875 93.2889 272.607 93.1691 271.279C92.1852 272.175 90.9708 272.779 89.6625 273.022C88.3541 273.265 87.0039 273.138 85.7637 272.656C84.5235 272.173 83.4426 271.354 82.6427 270.291C81.8427 269.227 81.3556 267.962 81.236 266.636C80.2525 267.535 79.0375 268.14 77.728 268.385C76.4186 268.629 75.0669 268.502 73.8257 268.019C72.5845 267.535 71.5032 266.714 70.704 265.648C69.9048 264.583 69.4195 263.315 69.3029 261.988C68.4849 262.733 67.5051 263.278 66.4408 263.58C65.3764 263.882 64.2565 263.933 63.1691 263.728C62.0818 263.524 61.0567 263.07 60.1746 262.402C59.2925 261.734 58.5775 260.871 58.0858 259.88C51.6192 278.172 48.2893 297.742 54.5513 311.829C68.03 342.167 108.483 331.49 118.03 328.683C127.576 325.876 146.124 316.323 158.483 318.011C170.842 319.699 184.883 325.876 187.134 318.011C187.134 318.011 194.697 317.818 192.316 310.624C192.316 310.624 196.118 310.152 196.68 307.345C197.817 301.725 184.321 296.674 184.321 296.674C184.321 296.674 194.998 298.378 197.243 296.105C200.084 293.264 197.322 288.678 179.883 284.451C160.727 279.814 135.446 282.621 97.8059 289.36L102.21 277.524C100.727 277.94 99.1494 277.862 97.715 277.302Z" fill="#A15842"/>
<path d="M110.961 251.39L98.3855 288.099" stroke="#30242A" stroke-width="4" stroke-linecap="round" stroke-linejoin="round"/>
<path d="M187.713 297.077C181.61 294.759 171.45 291.201 163.563 289.917" stroke="#30242A" stroke-width="4" stroke-linecap="round" stroke-linejoin="round"/>
<path d="M192.475 310.328C184.633 306.8 169.654 300.396 161.597 299.191" stroke="#30242A" stroke-width="4" stroke-linecap="round" stroke-linejoin="round"/>
<path d="M97.8968 288.178C93.6691 288.86 87.032 289.991 80.4006 291.315" stroke="#30242A" stroke-width="4" stroke-linecap="round" stroke-linejoin="round"/>
<path d="M186.9 318.784C181.019 315.789 168.626 309.834 159.915 308.175" stroke="#30242A" stroke-width="4" stroke-linecap="round" stroke-linejoin="round"/>
<path d="M450.128 246.276C450.128 246.276 445.661 256.323 433.944 256.323C422.227 256.323 417.738 246.276 417.738 246.276C417.738 246.276 384.78 321.625 417.17 361.254H450.656C483.029 321.625 450.128 246.276 450.128 246.276Z" fill="#3EC1F3"/>
<path d="M433.915 256.323C445.632 256.323 450.099 246.276 450.099 246.276H417.709C417.709 246.276 422.192 256.323 433.915 256.323Z" fill="#30242A"/>
<path d="M464.186 313.357C445.968 313.681 424.409 320.261 407.816 343.474" stroke="#F5EBDD" stroke-width="4" stroke-linecap="round" stroke-linejoin="round"/>
<path d="M404.901 294.918C417.129 291.934 440.285 289.093 462.731 294.435" stroke="#F5EBDD" stroke-width="4" stroke-linecap="round" stroke-linejoin="round"/>
<path d="M462.629 332.7C454.48 332.797 439.416 342.031 441.075 360.641" stroke="#F5EBDD" stroke-width="4" stroke-linecap="round" stroke-linejoin="round"/>
<path d="M431.864 252.981C431.523 244.884 429.369 212.704 416.584 193.827" stroke="#30242A" stroke-width="4" stroke-miterlimit="10" stroke-linecap="round"/>
<path d="M429.2 228.237C430.834 225.467 422.17 217.327 409.847 210.057C397.524 202.787 386.209 199.139 384.575 201.909C382.94 204.68 391.605 212.819 403.928 220.09C416.25 227.36 427.565 231.008 429.2 228.237Z" fill="#30242A"/>
<path d="M424.414 147.931C426.813 146.563 425.58 139.881 421.66 133.005C417.74 126.129 412.617 121.664 410.218 123.032C407.818 124.4 409.052 131.083 412.972 137.958C416.892 144.834 422.015 149.299 424.414 147.931Z" fill="#30242A"/>
<path d="M382.211 177.081C383.501 174.212 389.57 174.001 396.946 176.2C392.4 168.069 391.007 160.506 394.013 158.557C397.019 156.608 403.372 160.92 408.947 168.404C409.93 160.773 412.589 155.335 415.766 155.301C419.778 155.301 423.062 164.148 423.102 175.092C423.126 178.222 422.848 181.347 422.272 184.423C420.523 183.622 418.601 183.27 416.682 183.401C414.762 183.531 412.905 184.139 411.281 185.17C409.656 186.2 408.314 187.62 407.378 189.301C406.441 190.981 405.939 192.869 405.918 194.793C402.976 194.072 400.107 193.079 397.349 191.827C387.331 187.344 380.569 180.746 382.211 177.081Z" fill="#005BDC"/>
<path d="M411.152 185.247C412.782 184.187 414.654 183.557 416.593 183.415C418.532 183.273 420.476 183.624 422.244 184.434C421.266 189.52 419.499 193.293 417.374 194.521C415.351 195.992 411.066 196.049 405.89 194.805C405.911 192.901 406.402 191.033 407.32 189.365C408.239 187.698 409.555 186.283 411.152 185.247Z" fill="#30242A"/>
<path d="M436.126 252.493C437.694 243.549 445.86 199.697 458.93 174.888" stroke="#30242A" stroke-width="4" stroke-miterlimit="10" stroke-linecap="round"/>
<path d="M503.043 235.66C503.983 232.758 491.429 226.091 475.002 220.77C458.576 215.448 444.497 213.487 443.557 216.389C442.617 219.291 455.171 225.957 471.598 231.279C488.024 236.6 502.103 238.562 503.043 235.66Z" fill="#30242A"/>
<path d="M456.469 136.446C459.606 136.162 462.765 141.35 464.464 148.857C469.305 140.901 475.227 135.98 478.403 137.645C481.58 139.31 480.932 146.959 477.142 155.488C484.279 152.607 490.342 152.243 491.916 154.982C493.893 158.471 487.785 165.682 478.278 171.081C475.567 172.635 472.712 173.925 469.754 174.933C469.592 173.018 468.955 171.174 467.9 169.567C466.846 167.96 465.407 166.642 463.714 165.732C462.021 164.822 460.128 164.349 458.206 164.355C456.284 164.361 454.394 164.846 452.707 165.767C451.896 162.848 451.353 159.859 451.088 156.84C450.036 145.942 452.474 136.81 456.469 136.446Z" fill="#005BDC"/>
<path d="M463.555 165.665C465.278 166.567 466.746 167.889 467.822 169.509C468.898 171.13 469.547 172.995 469.709 174.933C464.794 176.576 460.617 176.888 458.526 175.638C456.253 174.598 454.099 170.887 452.645 165.768C454.314 164.852 456.183 164.363 458.087 164.345C459.991 164.327 461.869 164.781 463.555 165.665Z" fill="#30242A"/>
<path d="M490.348 188.469V188.514C487.675 189.616 485.513 191.68 484.287 194.298C483.061 196.915 482.86 199.898 483.725 202.656C484.589 205.415 486.456 207.749 488.957 209.199C491.458 210.649 494.411 211.109 497.235 210.488V210.534C482.262 215.222 468.578 214.085 466.669 207.988C464.76 201.891 475.375 193.157 490.348 188.469Z" fill="#005BDC"/>
<path d="M486.785 207.579C488.098 207.053 489.164 206.05 489.769 204.771C490.374 203.492 490.473 202.032 490.047 200.683C489.621 199.334 488.7 198.196 487.47 197.497C486.241 196.798 484.792 196.589 483.415 196.913C483.792 195.05 484.624 193.309 485.835 191.844C487.046 190.379 488.6 189.235 490.359 188.514L497.246 210.488C495.397 210.897 493.476 210.845 491.652 210.338C489.828 209.831 488.157 208.883 486.785 207.579Z" fill="#FFB7D5"/>
<path d="M490.024 200.703C490.445 202.047 490.347 203.5 489.747 204.773C489.146 206.047 488.089 207.049 486.785 207.579C485.366 206.232 484.313 204.546 483.724 202.681C483.134 200.815 483.028 198.831 483.415 196.913C484.791 196.598 486.236 196.813 487.461 197.516C488.685 198.218 489.601 199.356 490.024 200.703Z" fill="#30242A"/>
</svg>
