<svg width="1749" height="1812" viewBox="0 0 1749 1812" fill="none" xmlns="http://www.w3.org/2000/svg">
<path fill-rule="evenodd" clip-rule="evenodd" d="M1201.9 427.137C1484.71 342.187 1750.79 -147.045 1978.35 43.8317C2213.07 240.724 1820.77 623.29 1804.31 932.448C1796.22 1084.44 1917.25 1213.31 1908.01 1365.24C1896.53 1554.1 1878.04 1760.79 1745.86 1893.83C1606.73 2033.86 1395.62 2103.91 1201.9 2075.92C1017.45 2049.27 928.98 1830.42 759.658 1751.32C519.186 1638.99 122.286 1770.86 18.4948 1523.11C-81.5812 1284.23 250.717 1081.64 387.179 862.225C483.83 706.821 539.608 513.391 699.613 427.944C851.598 346.779 1037.29 476.584 1201.9 427.137Z" fill="url(#paint0_linear)" fill-opacity="0.4"/>
<defs>
<linearGradient id="paint0_linear" x1="-235.795" y1="1041.85" x2="2192.98" y2="1041.85" gradientUnits="userSpaceOnUse">
<stop stop-color="#25B0CF"/>
<stop offset="1" stop-color="#7656A5"/>
</linearGradient>
</defs>
</svg>
