<svg width="139" height="139" viewBox="0 0 139 139" fill="none" xmlns="http://www.w3.org/2000/svg">
<path d="M10.0082 25.6317L9.03516 25.9097L10.2862 27.0495C11.5094 28.1615 14.4284 30.9137 25.4372 41.3109C28.3562 44.0353 32.6652 48.0941 35.0282 50.3181C39.226 54.2657 42.5064 57.3515 46.7042 61.2991C47.8439 62.3833 50.0401 64.4683 51.5691 65.9139C53.0981 67.3595 55.6835 69.7781 57.2959 71.3071C58.9083 72.8361 60.6597 74.4207 61.1879 74.8099C66.1641 78.5907 72.8361 78.5907 77.8123 74.8099C78.3405 74.4207 80.0919 72.8361 81.7043 71.3071C83.3167 69.7781 85.9021 67.3595 87.4311 65.9139C88.9601 64.4683 91.2119 62.3277 92.4351 61.1601C93.6583 59.9925 97.8005 56.1283 101.609 52.5421C105.446 48.9559 110.755 43.9519 113.424 41.4221C121.486 33.8327 127.102 28.5507 128.575 27.1885L129.937 25.9097L128.853 25.6039C127.38 25.1869 11.426 25.2147 10.0082 25.6317Z" fill="white"/>
<path d="M2.94675 32.7202C2.52975 33.9434 2.50195 37.5574 2.55755 71.3066L2.64095 108.559L3.33595 110.06L4.03095 111.561L7.72835 108.809C12.5655 105.195 20.4051 99.329 32.6649 90.2106C51.3465 76.2828 51.2075 76.394 50.8183 76.0326C50.1789 75.4488 40.5323 66.386 38.5029 64.4956C37.4465 63.467 35.4449 61.6044 34.0549 60.2978C32.6927 59.019 30.4965 56.9618 29.1899 55.7108C25.6037 52.3192 16.2907 43.5344 13.6219 41.0324C9.09055 36.8068 6.81095 34.6384 5.11515 32.9982L3.39155 31.358L2.94675 32.7202Z" fill="white"/>
<path d="M133.301 33.582C132.077 34.7496 129.214 37.474 126.907 39.6146C122.82 43.4232 116.648 49.2334 108.169 57.2676C105.834 59.4916 103.582 61.6044 103.165 61.9658C102.776 62.3272 101.581 63.467 100.497 64.4678C98.7452 66.1358 89.0709 75.2264 88.1813 76.0326C87.7921 76.394 88.487 76.9222 108.003 91.4616C121.013 101.136 127.296 105.834 131.271 108.809L134.969 111.561L135.664 110.06L136.359 108.559V70.8896C136.359 38.0022 136.303 33.1094 135.942 32.331L135.525 31.4136L133.301 33.582Z" fill="white"/>
<path d="M49.0669 85.4293C45.5363 88.0703 38.7253 93.1577 33.9159 96.7439C29.1065 100.33 21.4615 106.001 16.9857 109.365L8.78467 115.481L9.61867 115.842C10.8141 116.343 128.186 116.343 129.409 115.815L130.243 115.481L124.822 111.45C121.847 109.226 115.453 104.472 110.644 100.886C105.834 97.2721 97.8837 91.3785 92.9909 87.7367C88.0981 84.0949 83.9281 80.9813 83.7613 80.8423C83.5111 80.6477 83.1219 80.7589 82.4547 81.2593C80.2585 82.9551 77.4507 84.2895 74.3649 85.1235C72.2799 85.6795 66.1917 85.5961 63.9399 84.9567C61.7993 84.3729 58.7413 82.8995 56.9621 81.5651C56.2393 81.0369 55.6277 80.6199 55.5721 80.6199C55.5165 80.6477 52.5697 82.7883 49.0669 85.4293Z" fill="white"/>
</svg>
