<svg width="135" height="155" viewBox="0 0 135 155" fill="none" xmlns="http://www.w3.org/2000/svg">
<path d="M91.3661 10.0205C82.9888 11.1103 74.6719 15.3789 68.7656 21.6152C60.4487 30.4248 56.7422 42.2012 58.4598 54.4619L58.8516 57.3379L29.4408 86.7939L0 116.25V121.185V126.089L4.76116 130.872L9.49219 135.625H19.2857H29.0792L33.8404 130.842L38.5714 126.089V121.154V116.25H43.3929H48.2143V111.406V106.562H53.0357H57.8571V101.719V96.875H67.4096H76.9922L82.2958 91.5469L87.5993 86.2187L91.1853 86.7334C106.614 89.0039 121.952 81.4658 129.968 67.7217C131.655 64.7851 132.981 61.4551 134.006 57.5195C135.06 53.5234 135.301 46.5303 134.548 42.0498C131.143 21.4639 112.068 7.29588 91.3661 10.0205ZM110.14 30.001C112.038 30.9092 113.846 32.7256 114.81 34.6631C115.413 35.9043 115.564 36.6309 115.564 38.75C115.564 41.1113 115.473 41.4746 114.539 43.2305C113.394 45.3496 112.46 46.2578 110.17 47.4687C108.844 48.165 108.271 48.2861 106.071 48.2861C103.962 48.2861 103.239 48.1348 102.003 47.5293C94.1685 43.6846 94.8315 32.5439 103.058 29.5469C104.956 28.8506 108.181 29.0625 110.14 30.001ZM33.8404 101.477L9.79353 125.635L9.70312 121.033L9.61272 116.432L33.6596 92.2734L57.7065 68.1152L57.7969 72.7168L57.8873 77.3184L33.8404 101.477Z" fill="white"/>
</svg>
