<svg width="1703" height="1948" viewBox="0 0 1703 1948" fill="none" xmlns="http://www.w3.org/2000/svg">
<path fill-rule="evenodd" clip-rule="evenodd" d="M1201.9 428.163C1484.71 343.009 1750.79 -147.398 1978.35 43.937C2213.07 241.302 1820.77 624.787 1804.31 934.687C1796.22 1087.05 1917.25 1216.23 1908.01 1368.52C1896.53 1557.83 1878.04 1765.02 1745.86 1898.38C1606.73 2038.75 1395.62 2108.97 1201.9 2080.91C1017.45 2054.19 928.98 1834.81 759.658 1755.53C519.186 1642.92 122.286 1775.11 18.4948 1526.77C-81.5812 1287.32 250.717 1084.24 387.179 864.295C483.83 708.518 539.608 514.624 699.613 428.971C851.598 347.612 1037.29 477.729 1201.9 428.163Z" fill="url(#paint0_linear)" fill-opacity="0.4"/>
<defs>
<linearGradient id="paint0_linear" x1="-235.795" y1="1044.35" x2="2192.98" y2="1044.35" gradientUnits="userSpaceOnUse">
<stop stop-color="#25B0CF"/>
<stop offset="1" stop-color="#7656A5"/>
</linearGradient>
</defs>
</svg>
