<svg width="1891" height="2629" viewBox="0 0 1891 2629" fill="none" xmlns="http://www.w3.org/2000/svg">
<path fill-rule="evenodd" clip-rule="evenodd" d="M1783.24 325.83C2202.83 203.75 2597.62 -499.316 2935.24 -225.01C3283.5 57.9396 2701.44 607.718 2677.03 1052C2665.02 1270.43 2844.58 1455.63 2830.88 1673.96C2813.84 1945.36 2786.42 2242.4 2590.3 2433.58C2383.87 2634.83 2070.66 2735.49 1783.24 2695.26C1509.58 2656.96 1378.31 2342.45 1127.09 2228.79C770.307 2067.35 181.433 2256.86 27.4404 1900.83C-121.041 1557.55 371.984 1266.41 574.451 951.086C717.85 727.758 800.607 449.784 1038 326.989C1263.5 210.349 1539.01 396.89 1783.24 325.83Z" fill="url(#paint0_linear)" fill-opacity="0.4"/>
<defs>
<linearGradient id="paint0_linear" x1="-349.845" y1="1209.22" x2="3253.68" y2="1209.22" gradientUnits="userSpaceOnUse">
<stop stop-color="#25B0CF"/>
<stop offset="1" stop-color="#7656A5"/>
</linearGradient>
</defs>
</svg>
