<svg width="1920" height="1604" viewBox="0 0 1920 1604" fill="none" xmlns="http://www.w3.org/2000/svg">
<path fill-rule="evenodd" clip-rule="evenodd" d="M112.902 -117.905C215.461 -112.541 316.211 -104.653 407.206 -57.6613C510.511 -4.31202 618.544 59.2641 662.398 165.869C707.491 275.484 680.96 399.813 641.33 511.465C602.425 621.075 536.025 719.128 441.473 788.29C346.258 857.938 231.426 897.644 112.902 897.997C-5.87421 898.351 -126.57 866.109 -217.113 790.252C-304.071 717.4 -336.929 604.488 -367.027 495.916C-395.741 392.339 -414.345 285.782 -385.679 182.193C-356.021 75.022 -301.091 -31.8254 -204.975 -89.678C-111.873 -145.716 3.99893 -123.601 112.902 -117.905Z" fill="#25AFCE"/>
<path fill-rule="evenodd" clip-rule="evenodd" d="M1910.95 1021.31C2055.89 999.578 2129.99 702.187 2267.91 756.648C2386.95 803.654 2277.92 1029.13 2287.99 1170.19C2294.99 1268.14 2325.81 1357.95 2317.85 1455.81C2307.74 1580.06 2334.16 1750.48 2235.99 1809.21C2133.64 1870.45 2026.67 1708.37 1910.95 1699.27C1809.18 1691.27 1703.82 1821.42 1617.42 1760.58C1532.31 1700.66 1575.73 1548.18 1544.31 1441.14C1512.71 1333.46 1419.47 1245.85 1433.41 1133.58C1448 1016.09 1513.67 878.564 1617.21 854.223C1727.36 828.326 1799.4 1038.04 1910.95 1021.31Z" fill="#626CAF"/>
</svg>
