<?xml version="1.0" encoding="utf-8"?>
<!-- Generator: Adobe Illustrator 16.0.0, SVG Export Plug-In . SVG Version: 6.00 Build 0)  -->
<!DOCTYPE svg PUBLIC "-//W3C//DTD SVG 1.1//EN" "http://www.w3.org/Graphics/SVG/1.1/DTD/svg11.dtd">
<svg version="1.1" id="Layer_1" xmlns="http://www.w3.org/2000/svg" xmlns:xlink="http://www.w3.org/1999/xlink" x="0px" y="0px"
	 width="1891px" height="2629px" viewBox="0 0 1891 2629" enable-background="new 0 0 1891 2629" xml:space="preserve">
<path fill="#FFFFFF" fill-opacity="0.4" d="M1783.24,325.83c419.59-122.08,814.38-825.146,1152-550.84
	C3283.5,57.939,2701.439,607.718,2677.03,1052c-12.011,218.43,167.55,403.63,153.85,621.96c-17.04,271.4-44.46,568.44-240.58,759.62
	c-206.43,201.25-519.64,301.91-807.06,261.68c-273.66-38.3-404.93-352.81-656.15-466.47
	c-356.783-161.44-945.657,28.07-1099.649-327.96c-148.481-343.28,344.544-634.42,547.011-949.744
	C717.85,727.758,800.607,449.784,1038,326.989C1263.5,210.349,1539.01,396.89,1783.24,325.83z"/>
</svg>
