<svg width="1920" height="2181" viewBox="0 0 1920 2181" fill="none" xmlns="http://www.w3.org/2000/svg">
<path fill-rule="evenodd" clip-rule="evenodd" d="M1315 560.079C1685.82 448.689 2034.73 -192.812 2333.11 57.4739C2640.89 315.647 2126.49 817.283 2104.91 1222.66C2094.3 1421.96 2252.99 1590.95 2240.88 1790.16C2225.82 2037.79 2201.58 2308.82 2028.26 2483.26C1845.82 2666.88 1569.01 2758.73 1315 2722.03C1073.14 2687.08 957.126 2400.11 735.104 2296.4C419.784 2149.1 -100.653 2322.02 -236.749 1997.16C-367.973 1683.94 67.7529 1418.29 246.69 1130.58C373.423 926.811 446.562 673.178 656.369 561.137C855.66 454.71 1099.15 624.916 1315 560.079Z" fill="url(#paint0_linear)" fill-opacity="0.4"/>
<defs>
<linearGradient id="paint0_linear" x1="-570.187" y1="1366.11" x2="2614.55" y2="1366.11" gradientUnits="userSpaceOnUse">
<stop stop-color="#25B0CF"/>
<stop offset="1" stop-color="#7656A5"/>
</linearGradient>
</defs>
</svg>
