<svg width="709" height="568" viewBox="0 0 709 568" fill="none" xmlns="http://www.w3.org/2000/svg">
<path d="M127.598 304.112H112.153V566.629H127.598V304.112Z" fill="#FFBE21"/>
<path d="M127.604 307.722H112.153" stroke="#A15842" stroke-width="4" stroke-miterlimit="10"/>
<path d="M42.0629 513.954C43.6274 509.467 46.5494 505.577 50.4235 502.825C54.2976 500.073 58.932 498.595 63.6841 498.595C68.4362 498.595 73.0706 500.073 76.9447 502.825C80.8188 505.577 83.7407 509.467 85.3053 513.954C86.7986 509.67 89.5307 505.926 93.1551 503.197C96.7794 500.469 101.133 498.878 105.662 498.628C103.64 495.023 101.232 491.649 98.4805 488.565L90.1666 479.214C87.5819 476.309 85.9541 472.678 85.504 468.816C85.054 464.953 85.8036 461.046 87.651 457.624L94.7072 444.512C92.7262 446.505 81.2741 457.228 63.8916 457.228C46.5091 457.228 35.057 446.505 33.076 444.512H33.0446L40.107 457.624C41.9463 461.053 42.6844 464.965 42.2208 468.828C41.7571 472.691 40.1143 476.318 37.516 479.214L29.2084 488.528C26.4518 491.612 24.0375 494.986 22.0076 498.59C26.4887 498.902 30.7792 500.525 34.3451 503.257C37.911 505.988 40.5949 509.708 42.0629 513.954Z" fill="#005BDC"/>
<path d="M106.926 527.204C102.173 527.205 97.5377 528.685 93.6634 531.439C89.7891 534.194 86.868 538.085 85.3053 542.574C83.7437 538.084 80.8229 534.192 76.9484 531.437C73.0739 528.683 68.438 527.203 63.6841 527.203C58.9302 527.203 54.2942 528.683 50.4198 531.437C46.5453 534.192 43.6245 538.084 42.0629 542.574C40.1718 537.149 36.3114 532.632 31.2467 529.919C26.182 527.206 20.2829 526.496 14.7188 527.928C15.0382 542.44 20.8869 556.284 31.0699 566.629H96.5938C106.756 556.306 112.603 542.498 112.945 528.016C110.984 527.478 108.96 527.205 106.926 527.204Z" fill="#005BDC"/>
<path d="M63.8413 457.253C81.2238 457.253 92.6758 446.53 94.6568 444.537H33.0257C35.0067 446.512 46.4588 457.253 63.8413 457.253Z" fill="#30242A"/>
<path d="M42.0629 542.574C43.6245 538.084 46.5453 534.192 50.4198 531.437C54.2942 528.682 58.9302 527.202 63.6841 527.202C68.438 527.202 73.0739 528.682 76.9484 531.437C80.8229 534.192 83.7437 538.084 85.3053 542.574C87.212 537.091 91.1306 532.537 96.268 529.834C101.405 527.132 107.378 526.481 112.976 528.015C113.235 517.74 110.712 507.587 105.675 498.627C101.145 498.878 96.792 500.469 93.1676 503.197C89.5433 505.926 86.8111 509.67 85.3179 513.953C83.7533 509.466 80.8314 505.577 76.9573 502.825C73.0831 500.073 68.4488 498.594 63.6967 498.594C58.9445 498.594 54.3102 500.073 50.436 502.825C46.5619 505.577 43.64 509.466 42.0754 513.953C40.5984 509.719 37.9106 506.011 34.3454 503.29C30.7802 500.568 26.4946 498.954 22.0202 498.646C17.0056 507.575 14.4878 517.69 14.7313 527.927C20.2955 526.495 26.1946 527.206 31.2593 529.919C36.3239 532.632 40.1844 537.149 42.0754 542.574H42.0629Z" fill="#3EC1F3"/>
<path d="M68.407 455.454C69.6648 447.756 75.3814 417.243 89.7578 400.659" stroke="#30242A" stroke-width="4" stroke-miterlimit="10" stroke-linecap="round"/>
<path d="M61.7722 455.674C61.6779 446.933 60.7786 404.011 52.2446 378.403" stroke="#30242A" stroke-width="4" stroke-miterlimit="10" stroke-linecap="round"/>
<path d="M99.5972 425.642C112.202 420.095 121.409 413.3 120.162 410.464C118.914 407.629 107.684 409.826 95.0786 415.372C82.4734 420.919 73.2664 427.714 74.5142 430.55C75.7619 433.385 86.992 431.188 99.5972 425.642Z" fill="#30242A"/>
<path d="M99.5898 347.617C104.122 341.491 106.063 335.244 103.927 333.663C101.791 332.083 96.3858 335.769 91.8541 341.895C87.3225 348.022 85.3805 354.269 87.5166 355.849C89.6528 357.429 95.0582 353.744 99.5898 347.617Z" fill="#30242A"/>
<path d="M31.3433 429.997C47.776 427.511 60.7415 423.144 60.3027 420.242C59.8638 417.341 46.1867 417.003 29.754 419.488C13.3213 421.973 0.355777 426.34 0.794649 429.242C1.23352 432.144 14.9106 432.482 31.3433 429.997Z" fill="#30242A"/>
<path d="M19.8631 387.132V387.176C22.2911 388.534 24.1223 390.752 24.9958 393.393C25.8692 396.034 25.7215 398.906 24.5818 401.444C23.442 403.982 21.3929 406 18.8385 407.102C16.284 408.203 13.4096 408.308 10.7819 407.395V407.432C24.5546 413.621 37.7675 414.092 40.2831 408.489C42.7987 402.885 33.642 393.32 19.8631 387.132Z" fill="#FF7235"/>
<path d="M60.5836 342.279C57.653 341.518 53.8419 345.952 51.0559 352.813C47.704 344.48 42.8427 338.902 39.5661 339.984C36.2896 341.065 35.7048 348.436 37.975 357.127C31.6484 353.279 25.9507 351.983 24.0452 354.341C21.6176 357.347 26.2966 365.146 34.4973 371.768C36.8304 373.669 39.3407 375.341 41.9936 376.761C42.4459 374.965 43.3397 373.31 44.5939 371.947C45.8482 370.584 47.4231 369.556 49.1756 368.956C50.9282 368.356 52.8028 368.204 54.6292 368.512C56.4556 368.821 58.176 369.581 59.634 370.724C60.8631 368.078 61.8442 365.325 62.5646 362.498C65.2122 352.304 64.3255 343.248 60.5836 342.279Z" fill="#FF7235"/>
<path d="M124.517 388.572C123.611 385.679 117.831 384.798 110.536 386.056C115.832 378.805 117.995 371.73 115.347 369.523C112.7 367.315 106.128 370.717 99.9521 377.239C99.8766 369.831 97.9585 364.309 94.9524 363.938C91.1225 363.466 86.9718 371.566 85.6889 382.019C85.3087 385.007 85.2161 388.025 85.4122 391.031C87.1766 390.462 89.0551 390.344 90.8769 390.686C92.6987 391.029 94.406 391.821 95.8434 392.992C97.2808 394.162 98.4028 395.674 99.1072 397.388C99.8116 399.103 100.076 400.967 99.8766 402.81C102.773 402.443 105.63 401.812 108.411 400.923C118.454 397.797 125.667 392.257 124.517 388.572Z" fill="#FF7235"/>
<path d="M95.9272 393.056C94.489 391.856 92.7708 391.04 90.9324 390.683C89.094 390.325 87.195 390.439 85.4122 391.012C85.7706 395.987 87.0284 399.817 88.9214 401.206C90.6886 402.842 94.7763 403.389 99.8641 402.791C100.062 400.97 99.8066 399.127 99.1197 397.429C98.4327 395.73 97.336 394.228 95.9272 393.056Z" fill="#30242A"/>
<path d="M49.2888 368.919C47.5105 369.506 45.9094 370.532 44.634 371.903C43.3587 373.274 42.4504 374.945 41.9937 376.761C46.3959 379.088 50.3076 380.031 52.5087 379.176C54.8293 378.547 57.4518 375.359 59.634 370.724C58.1926 369.593 56.4935 368.836 54.6883 368.521C52.8832 368.206 51.0282 368.343 49.2888 368.919Z" fill="#30242A"/>
<path d="M21.0894 405.804C19.9068 405.144 19.0149 404.065 18.5905 402.779C18.1661 401.493 18.24 400.095 18.7976 398.861C19.3553 397.627 20.3559 396.647 21.6015 396.116C22.847 395.585 24.2466 395.541 25.523 395.993C25.3754 394.173 24.7817 392.418 23.7945 390.883C22.8073 389.347 21.4571 388.078 19.863 387.188L10.763 407.395C12.4829 407.995 14.3241 408.164 16.1246 407.887C17.9251 407.609 19.63 406.894 21.0894 405.804Z" fill="#F5EBDD"/>
<path d="M18.7751 398.867C18.2266 400.1 18.1599 401.495 18.5883 402.775C19.0166 404.055 19.9089 405.129 21.0894 405.784C22.6009 404.66 23.8012 403.17 24.5769 401.453C25.3527 399.737 25.6783 397.851 25.523 395.974C24.2407 395.517 22.8332 395.561 21.5821 396.098C20.331 396.634 19.3285 397.623 18.7751 398.867Z" fill="#005BDC"/>
<path d="M434.383 409.017H274.437L277.142 398.288H347.351L374.129 293.565C377.777 279.301 386.07 266.656 397.699 257.626C409.329 248.596 423.634 243.695 438.357 243.694C474.387 243.694 500.75 277.654 491.813 312.558L475.267 377.264C472.945 386.345 467.666 394.394 460.264 400.143C452.861 405.892 443.756 409.014 434.383 409.017Z" fill="#FFB7D5"/>
<path d="M275.676 508.123V519.481H377.613V508.123H275.676Z" fill="#A15842"/>
<path d="M394.404 560.529L367.89 402.709H285.393L258.879 560.529C258.754 561.28 258.793 562.049 258.996 562.782C259.198 563.516 259.557 564.197 260.049 564.777C260.541 565.358 261.154 565.824 261.845 566.144C262.535 566.464 263.287 566.63 264.048 566.629C265.244 566.628 266.403 566.218 267.334 565.468C268.265 564.718 268.912 563.672 269.167 562.504L303.895 402.709H349.414L384.128 562.504C384.382 563.672 385.029 564.719 385.96 565.469C386.891 566.22 388.051 566.629 389.247 566.629C390.007 566.628 390.758 566.461 391.447 566.14C392.136 565.82 392.747 565.353 393.238 564.773C393.728 564.192 394.087 563.512 394.288 562.779C394.49 562.047 394.529 561.279 394.404 560.529Z" fill="#A15842"/>
<path d="M360.124 508.123V519.481H462.06V508.123H360.124Z" fill="#FFBE21"/>
<path d="M478.852 560.529L452.312 402.709H369.846L343.332 560.529C343.207 561.28 343.247 562.049 343.449 562.782C343.651 563.516 344.011 564.197 344.503 564.777C344.995 565.358 345.608 565.824 346.298 566.144C346.989 566.464 347.741 566.63 348.502 566.629C349.697 566.629 350.856 566.22 351.786 565.469C352.717 564.718 353.362 563.672 353.615 562.504L388.329 402.709H433.855L468.569 562.504C468.824 563.673 469.471 564.721 470.404 565.471C471.336 566.222 472.498 566.631 473.695 566.629C474.455 566.628 475.205 566.461 475.894 566.14C476.583 565.82 477.194 565.353 477.685 564.773C478.176 564.192 478.534 563.512 478.736 562.779C478.937 562.047 478.977 561.279 478.852 560.529Z" fill="#FFBE21"/>
<path d="M395.53 377.264L405.643 337.713H338.622C325.479 337.714 312.71 342.089 302.329 350.148C291.948 358.208 284.544 369.494 281.286 382.226L274.437 409.017H354.64C364.014 409.016 373.121 405.895 380.524 400.145C387.928 394.396 393.208 386.346 395.53 377.264Z" fill="#FFB7D5"/>
<path d="M278.796 397.238H363.884" stroke="#A15842" stroke-width="4" stroke-linecap="round" stroke-linejoin="round"/>
<path d="M347.653 396.842L362.564 338.544" stroke="#A15842" stroke-width="4" stroke-linecap="round" stroke-linejoin="round"/>
<path d="M484.386 336.361H444.137" stroke="#A15842" stroke-width="4" stroke-linecap="round" stroke-linejoin="round"/>
<path d="M491.932 308.062H440.364" stroke="#A15842" stroke-width="4" stroke-linecap="round" stroke-linejoin="round"/>
<path d="M304.09 295.283C304.09 295.283 253.634 309.024 232.201 319.746C196.864 337.412 196.983 349.071 175.438 414.344C155.546 474.667 153.357 503.904 125.919 505.061C104.971 505.942 98.1032 512.796 94.7072 522.192L177.601 561.523C178.551 561.972 179.637 562.042 180.637 561.717C181.637 561.392 182.474 560.697 182.978 559.774C183.491 558.831 183.616 557.725 183.326 556.692C183.036 555.658 182.354 554.778 181.425 554.24L179.683 553.234C187.387 543.901 202.247 524.016 217.064 493.81L226.497 498.212C226.497 498.212 241.735 478.409 244.15 455.945C247.295 426.934 245.408 407.382 258.659 396.031L413.177 295.257L304.09 295.283Z" fill="#FF7235"/>
<path d="M117.775 509.721C119.416 506.306 128.535 485.502 133.78 488.018C140.604 491.288 122.894 512.174 122.894 512.174L117.775 509.721Z" fill="#30242A"/>
<path d="M94.7009 522.488L177.595 561.812C178.554 562.27 179.654 562.339 180.663 562.003C181.672 561.668 182.512 560.955 183.007 560.013C183.501 559.072 183.612 557.976 183.316 556.955C183.02 555.933 182.34 555.067 181.418 554.536L179.676 553.53L179.852 553.316L122.875 526.418C123.729 524.053 124.328 521.603 124.661 519.111C133.189 520.588 150.446 522.18 150.534 515.067C150.628 508.438 131.78 511.099 124.894 512.973C124.745 510.425 124.25 507.909 123.422 505.495C104.424 506.803 97.9585 513.469 94.7009 522.488Z" fill="#30242A"/>
<path d="M232.201 319.746C228.233 321.727 224.717 323.633 221.567 325.545L216.731 341.034L235.346 327.922L252.508 341.606L246.181 322.847L265.62 313.942L250.596 312.055C244.332 314.29 238.192 316.857 232.201 319.746Z" fill="#FFB7D5"/>
<path d="M287.047 311.684L285.789 319.878L293.99 316.727L287.047 311.684Z" fill="#FFB7D5"/>
<path d="M239.748 352.675L227.768 368.441L210.737 360.246L220.825 377.27L205.058 390.515L225.239 387.993L232.182 411.331L239.119 387.993L261.193 381.685L239.748 372.856V352.675Z" fill="#FFB7D5"/>
<path d="M172.394 473.057L173.865 468.856L193.99 467.787L177.639 456.655L184.921 439.216L168.451 450.196L165.306 446.8C162.791 455.083 160.564 462.46 158.388 468.944H158.489C158.728 468.233 158.967 467.516 159.206 466.787L172.394 473.057Z" fill="#FFB7D5"/>
<path d="M172.394 473.057L159.187 466.812C158.948 467.541 158.709 468.258 158.47 468.969C150.49 492.741 143.22 504.627 125.932 505.356C125.083 505.356 124.265 505.438 123.46 505.495C124.288 507.909 124.783 510.424 124.932 512.972C131.849 511.086 150.666 508.438 150.571 515.066C150.471 522.179 133.227 520.588 124.699 519.11C124.359 521.603 123.754 524.053 122.894 526.418L179.871 553.315C187.619 543.882 202.354 524.097 217.058 494.143L172.394 473.057Z" fill="#EAA58B"/>
<path d="M222.718 425.205L220.831 442.235L203.172 441.606L218.309 452.964L212.649 473.145L227.799 459.894L241.414 468.975C241.792 467.772 242.138 466.554 242.452 465.321L237.232 452.322L245.32 443.461C245.452 441.814 245.578 440.191 245.697 438.613L231.572 440.971L222.718 425.205Z" fill="#FFB7D5"/>
<path d="M183.38 389.804C181.789 394.722 180.079 400.062 178.192 405.866L194.971 406.891L183.38 389.804Z" fill="#FFB7D5"/>
<path d="M242.628 543.442C242.892 539.669 243.716 516.966 249.515 517.375C257.061 517.903 248.288 543.838 248.288 543.838L242.628 543.442Z" fill="#30242A"/>
<path d="M382.298 296.207C382.298 296.207 319.227 307.904 284.537 322.407C249.515 337.053 249.854 363.064 256.156 433.72C261.816 496.974 271.928 527.689 251.125 537.147C232.044 545.826 225.416 556.706 226.321 566.655H320.246C320.775 566.655 321.299 566.55 321.788 566.348C322.277 566.145 322.722 565.848 323.096 565.474C323.471 565.1 323.767 564.655 323.97 564.166C324.173 563.677 324.277 563.153 324.277 562.623C324.277 561.554 323.852 560.529 323.096 559.773C322.34 559.017 321.315 558.592 320.246 558.592H318.661C321.623 548.901 325.918 529.984 326.509 498.678H338.156C338.156 498.678 344.144 471.007 337.528 446.329C330.61 420.476 324.283 416.061 320.504 398.402H377.022C420.183 398.402 452.489 358.48 443.099 316.357C440.169 303.194 435.917 296.232 435.917 296.232L382.298 296.207Z" fill="#FF7235"/>
<path d="M343.194 333.123L331.616 347.688L313.586 341.493L324.271 358.982L310.397 377.906L328.685 370.334L338.88 389.125L340.037 368.441L357.696 364.661L342.565 355.197L343.194 333.123Z" fill="#FFB7D5"/>
<path d="M318.001 445.556L328.692 463.045L314.818 481.968L333.107 474.422L339.886 486.918C340.88 477.208 341.37 462.844 338.201 449.052L336.037 451.775L318.001 445.556Z" fill="#FFB7D5"/>
<path d="M270.847 498.653L270.035 488.905L290.512 481.006L271.13 476.987L273.268 455.712L260.69 472.17L260.313 472.013C261.52 482.17 262.577 491.043 263.168 498.722V498.653H270.847Z" fill="#FFB7D5"/>
<path d="M320.246 558.567H318.661C321.623 548.876 325.918 529.959 326.509 498.653H263.149V498.709C263.199 499.338 263.243 499.967 263.287 500.596C263.287 500.653 263.287 500.716 263.287 500.772C264.602 520.425 262.457 531.921 251.099 537.084C232.019 545.763 225.39 556.643 226.296 566.592H320.246C321.315 566.592 322.34 566.167 323.096 565.411C323.852 564.655 324.277 563.63 324.277 562.561C324.277 561.491 323.852 560.466 323.096 559.71C322.34 558.954 321.315 558.529 320.246 558.529V558.567Z" fill="#EAA58B"/>
<path d="M404.341 297.836L375.368 300.402L378.387 312.049L359.853 321.935L382.94 325.023L390.751 342.324L398.781 324.407L422.264 320.696L401.869 310.194L404.341 297.836Z" fill="#FFB7D5"/>
<path d="M266.249 379.793L273.167 357.719L293.348 360.863L277.582 346.99L288.902 333.745L268.092 341.292L264.765 335.588C259.413 341.65 256.181 349.178 254.451 358.857L257.998 358.97L266.249 379.793Z" fill="#FFB7D5"/>
<path d="M320.246 310.546C315.988 311.728 311.749 312.967 307.611 314.244L324.283 325.564L320.246 310.546Z" fill="#FFB7D5"/>
<path d="M292.738 412.589L283.908 394.301L279.494 414.482L263.099 413.224L278.23 426.469L268.771 448.543L285.191 433.236L298.801 448.926L294.631 425.205L308.504 406.917L292.738 412.589Z" fill="#FFB7D5"/>
<path d="M255.3 551.19C263.639 548.888 279.915 542.964 276.972 536.493C274.23 530.456 258.319 540.895 252.892 545.543C251.522 543.029 249.772 540.742 247.703 538.763C231.239 547.146 225.46 557.296 226.321 566.629H320.246C321.315 566.629 322.34 566.205 323.096 565.449C323.852 564.693 324.277 563.667 324.277 562.598C324.277 561.529 323.852 560.504 323.096 559.748C322.34 558.992 321.315 558.567 320.246 558.567H256.791C256.555 556.062 256.055 553.59 255.3 551.19Z" fill="#30242A"/>
<path d="M320.246 399.792L304.008 399.565" stroke="#A15842" stroke-width="4" stroke-miterlimit="10" stroke-linecap="round"/>
<path d="M332.32 307.791C315.498 312.08 297.518 317.344 283.896 323.029C254.841 335.198 250.131 355.172 252.955 402.011" stroke="#A15842" stroke-width="4" stroke-miterlimit="10" stroke-linecap="round"/>
<path d="M545.816 304.112H530.37V566.629H545.816V304.112Z" fill="#FFBE21"/>
<path d="M545.816 307.722H530.37" stroke="#A15842" stroke-width="4" stroke-miterlimit="10"/>
<path d="M321.749 106.71C312.944 105.452 292.776 114.917 292.109 133.626C291.443 152.336 308.146 158.348 310.819 159.687L349.577 153.669L352.25 110.905L321.749 106.71Z" fill="#A15842"/>
<path d="M390.222 60.2476C406.859 60.2476 420.346 46.7607 420.346 30.1238C420.346 13.4869 406.859 0 390.222 0C373.585 0 360.099 13.4869 360.099 30.1238C360.099 46.7607 373.585 60.2476 390.222 60.2476Z" fill="#A15842"/>
<path d="M370.683 50.8395C372.519 51.6885 357.055 14.9928 349.162 20.7157C341.735 26.1178 361.356 46.5379 370.683 50.8395Z" fill="#30242A"/>
<path d="M371.538 53.0846C373.223 55.0971 412.68 41.293 407.221 33.3312C402.001 25.6714 369.852 51.0659 371.538 53.0846Z" fill="#30242A"/>
<path d="M423.918 154.009C423.918 154.009 450.407 131.935 433.351 107.339C422.497 91.6606 392.983 97.9054 392.983 97.9054C393.7 89.2959 396.039 64.4926 377.387 50.8645C358.734 37.2365 335.069 44.4121 326.447 55.1661C317.825 65.9201 319.994 86.0131 317.126 100.358C314.259 114.703 316.171 124.457 325.013 129.048C333.056 133.224 342.521 130.702 342.521 130.702L341.515 145.839C341.515 145.839 323.277 146.525 312.102 150.569C285.173 160.316 237.861 227.167 237.861 227.167C208.222 225.91 180.469 224.652 180.469 224.652L194.977 267.542C194.977 267.542 231.554 279.522 258.042 272.573C284.915 265.536 310.391 227.796 310.391 227.796L319.196 253.021L304.058 295.276H435.873L413.799 256.172C417.617 221.495 423.918 154.009 423.918 154.009Z" fill="#EAA58B"/>
<path d="M381.562 144.267L346.974 206.986L332.824 146.468C326.604 147.097 318.315 148.317 312.165 150.543C285.173 160.316 237.861 227.167 237.861 227.167C208.222 225.91 180.469 224.652 180.469 224.652L194.977 267.542C194.977 267.542 231.554 279.522 258.042 272.573C284.915 265.536 310.391 227.796 310.391 227.796L319.196 253.021L304.058 295.276H435.873L413.799 256.178C417.573 221.488 423.862 154.002 423.862 154.002C418.022 150.447 411.628 147.896 404.945 146.456C397.417 144.758 389.141 145.77 381.562 144.267Z" fill="#005BDC"/>
<path d="M202.436 290.867H311.661L286.827 212.432C286.097 210.121 284.649 208.102 282.694 206.669C280.738 205.236 278.377 204.464 275.953 204.464H183.645C181.851 204.463 180.082 204.885 178.483 205.696C176.883 206.507 175.497 207.684 174.437 209.131C173.378 210.579 172.675 212.256 172.385 214.026C172.096 215.796 172.228 217.609 172.771 219.319L193.298 284.182C193.914 286.123 195.131 287.816 196.774 289.018C198.417 290.22 200.4 290.868 202.436 290.867Z" fill="#30242A"/>
<path d="M218.712 239.947C221.611 235.985 234.761 246.449 235.729 247.311C236.232 246.449 243.081 235.991 248.1 239.947C252.458 243.38 242.88 258.719 240.333 262.631C240.226 262.749 240.096 262.844 239.95 262.909C239.804 262.974 239.646 263.007 239.487 263.007C239.327 263.007 239.17 262.974 239.024 262.909C238.878 262.844 238.748 262.749 238.641 262.631C233.994 258.719 216.196 243.38 218.712 239.947Z" fill="#A15842"/>
<path d="M234.646 242.599C235.743 242.257 235.785 239.257 234.739 235.897C233.692 232.538 231.954 230.092 230.857 230.434C229.759 230.776 229.718 233.776 230.764 237.135C231.81 240.495 233.548 242.941 234.646 242.599Z" fill="#A15842"/>
<path d="M375.085 282.038C375.401 283.053 375.474 284.127 375.299 285.175C375.124 286.224 374.705 287.216 374.076 288.073C373.447 288.929 372.625 289.626 371.678 290.107C370.73 290.588 369.683 290.84 368.62 290.842H202.436C200.4 290.843 198.417 290.195 196.774 288.993C195.131 287.791 193.914 286.098 193.298 284.157L192.619 282.013L375.085 282.038Z" fill="#30242A"/>
<path d="M572.43 290.868H85.538V306.634H572.43V290.868Z" fill="#FFBE21"/>
<path d="M475.261 377.264L485.373 337.713H426.383C413.241 337.714 400.474 342.089 390.093 350.149C379.713 358.209 372.311 369.494 369.054 382.226L362.199 409.017H434.364C443.739 409.016 452.847 405.895 460.251 400.146C467.656 394.397 472.937 386.346 475.261 377.264Z" fill="#FFB7D5"/>
<path d="M363.595 398.647L361.262 408.508" stroke="#A15842" stroke-width="4" stroke-linecap="round" stroke-linejoin="round"/>
<path d="M175.211 226.922C167.872 230.589 164.206 236.702 164.206 240.984C164.206 247.235 170.57 248.412 170.57 248.412C170.57 248.412 165.822 255.876 174.079 259.379C174.079 259.379 174.079 267.064 181.771 267.064C181.771 267.064 180.752 273.058 188.776 273.624C196.801 274.19 205.058 270.001 205.756 267.291C206.555 264.09 204.398 261.411 198.575 260.562C198.575 260.562 206.436 256.889 205.19 252.254C203.945 247.619 198.631 247.726 198.631 247.726C198.631 247.726 203.719 244.676 201.002 240.179C198.285 235.683 193.091 237.242 193.091 237.242C193.091 237.242 194.449 234.098 192.072 231.702C189.242 228.872 177.073 232.444 177.073 232.444L175.211 226.922Z" fill="#EAA58A"/>
<path d="M181.827 267.36C188.45 265.772 194.874 263.452 200.983 260.442" stroke="#A15842" stroke-width="4" stroke-miterlimit="10" stroke-linecap="round"/>
<path d="M174.06 259.341C183.242 256.824 192.009 252.983 200.084 247.94" stroke="#A15842" stroke-width="4" stroke-miterlimit="10" stroke-linecap="round"/>
<path d="M169.941 249.304C178.45 246.787 186.489 242.893 193.738 237.777" stroke="#A15842" stroke-width="4" stroke-miterlimit="10" stroke-linecap="round"/>
<path d="M433.383 107.339C422.528 91.6606 393.015 97.9054 393.015 97.9054C393.732 89.2959 396.071 64.4926 377.418 50.8645C358.765 37.2365 335.1 44.4121 326.478 55.1661C322.969 59.5683 321.252 65.4925 320.252 71.9575C325.975 72.9197 334.371 70.9512 334.371 70.9512C345.848 83.8623 356.13 85.9125 356.13 85.9125C364.161 77.8816 378.248 78.1457 380.537 90.3147C382.915 102.949 362.734 108.628 362.734 108.628C362.734 108.628 360.847 131.331 370.909 139.532C373.997 141.979 377.649 143.616 381.531 144.292C389.078 145.795 397.385 144.783 404.97 146.468C411.653 147.909 418.047 150.46 423.887 154.015C426.191 151.985 428.297 149.74 430.176 147.311C436.792 138.922 444.703 123.69 433.383 107.339Z" fill="#A15842"/>
<path d="M346.345 66.3477C342.571 69.4921 338.169 71.3788 333.1 72.6365" stroke="#EAA58B" stroke-width="4" stroke-miterlimit="10" stroke-linecap="round"/>
<path d="M342.313 132.117C345.242 131.14 348.067 129.876 350.747 128.344" stroke="#A15842" stroke-width="4" stroke-miterlimit="10" stroke-linecap="round"/>
<path d="M363.507 95.9433L369.242 92.3586" stroke="#A15842" stroke-width="4" stroke-miterlimit="10" stroke-linecap="round"/>
<path d="M330.597 112.779C331.786 113.515 336.257 114.087 338.031 110.672" stroke="#A15842" stroke-width="4" stroke-miterlimit="10" stroke-linecap="round"/>
<path d="M342.282 96.6415C343.47 96.6415 344.433 95.6785 344.433 94.4907C344.433 93.3028 343.47 92.3398 342.282 92.3398C341.094 92.3398 340.131 93.3028 340.131 94.4907C340.131 95.6785 341.094 96.6415 342.282 96.6415Z" fill="#30242A"/>
<path d="M324.453 93.7926C325.641 93.7926 326.604 92.8296 326.604 91.6418C326.604 90.4539 325.641 89.491 324.453 89.491C323.265 89.491 322.302 90.4539 322.302 91.6418C322.302 92.8296 323.265 93.7926 324.453 93.7926Z" fill="#30242A"/>
<path d="M330.509 99.9495C330.082 101.302 329.711 102.773 329.956 103.264C330.293 103.885 330.804 104.395 331.427 104.729" stroke="#A15842" stroke-width="4" stroke-miterlimit="10" stroke-linecap="round"/>
<path d="M366.205 117.017C370.366 117.017 373.739 113.644 373.739 109.483C373.739 105.322 370.366 101.949 366.205 101.949C362.044 101.949 358.671 105.322 358.671 109.483C358.671 113.644 362.044 117.017 366.205 117.017Z" fill="#F5EBDD"/>
<path d="M329.961 92.851C331.264 86.1517 327.432 79.7696 321.401 78.5962C315.37 77.4228 309.424 81.9024 308.12 88.6017C306.817 95.301 310.649 101.683 316.681 102.857C322.712 104.03 328.657 99.5504 329.961 92.851Z" stroke="#30242A" stroke-width="4" stroke-miterlimit="10" stroke-linecap="round"/>
<path d="M357.286 96.2014C358.59 89.5021 354.757 83.1199 348.726 81.9465C342.695 80.7731 336.749 85.2527 335.446 91.9521C334.142 98.6514 337.975 105.034 344.006 106.207C350.037 107.38 355.983 102.901 357.286 96.2014Z" stroke="#30242A" stroke-width="4" stroke-miterlimit="10" stroke-linecap="round"/>
<path d="M330.478 91.8367L334.823 92.302" stroke="#30242A" stroke-width="4" stroke-miterlimit="10" stroke-linecap="round"/>
<path d="M394.455 98.7358L393.203 106.786" stroke="#30242A" stroke-width="4" stroke-miterlimit="10" stroke-linecap="round"/>
<path d="M303.461 211.401L309.548 229.117" stroke="#30242A" stroke-width="4" stroke-linecap="round" stroke-linejoin="round"/>
<path d="M335.622 251.763H319.617" stroke="#30242A" stroke-width="4" stroke-linecap="round" stroke-linejoin="round"/>
<path d="M348.238 206.358L353.281 230.954V253.656" stroke="#30242A" stroke-width="4" stroke-linecap="round" stroke-linejoin="round"/>
<path d="M314.693 149.996L324.271 171.668L312.919 170.41L353.281 230.953" stroke="#30242A" stroke-width="4" stroke-linecap="round" stroke-linejoin="round"/>
<path d="M408.014 147.418L391.757 170.41L406.894 169.146L351.388 218.338" stroke="#30242A" stroke-width="4" stroke-linecap="round" stroke-linejoin="round"/>
<path d="M416.466 224.514L404.372 207.622" stroke="#30242A" stroke-width="4" stroke-linecap="round" stroke-linejoin="round"/>
<path d="M430.459 286.774C423.874 284.579 412.057 280.34 404.932 276.083" stroke="#30242A" stroke-width="4" stroke-linecap="round" stroke-linejoin="round"/>
<path d="M248.835 130.287C255.667 130.287 261.206 124.749 261.206 117.917C261.206 111.085 255.667 105.547 248.835 105.547C242.003 105.547 236.465 111.085 236.465 117.917C236.465 124.749 242.003 130.287 248.835 130.287Z" fill="#FFB7D5"/>
<path d="M211.864 68.6873L204.662 60.0029C203.554 58.6662 201.571 58.4812 200.234 59.5898L200.08 59.7183C198.743 60.8269 198.558 62.8092 199.666 64.146L206.869 72.8303C207.977 74.1671 209.96 74.352 211.296 73.2434L211.451 73.1149C212.788 72.0063 212.973 70.024 211.864 68.6873Z" fill="#005BDC"/>
<path d="M224.818 79.2401L217.573 70.4985L87.3492 178.479C86.2135 179.421 85.4987 180.776 85.3619 182.246C85.2251 183.715 85.6775 185.179 86.6196 186.315L86.7643 186.491C87.2304 187.053 87.8027 187.518 88.4485 187.859C89.0943 188.2 89.8009 188.41 90.528 188.478C91.2551 188.545 91.9884 188.469 92.686 188.253C93.3837 188.038 94.032 187.687 94.594 187.22L135.308 153.449V271.951H146.672V144.016L224.818 79.2401Z" fill="#3EC1F3"/>
<path d="M203.832 81.7556L207.461 86.1578C208.724 87.6851 209.685 89.4397 210.291 91.3273" stroke="#005BDC" stroke-width="4" stroke-miterlimit="10"/>
<path d="M140.987 156.072C149.174 156.072 155.81 149.435 155.81 141.249C155.81 133.062 149.174 126.426 140.987 126.426C132.801 126.426 126.164 133.062 126.164 141.249C126.164 149.435 132.801 156.072 140.987 156.072Z" fill="#005BDC"/>
<path d="M140.987 146.946C144.134 146.946 146.685 144.395 146.685 141.249C146.685 138.102 144.134 135.551 140.987 135.551C137.84 135.551 135.289 138.102 135.289 141.249C135.289 144.395 137.84 146.946 140.987 146.946Z" fill="#3EC1F3"/>
<path d="M258.992 110.892L240.031 126.564" stroke="#A15842" stroke-width="4" stroke-miterlimit="10"/>
<path d="M234.427 77.6552C230.44 77.1868 226.787 75.2003 224.227 72.1084L219.196 66.027C217.418 63.8862 214.862 62.5387 212.091 62.2804C209.32 62.0222 206.56 62.8744 204.417 64.6498C203.356 65.5292 202.479 66.609 201.836 67.8274C201.193 69.0458 200.796 70.379 200.668 71.7508C200.54 73.1226 200.684 74.5062 201.091 75.8225C201.498 77.1388 202.16 78.362 203.04 79.4224L208.071 85.5226C210.62 88.6056 211.887 92.55 211.611 96.5408L210.354 114.929C209.73 123.927 212.014 132.887 216.869 140.488L218.479 143.003L278.808 92.9624L276.645 90.9311C270.078 84.7532 261.701 80.8487 252.747 79.7934L234.427 77.6552Z" fill="#3EC1F3"/>
<path d="M146.672 271.951H135.308L118.511 276.529C115.366 277.387 112.59 279.256 110.611 281.847C108.633 284.438 107.561 287.608 107.562 290.868H174.413C174.413 287.607 173.34 284.436 171.36 281.845C169.381 279.254 166.604 277.386 163.457 276.529L146.672 271.951Z" fill="#3EC1F3"/>
<path d="M267.362 84.0637L212.152 129.696" stroke="#005BDC" stroke-width="4" stroke-miterlimit="10" stroke-linecap="round"/>
<path d="M135.031 270.649H146.672" stroke="#005BDC" stroke-width="4" stroke-miterlimit="10" stroke-linecap="round"/>
<path d="M109.769 283.006H171.828" stroke="#005BDC" stroke-width="4" stroke-miterlimit="10" stroke-linecap="round"/>
<path d="M467.444 453.108C468.701 442.417 468.072 418.419 454.199 400.131C440.326 381.842 459.23 389.439 464.89 394.471C473.946 402.52 481.921 410.237 488.857 436.097L467.444 453.108Z" fill="#30242A"/>
<path d="M634.961 566.629H709V564.208C708.998 560.795 707.641 557.522 705.227 555.109C702.813 552.697 699.54 551.341 696.127 551.341H634.577L634.961 566.629Z" fill="#A15842"/>
<path d="M454.35 495.942L469.965 566.629H498.982V562.227C498.982 559.389 497.857 556.666 495.853 554.656C493.849 552.646 491.13 551.513 488.291 551.504C488.291 551.504 502.793 540.631 511.623 529.908C511.623 529.908 526.76 548.354 548.206 545.197L549.759 552.743C550.567 556.66 552.699 560.179 555.798 562.708C558.896 565.237 562.771 566.622 566.77 566.629H637.099C668.292 566.629 683.637 561.868 684.517 544.109C684.544 543.431 684.434 542.755 684.194 542.121C683.953 541.488 683.587 540.909 683.117 540.42C682.647 539.932 682.083 539.543 681.459 539.277C680.835 539.012 680.164 538.876 679.486 538.876H659.852C659.043 538.877 658.243 538.696 657.513 538.347C656.782 537.997 656.14 537.488 655.632 536.857L647.274 526.487C644.797 523.418 641.491 521.125 637.748 519.88C634.006 518.635 629.985 518.49 626.163 519.462L609.352 523.758C609.352 523.758 579.568 480.956 552.589 451.228C526.804 422.846 478.305 419.783 459.199 456.75C453.056 468.847 451.341 482.712 454.35 495.942Z" fill="#A15842"/>
<path d="M630.162 566.629V564.208C630.162 562.518 629.829 560.844 629.182 559.283C628.535 557.721 627.587 556.302 626.391 555.108C625.196 553.913 623.777 552.965 622.215 552.319C620.653 551.672 618.979 551.34 617.289 551.341H608.717" stroke="#30242A" stroke-width="4" stroke-miterlimit="10"/>
<path d="M512.793 530.411C517.195 525.173 532.219 505.885 531.144 487.018C529.993 466.831 517.899 456.115 517.899 456.115" stroke="#30242A" stroke-width="4" stroke-miterlimit="10" stroke-linecap="round"/>
<path d="M544.388 518.544C544.388 518.544 545.193 533.468 546.809 544.612" stroke="#30242A" stroke-width="4" stroke-miterlimit="10" stroke-linecap="round"/>
<path d="M483.845 560.171V566" stroke="#30242A" stroke-width="4" stroke-miterlimit="10" stroke-linecap="round"/>
<path d="M490.782 560.171V566" stroke="#30242A" stroke-width="4" stroke-miterlimit="10" stroke-linecap="round"/>
<path d="M616.289 560.171V566" stroke="#30242A" stroke-width="4" stroke-miterlimit="10" stroke-linecap="round"/>
<path d="M623.226 560.171V566" stroke="#30242A" stroke-width="4" stroke-miterlimit="10" stroke-linecap="round"/>
<path d="M641.828 543.14C643.395 543.14 644.665 541.87 644.665 540.304C644.665 538.737 643.395 537.468 641.828 537.468C640.262 537.468 638.992 538.737 638.992 540.304C638.992 541.87 640.262 543.14 641.828 543.14Z" fill="#30242A"/>
<path d="M626.351 519.406V519.331L609.327 523.733L626.138 519.438L626.351 519.406Z" fill="#30242A"/>
<path d="M584.455 551.624C579.524 554.14 572.556 559.064 573.135 566.522H600.517L606.271 557.447C607.211 555.963 608.511 554.741 610.051 553.893C611.59 553.045 613.318 552.6 615.075 552.599H616.905L626.288 519.595L626.15 519.45L609.34 523.745L593.247 544.36C590.877 547.391 587.877 549.869 584.455 551.624Z" fill="#30242A"/>
<path d="M544.464 466.636C544.464 466.636 536.848 492.999 561.444 502.954C573.915 507.985 584.272 504.168 591.461 499.181C580.6 484.716 566.23 466.303 552.583 451.26C549.161 447.495 545.316 444.137 541.124 441.254C537.401 446.323 533.326 458.863 544.464 466.636Z" fill="#EAA58B"/>
<path d="M481.638 485.754C487.386 485.754 492.046 481.094 492.046 475.346C492.046 469.598 487.386 464.938 481.638 464.938C475.889 464.938 471.229 469.598 471.229 475.346C471.229 481.094 475.889 485.754 481.638 485.754Z" fill="#EAA58B"/>
<path d="M679.511 538.876H675.738C675.53 539.929 675.558 541.014 675.819 542.054C676.08 543.094 676.567 544.064 677.247 544.893C677.927 545.723 678.782 546.392 679.751 546.852C680.72 547.312 681.778 547.552 682.851 547.555C683.294 547.555 683.736 547.513 684.171 547.429C684.363 546.331 684.487 545.222 684.542 544.109C684.57 543.431 684.459 542.755 684.219 542.122C683.978 541.488 683.612 540.909 683.142 540.42C682.672 539.932 682.108 539.543 681.484 539.278C680.86 539.012 680.189 538.876 679.511 538.876Z" fill="#30242A"/>
<path d="M694.492 560.171V565.856" stroke="#30242A" stroke-width="4" stroke-miterlimit="10" stroke-linecap="round"/>
<path d="M701.428 560.171V565.856" stroke="#30242A" stroke-width="4" stroke-miterlimit="10" stroke-linecap="round"/>
<path d="M656.431 565.875C671.851 564.321 681.046 560.145 684.385 551.259" stroke="#30242A" stroke-width="4" stroke-linecap="round" stroke-linejoin="round"/>
<path d="M405.001 234.997C397.24 234.302 389.437 234.216 381.663 234.739C370.544 235.651 355.596 238.563 349.59 241.468C343.584 244.374 320.585 254.631 326.78 258.071C332.44 261.215 344.313 256.486 344.313 256.486C344.313 256.486 332.465 267.379 330.427 271.938C328.39 276.497 335.125 279.057 335.125 279.057C336.899 286.843 344.835 283.497 344.835 283.497C349.835 294.131 376.846 271.089 376.846 271.089C383.272 271.757 389.761 271.483 396.109 270.278C396.109 270.278 399.53 272.196 405.02 274.862L405.001 234.997Z" fill="#EAA58A"/>
<path d="M472.481 288.346C522.937 264.379 449.797 174.832 423.918 154.009L409.416 212.666L427.704 237.89C419.692 236.507 412.032 235.557 405.001 234.997V274.863C421.013 282.648 454.658 296.836 472.481 288.346Z" fill="#005BDC"/>
<path d="M341.898 257.147C346.376 253.443 353.809 247.456 359.356 243.846" stroke="#A15842" stroke-width="4" stroke-miterlimit="10" stroke-linecap="round"/>
<path d="M365.469 252.694C352.583 261.039 340.842 272.19 335.031 278.026" stroke="#A15842" stroke-width="4" stroke-miterlimit="10" stroke-linecap="round"/>
<path d="M371.186 262.134C362.381 268.177 352.162 277.34 345.489 283.629" stroke="#A15842" stroke-width="4" stroke-miterlimit="10" stroke-linecap="round"/>
<path d="M522.559 258.744C523.513 258.746 524.427 259.125 525.101 259.8C525.775 260.474 526.155 261.388 526.157 262.341V262.876C526.155 263.829 525.775 264.743 525.101 265.418C524.427 266.092 523.513 266.471 522.559 266.473H504.026V258.744H522.559ZM522.559 253.713H499.674C499.584 253.713 499.496 253.731 499.413 253.765C499.33 253.8 499.255 253.85 499.192 253.914C499.128 253.978 499.079 254.053 499.045 254.137C499.011 254.22 498.994 254.309 498.995 254.398V270.844C498.995 271.024 499.066 271.197 499.194 271.324C499.321 271.452 499.494 271.523 499.674 271.523H522.559C523.694 271.523 524.818 271.299 525.866 270.864C526.914 270.43 527.866 269.792 528.667 268.989C529.469 268.186 530.104 267.233 530.536 266.184C530.969 265.135 531.19 264.011 531.188 262.876V262.322C531.188 260.034 530.279 257.839 528.661 256.221C527.042 254.603 524.848 253.694 522.559 253.694V253.713Z" fill="#3EC1F3"/>
<path d="M494.888 251.003C476.147 251.003 467.488 236.066 467.488 236.066L480.065 290.868H509.673L522.251 236.066C519.33 240.671 515.287 244.458 510.5 247.071C505.714 249.683 500.341 251.036 494.888 251.003Z" fill="#3EC1F3"/>
<path d="M494.888 251.003C500.348 251.043 505.728 249.693 510.521 247.08C515.315 244.467 519.365 240.677 522.289 236.066H467.488C467.488 236.066 476.147 251.003 494.888 251.003Z" fill="#30242A"/>
</svg>
